<svg xmlns="http://www.w3.org/2000/svg" width="124" height="124" viewBox="0 0 124 124"><g transform="translate(-270 -1218.061)"><circle cx="62" cy="62" r="62" transform="translate(270 1218.061)" fill="#b8dcf3"/><path d="M60.382,49.165a8.67,8.67,0,0,1-.644-3.356V34.876h.586a2.018,2.018,0,0,0,2.015-2.015v-2.8a2.018,2.018,0,0,0-2.015-2.016H54.2l1.287-6.1a5.129,5.129,0,0,0,4.428.619,5.187,5.187,0,0,0,3.441-4.126,4.905,4.905,0,0,0-1.64-4.376A4.713,4.713,0,0,0,61.042,8.6a4.58,4.58,0,0,0-5.293-.841,6.6,6.6,0,0,0-11.906,0A4.58,4.58,0,0,0,38.55,8.6a4.714,4.714,0,0,0-.671,5.465,4.906,4.906,0,0,0-1.64,4.376,5.188,5.188,0,0,0,3.441,4.126,5.13,5.13,0,0,0,4.428-.619l1.287,6.1H39.267a2.018,2.018,0,0,0-2.016,2.016v2.8a2.018,2.018,0,0,0,2.016,2.015h.586V45.808a8.674,8.674,0,0,1-.644,3.356L32.486,66.046a3.774,3.774,0,0,0,3.506,5.171H63.6a3.774,3.774,0,0,0,3.506-5.171L60.382,49.165ZM40.277,20.8a3.348,3.348,0,0,1-2.192-2.627,3.23,3.23,0,0,1,1.551-3.132.933.933,0,0,0,.219-1.3A2.938,2.938,0,0,1,39.9,9.891c.743-.773,2.176-1.179,3.972,0A.933.933,0,0,0,45.29,9.32a4.666,4.666,0,0,1,9.012,0,.933.933,0,0,0,1.422.572c1.8-1.179,3.229-.774,3.972,0a2.938,2.938,0,0,1,.041,3.841.933.933,0,0,0,.219,1.3,3.23,3.23,0,0,1,1.551,3.132A3.348,3.348,0,0,1,59.315,20.8a3.5,3.5,0,0,1-3.409-.843l.21-.995a.934.934,0,0,0-1.827-.386l-.284,1.344a5.365,5.365,0,0,1-8.419,0L45.3,18.572a.934.934,0,0,0-1.827.386l.21.995a3.5,3.5,0,0,1-3.409.843Zm5.947,2.142a7.652,7.652,0,0,0,7.143,0L52.29,28.044H47.3l-1.078-5.106Zm-7.105,9.923v-2.8a.152.152,0,0,1,.148-.148H60.325a.152.152,0,0,1,.148.148v2.8a.152.152,0,0,1-.148.148H39.268a.152.152,0,0,1-.148-.148Zm1.826,16.995a10.456,10.456,0,0,0,.776-4.047V34.876h16.15V45.808a10.454,10.454,0,0,0,.776,4.047l.589,1.479c-4.772-2.881-8.341-1.127-11.811.578-2.574,1.265-5.02,2.465-8.119,2.056l1.638-4.112ZM65.179,68.513a1.833,1.833,0,0,1-1.578.837H35.992a1.907,1.907,0,0,1-1.772-2.612L38.6,55.747a11.249,11.249,0,0,0,1.915.166c3,0,5.487-1.22,7.736-2.326,3.984-1.958,7.14-3.507,12.3,1.046l4.821,12.1a1.833,1.833,0,0,1-.193,1.776ZM52.841,54.751a3.3,3.3,0,1,0,3.3,3.3,3.3,3.3,0,0,0-3.3-3.3Zm0,4.731a1.432,1.432,0,1,1,1.432-1.432A1.433,1.433,0,0,1,52.841,59.481ZM52.81,48.043a3.168,3.168,0,1,0-3.168-3.168A3.172,3.172,0,0,0,52.81,48.043Zm0-4.469a1.3,1.3,0,1,1-1.3,1.3A1.3,1.3,0,0,1,52.81,43.574Zm6.552,18.345a2.545,2.545,0,1,0,2.545,2.545,2.548,2.548,0,0,0-2.545-2.545Zm0,3.223a.678.678,0,1,1,.678-.678A.679.679,0,0,1,59.361,65.143ZM45.233,59.365a.934.934,0,0,1-.934.934h-.375v.375a.934.934,0,1,1-1.867,0V60.3h-.375a.934.934,0,0,1,0-1.867h.375v-.375a.934.934,0,1,1,1.867,0v.375H44.3A.934.934,0,0,1,45.233,59.365Zm.911-17.678a2.61,2.61,0,1,0-2.61-2.61,2.613,2.613,0,0,0,2.61,2.61Zm0-3.352a.743.743,0,1,1-.743.743.743.743,0,0,1,.743-.743ZM29.587,15.457a.934.934,0,0,1,.934-.934h2.538a.934.934,0,0,1,0,1.867H30.521A.934.934,0,0,1,29.587,15.457Zm5.561,5.415a.934.934,0,0,1-.438,1.246l-2.2,1.055A.934.934,0,0,1,31.7,21.49l2.2-1.055a.934.934,0,0,1,1.246.438ZM31.267,8.179a.934.934,0,0,1,1.246-.438L34.71,8.8A.934.934,0,1,1,33.9,10.48L31.7,9.425a.934.934,0,0,1-.438-1.246ZM64.444,20.872a.934.934,0,0,1,1.246-.438l2.2,1.055a.934.934,0,1,1-.808,1.683l-2.2-1.055a.934.934,0,0,1-.438-1.246Zm2.089-6.349h2.538a.934.934,0,0,1,0,1.867H66.533a.934.934,0,1,1,0-1.867Zm-2.089-4.482A.934.934,0,0,1,64.882,8.8l2.2-1.055a.934.934,0,1,1,.808,1.683l-2.2,1.055a.933.933,0,0,1-1.246-.438ZM33.656,32.5a2.468,2.468,0,0,0-1.473-4.451h-7.5A2.468,2.468,0,0,0,23.207,32.5V60.486a5.224,5.224,0,1,0,10.448,0ZM24.68,29.911h7.5a.6.6,0,0,1,0,1.208h-7.5a.6.6,0,1,1,0-1.208Zm3.752,33.931a3.361,3.361,0,0,1-3.343-3.062h1.93a.934.934,0,0,0,0-1.867H25.075V56.557h1.943a.934.934,0,1,0,0-1.867H25.075V52.333h1.943a.934.934,0,1,0,0-1.867H25.075V48.109h1.943a.934.934,0,1,0,0-1.867H25.075V43.886h1.943a.934.934,0,1,0,0-1.867H25.075V39.662h1.943a.934.934,0,1,0,0-1.867H25.075V32.986h6.714v27.5a3.361,3.361,0,0,1-3.357,3.357ZM17.262,29.167A3.131,3.131,0,1,0,20.394,32.3,3.135,3.135,0,0,0,17.262,29.167Zm0,4.4A1.264,1.264,0,1,1,18.527,32.3,1.266,1.266,0,0,1,17.262,33.563ZM69.7,26.191a3.925,3.925,0,1,0,3.925,3.925A3.929,3.929,0,0,0,69.7,26.191Zm0,5.982a2.057,2.057,0,1,1,2.057-2.057A2.06,2.06,0,0,1,69.7,32.173Zm6.2-16.276a2.754,2.754,0,1,0,2.754,2.754A2.757,2.757,0,0,0,75.892,15.9Zm0,3.641a.887.887,0,1,1,.887-.887A.888.888,0,0,1,75.892,19.538Zm-1.8-8.711a3.414,3.414,0,1,0-3.414-3.414A3.418,3.418,0,0,0,74.1,10.828Zm0-4.96A1.547,1.547,0,1,1,72.55,7.414,1.548,1.548,0,0,1,74.1,5.867ZM22.369,12.25a4.125,4.125,0,1,0-4.125-4.125A4.13,4.13,0,0,0,22.369,12.25Zm0-6.383a2.258,2.258,0,1,1-2.258,2.258A2.26,2.26,0,0,1,22.369,5.867Zm-.017,16.4a2.754,2.754,0,1,0,2.754-2.754A2.757,2.757,0,0,0,22.352,22.264Zm3.641,0a.887.887,0,1,1-.887-.887A.888.888,0,0,1,25.993,22.264Z" transform="translate(285.612 1242.452)" fill="#20849e"/></g></svg>