<svg xmlns="http://www.w3.org/2000/svg" width="86.206" height="86.206" viewBox="0 0 86.206 86.206"><g transform="translate(1545 6139.851)"><circle cx="43.103" cy="43.103" r="43.103" transform="translate(-1545 -6139.851)" fill="#b8dcf3"/><path d="M-15.352-16.084q0-7.529,3.252-11.865a10.7,10.7,0,0,1,9.082-4.336,9.1,9.1,0,0,1,7.148,3.34V-45h9.9V0H5.156l-.5-3.4A9.349,9.349,0,0,1-3.076.586,10.685,10.685,0,0,1-12.041-3.75Q-15.352-8.086-15.352-16.084Zm9.873.615q0,8.438,4.922,8.438A4.86,4.86,0,0,0,4.131-9.785v-12.07A4.729,4.729,0,0,0-.5-24.668q-4.57,0-4.951,7.383Z" transform="translate(-1502 -6079)" fill="#20849e"/></g></svg>