<svg xmlns="http://www.w3.org/2000/svg" width="88" height="88" viewBox="0 0 88 88"><g transform="translate(-333.348 -3672)"><circle cx="44" cy="44" r="44" transform="translate(333.348 3672)" fill="#dee4f0"/><path d="M69.03,42.354H67.707a2.341,2.341,0,0,0-2.339,2.339v3.982A5.052,5.052,0,0,0,61.7,47.1H34.092V45.6a3.234,3.234,0,0,0-3.23-3.23H21v-8.43a3,3,0,0,0-6,0V70.676a.7.7,0,0,0,.7.7h4.6a.7.7,0,0,0,.7-.7V66.63H65.367v4.046a.7.7,0,0,0,.7.7h4.6a.7.7,0,0,0,.7-.7V44.693A2.341,2.341,0,0,0,69.03,42.354ZM19.6,69.975H16.4V33.938a1.6,1.6,0,1,1,3.2,0ZM65.367,52.169v1.485H40.408a1.777,1.777,0,0,1-1.775-1.775V48.505H61.7A3.667,3.667,0,0,1,65.367,52.169ZM40.408,55.058h24.96v1.106H21V48.505H37.23v3.374A3.182,3.182,0,0,0,40.408,55.058ZM30.862,43.771A1.829,1.829,0,0,1,32.688,45.6v1.5H21v-3.33ZM21,65.226V57.568H65.368v7.659Zm48.964,4.748H66.772V44.693a.937.937,0,0,1,.936-.936H69.03a.937.937,0,0,1,.936.936ZM43.889,37.939A11.464,11.464,0,1,0,32.424,26.474,11.477,11.477,0,0,0,43.889,37.939Zm0-21.527A10.061,10.061,0,1,1,33.828,26.473,10.072,10.072,0,0,1,43.889,16.412Zm-3.11,15.137a2,2,0,0,0,2.83,0l7.28-7.28a2,2,0,0,0,0-2.83l-.039-.039a2,2,0,0,0-2.83,0l-5.826,5.826L39.758,24.79a2,2,0,0,0-2.83,0l-.039.039a2,2,0,0,0,0,2.83Zm-2.9-5.728.039-.039a.6.6,0,0,1,.844,0L41.7,28.714a.7.7,0,0,0,.993,0l6.322-6.322a.6.6,0,0,1,.846,0l.039.039a.6.6,0,0,1,0,.846l-7.28,7.28a.6.6,0,0,1-.846,0l-3.89-3.89a.592.592,0,0,1-.174-.422A.6.6,0,0,1,37.882,25.821Z" transform="translate(334.631 3673.272)" fill="#7d8c48"/></g></svg>