<svg xmlns="http://www.w3.org/2000/svg" width="88" height="88" viewBox="0 0 88 88"><g transform="translate(-744.348 -3710)"><circle cx="44" cy="44" r="44" transform="translate(744.348 3710)" fill="#dee4f0"/><g transform="translate(761.348 3690.51)"><path d="M92.947,161.446a10.577,10.577,0,1,0,10.577,10.577A10.589,10.589,0,0,0,92.947,161.446Zm0,19.572a8.995,8.995,0,1,1,8.995-8.995A9,9,0,0,1,92.947,181.018Z" transform="translate(-73.678 -108.192)" fill="#7d8c48"/><path d="M119,190.853a7.505,7.505,0,0,0-7.219,7.113,7.475,7.475,0,0,0,7.466,7.832A7.513,7.513,0,0,0,126,201.524a1.106,1.106,0,0,0-.406-1.411,2.112,2.112,0,0,1,0-3.579,1.106,1.106,0,0,0,.406-1.411,7.482,7.482,0,0,0-7-4.271Zm.051,1.582c.064,0,.128,0,.192,0a5.9,5.9,0,0,1,5.151,3.021,3.672,3.672,0,0,0-1.366,2.787,4.179,4.179,0,0,1-.518-.471,3.093,3.093,0,0,0-4.87,0c-.462.469-.73.714-1.308.714s-.846-.245-1.308-.714a3.749,3.749,0,0,0-1.451-1.026,5.923,5.923,0,0,1,5.479-4.308Zm.2,11.781a5.89,5.89,0,0,1-5.891-5.823,3.972,3.972,0,0,1,.54.487,3.093,3.093,0,0,0,4.87,0c.462-.469.73-.714,1.308-.714s.845.245,1.307.714a3.31,3.31,0,0,0,2.066,1.164,3.677,3.677,0,0,0,.945,1.152A5.926,5.926,0,0,1,119.246,204.216Z" transform="translate(-99.976 -134.493)" fill="#7d8c48"/><path d="M274.376,134.594a2.884,2.884,0,1,0-2.883,2.883A2.887,2.887,0,0,0,274.376,134.594Zm-4.184,0a1.3,1.3,0,1,1,1.3,1.3A1.3,1.3,0,0,1,270.192,134.594Z" transform="translate(-240.265 -81.594)" fill="#7d8c48"/><path d="M45.193,355.645h1.92a.791.791,0,1,0,0-1.583h-1.92a.791.791,0,1,0,0,1.583Z" transform="translate(-39.717 -280.483)" fill="#7d8c48"/><path d="M45.193,382.645h5.658a.791.791,0,1,0,0-1.583H45.193a.791.791,0,1,0,0,1.583Z" transform="translate(-39.717 -304.634)" fill="#7d8c48"/><path d="M52.392,69.723H52.01V68a2.06,2.06,0,0,0-2.058-2.058H38.332V42.97a2.483,2.483,0,0,0-2.48-2.48H2.48A2.483,2.483,0,0,0,0,42.97V51.4a.791.791,0,1,0,1.583,0V48.111H36.749V65.938H34.442A2.06,2.06,0,0,0,32.385,68v1.727H32a1.637,1.637,0,0,0-1.636,1.636v1.414A1.637,1.637,0,0,0,31.854,74.4v5.151H1.583V55.09A.791.791,0,1,0,0,55.09v28.4a2.483,2.483,0,0,0,2.48,2.48h48a2.06,2.06,0,0,0,2.058-2.058V74.4a1.637,1.637,0,0,0,1.487-1.628V71.358a1.637,1.637,0,0,0-1.636-1.636ZM1.583,42.97a.9.9,0,0,1,.9-.9h7.864v4.455H1.583Zm10.343,3.558V42.073H35.852a.9.9,0,0,1,.9.9v3.558ZM31.95,71.358A.053.053,0,0,1,32,71.306h9.238a.791.791,0,0,0,0-1.583H33.968V68a.475.475,0,0,1,.475-.475h15.51a.475.475,0,0,1,.475.475v1.727H44.935a.791.791,0,0,0,0,1.583h7.457a.053.053,0,0,1,.053.053v1.414a.053.053,0,0,1-.053.053H32a.053.053,0,0,1-.053-.053Zm1.487,13.031V82.117H41.7v2.272ZM41.7,74.408V76.68H33.437V74.408Zm-8.266,6.127V78.263H41.7v2.272Zm9.849-2.272h7.672v2.272H43.285Zm7.672-1.583H43.285V74.408h7.672ZM1.583,83.492V81.134H31.854v3.255H2.48A.9.9,0,0,1,1.583,83.492Zm48.9.9h-7.2V82.117h7.672v1.8A.475.475,0,0,1,50.483,84.389Z" fill="#7d8c48"/><path d="M241.576,69.1h-2.644a.791.791,0,1,0,0,1.583h2.644a.791.791,0,0,0,0-1.583Z" transform="translate(-213.011 -25.591)" fill="#7d8c48"/><path d="M296.636,69.1h-2.644a.791.791,0,1,0,0,1.583h2.644a.791.791,0,0,0,0-1.583Z" transform="translate(-262.261 -25.591)" fill="#7d8c48"/><path d="M131.456,69.1h-2.644a.791.791,0,0,0,0,1.583h2.644a.791.791,0,0,0,0-1.583Z" transform="translate(-114.511 -25.591)" fill="#7d8c48"/><path d="M186.516,69.1h-2.644a.791.791,0,1,0,0,1.583h2.644a.791.791,0,1,0,0-1.583Z" transform="translate(-163.761 -25.591)" fill="#7d8c48"/></g></g></svg>