<svg xmlns="http://www.w3.org/2000/svg" width="88" height="88" viewBox="0 0 88 88"><g transform="translate(-284.348 -5697)"><circle cx="44" cy="44" r="44" transform="translate(284.348 5697)" fill="#dee4f0"/><g transform="translate(299.876 5714)"><path d="M34.057,50.94a.882.882,0,0,1-.882-.882,5.3,5.3,0,0,0-5.293-5.293.882.882,0,1,1,0-1.764,7.066,7.066,0,0,1,7.057,7.057.882.882,0,0,1-.882.882Z" transform="translate(-3.181 -4.477)" fill="#7d8c48"/><path d="M27.411,44.764h0l-3.529,0a.882.882,0,1,1,0-1.764h0l3.529,0a.882.882,0,0,1,0,1.764Z" transform="translate(-2.71 -4.477)" fill="#7d8c48"/><path d="M34.882,57.94A.882.882,0,0,1,34,57.057V50.882a.882.882,0,0,1,1.764,0v6.175a.882.882,0,0,1-.882.882Z" transform="translate(-4.006 -5.302)" fill="#7d8c48"/><path d="M.883,50.938A.882.882,0,0,1,0,50.056,7.052,7.052,0,0,1,7.058,43a.882.882,0,1,1,0,1.764,5.289,5.289,0,0,0-5.293,5.293.882.882,0,0,1-.882.882Z" transform="translate(0 -4.477)" fill="#7d8c48"/><path d="M7.883,44.764a.882.882,0,0,1,0-1.764l3.529,0h0a.882.882,0,1,1,0,1.764l-3.529,0Z" transform="translate(-0.825 -4.477)" fill="#7d8c48"/><path d="M.882,57.938h0A.882.882,0,0,1,0,57.056V50.88A.882.882,0,0,1,.883,50h0a.882.882,0,0,1,.882.882v6.175a.882.882,0,0,1-.882.882Z" transform="translate(0 -5.302)" fill="#7d8c48"/><path d="M11.883,44.119A.882.882,0,0,1,11,43.237V38.417a.882.882,0,1,1,1.764,0v4.819a.882.882,0,0,1-.882.882Z" transform="translate(-1.296 -3.833)" fill="#7d8c48"/><path d="M23.882,44.117A.882.882,0,0,1,23,43.235V38.417a.882.882,0,1,1,1.764,0v4.818a.882.882,0,0,1-.882.882Z" transform="translate(-2.71 -3.833)" fill="#7d8c48"/><path d="M16.351,39.233A12.364,12.364,0,0,1,4,26.882a.882.882,0,1,1,1.764,0,10.586,10.586,0,1,0,21.172,0,.882.882,0,0,1,1.764,0A12.364,12.364,0,0,1,16.351,39.233Z" transform="translate(-0.471 -2.474)" fill="#7d8c48"/><path d="M4.882,26.7A.882.882,0,0,1,4,25.822v-7.94a.882.882,0,0,1,1.764,0v7.94A.882.882,0,0,1,4.882,26.7Z" transform="translate(-0.471 -1.414)" fill="#7d8c48"/><path d="M30.882,26.468A.882.882,0,0,1,30,25.586v-9.7a.882.882,0,1,1,1.764,0v9.7a.882.882,0,0,1-.882.882Z" transform="translate(-3.535 -1.178)" fill="#7d8c48"/><path d="M30.175,16.057a.882.882,0,0,1-.882-.882,4.416,4.416,0,0,0-4.411-4.411.882.882,0,1,1,0-1.764,6.182,6.182,0,0,1,6.175,6.175.882.882,0,0,1-.882.882Z" transform="translate(-2.828 -0.471)" fill="#7d8c48"/><path d="M24.882,10.293A.882.882,0,0,1,24,9.411V5.882a.882.882,0,1,1,1.764,0V9.411A.882.882,0,0,1,24.882,10.293Z" transform="translate(-2.828)" fill="#7d8c48"/><path d="M23.94,6.764H16.882a.882.882,0,0,1,0-1.764H23.94a.882.882,0,0,1,0,1.764Z" transform="translate(-1.885)" fill="#7d8c48"/><path d="M4.881,17.351A.882.882,0,0,1,4,16.468,11.482,11.482,0,0,1,15.468,5a.882.882,0,0,1,0,1.764,9.715,9.715,0,0,0-9.7,9.7A.882.882,0,0,1,4.881,17.351Z" transform="translate(-0.471)" fill="#7d8c48"/><path d="M30.529,23.411a.879.879,0,0,1-.624-.258l-2.647-2.647a.882.882,0,1,1,1.247-1.247l2.647,2.647a.882.882,0,0,1-.624,1.506Z" transform="translate(-3.181 -1.649)" fill="#7d8c48"/><path d="M16.7,22.529A25.242,25.242,0,0,1,7.529,20.69a.882.882,0,1,1,.706-1.617A23.888,23.888,0,0,0,16.7,20.764a23.774,23.774,0,0,0,8.469-1.69.882.882,0,1,1,.706,1.616A25.242,25.242,0,0,1,16.7,22.529Z" transform="translate(-0.825 -1.649)" fill="#7d8c48"/><path d="M4.881,23.411a.882.882,0,0,1-.624-1.506L6.9,19.258a.882.882,0,1,1,1.247,1.247L5.5,23.152a.879.879,0,0,1-.624.258Z" transform="translate(-0.471 -1.649)" fill="#7d8c48"/><path d="M14.528,46.528a.884.884,0,0,1-.489-.148l-2.646-1.766a.883.883,0,1,1,.98-1.468l2.646,1.766a.882.882,0,0,1-.491,1.616Z" transform="translate(-1.296 -4.477)" fill="#7d8c48"/><path d="M14.882,46.646a.882.882,0,0,1-.28-1.719l2.647-.886a.882.882,0,0,1,.56,1.673l-2.647.886A.882.882,0,0,1,14.882,46.646Z" transform="translate(-1.649 -4.594)" fill="#7d8c48"/><path d="M20.883,46.528a.882.882,0,0,1-.49-1.616l2.647-1.766a.882.882,0,1,1,.979,1.468L21.372,46.38A.88.88,0,0,1,20.883,46.528Z" transform="translate(-2.356 -4.477)" fill="#7d8c48"/><path d="M20.529,46.646a.882.882,0,0,1-.28-.046L17.6,45.715a.882.882,0,1,1,.56-1.673l2.647.886a.882.882,0,0,1-.28,1.719Z" transform="translate(-2.003 -4.594)" fill="#7d8c48"/><path d="M17.9,50.764A.882.882,0,1,1,17.892,49H17.9a.882.882,0,0,1,0,1.764Z" transform="translate(-2.005 -5.184)" fill="#7d8c48"/><path d="M17.9,55.764A.882.882,0,1,1,17.892,54H17.9a.882.882,0,0,1,0,1.764Z" transform="translate(-2.005 -5.773)" fill="#7d8c48"/><path d="M39.529,29.7a.883.883,0,0,1-.882-.882V27.055H36.882A.882.882,0,0,1,36,26.172V5.882A.882.882,0,0,1,36.882,5H59.819a.882.882,0,0,1,.882.882v20.29a.882.882,0,0,1-.882.882H44.183l-4.2,2.521a.879.879,0,0,1-.454.126ZM37.764,25.29h1.764a.882.882,0,0,1,.882.882V27.26l3.074-1.844a.881.881,0,0,1,.454-.126h15V6.764H37.764Z" transform="translate(-4.241)" fill="#7d8c48"/><path d="M45.7,22.356a.883.883,0,0,1-.869-1.032l.581-3.371-2.449-2.39a.882.882,0,0,1,.489-1.5l3.387-.491,1.514-3.07a.918.918,0,0,1,1.582,0l1.514,3.07,3.387.491a.882.882,0,0,1,.489,1.5l-2.45,2.39.575,3.372a.882.882,0,0,1-1.28.93l-3.026-1.592-3.032,1.592a.883.883,0,0,1-.41.1Zm3.443-3.572a.884.884,0,0,1,.411.1l1.856.976-.353-2.068a.881.881,0,0,1,.253-.78l1.5-1.466-2.077-.3a.881.881,0,0,1-.664-.483l-.928-1.881-.928,1.881a.881.881,0,0,1-.664.483l-2.077.3,1.5,1.466a.884.884,0,0,1,.253.781l-.356,2.066,1.859-.976A.88.88,0,0,1,49.139,18.784Z" transform="translate(-5.03 -0.594)" fill="#7d8c48"/><path d="M49.468,55.937a11.468,11.468,0,1,1,8.109-3.359A11.468,11.468,0,0,1,49.468,55.937Zm0-21.172A9.7,9.7,0,1,0,56.33,51.33h0a9.7,9.7,0,0,0-6.862-16.566Z" transform="translate(-4.477 -3.299)" fill="#7d8c48"/><path d="M46.882,51.351A.882.882,0,0,1,46,50.468V39.882a.882.882,0,0,1,1.764,0V50.468a.882.882,0,0,1-.882.882Z" transform="translate(-5.42 -4.006)" fill="#7d8c48"/><path d="M54.882,51.351A.882.882,0,0,1,54,50.468V39.882a.882.882,0,0,1,1.764,0V50.468a.882.882,0,0,1-.882.882Z" transform="translate(-6.362 -4.006)" fill="#7d8c48"/><path d="M53.94,46.764H46.882a.882.882,0,1,1,0-1.764H53.94a.882.882,0,1,1,0,1.764Z" transform="translate(-5.42 -4.713)" fill="#7d8c48"/></g></g></svg>