<svg xmlns="http://www.w3.org/2000/svg" width="88" height="88" viewBox="0 0 88 88"><g transform="translate(-917.348 -5697)"><circle cx="44" cy="44" r="44" transform="translate(917.348 5697)" fill="#dee4f0"/><g transform="translate(901.313 5712.665)"><g transform="translate(38.502 10.02)"><path d="M69.7,101.818a.791.791,0,0,0-1.119,0,9.071,9.071,0,0,1-6.456,2.674H58.958a2.9,2.9,0,0,0-2.773-2.109H50.877a2.9,2.9,0,0,0-2.772,2.109h-7.23a.791.791,0,0,1,0-1.582h4.746a.791.791,0,0,0,.791-.791V95.791A.791.791,0,0,0,45.621,95H42.457a.791.791,0,0,0-.791.791v5.537h-.791a2.373,2.373,0,1,0,0,4.746h7.119v6.3a7.11,7.11,0,0,0-1.582,4.473v5.309a.791.791,0,0,0,.791.791h2.373v13.616l-2.623.874a.791.791,0,1,0,.5,1.5l3.164-1.055a.791.791,0,0,0,.541-.75V122.95H55.9v14.186a.791.791,0,0,0,.541.75l3.164,1.055a.791.791,0,0,0,.5-1.5l-2.623-.874V122.95H59.86a.791.791,0,0,0,.791-.791V116.85a7.11,7.11,0,0,0-1.582-4.473v-6.3h3.06a10.642,10.642,0,0,0,7.575-3.138A.791.791,0,0,0,69.7,101.818ZM43.248,96.582H44.83v4.746H43.248Zm11.576,7.383-1.292,2.326-1.292-2.326Zm-5.248,1.318a1.32,1.32,0,0,1,.893-1.247L52.84,108.3a.791.791,0,0,0,1.383,0l2.371-4.268a1.32,1.32,0,0,1,.893,1.247v6.592H54.322v-.791a.791.791,0,1,0-1.582,0v.791H49.576Zm9.493,11.566v4.518H47.994V116.85h0a5.527,5.527,0,0,1,1.164-3.393H57.9A5.528,5.528,0,0,1,59.069,116.85Z" transform="translate(-38.502 -95)" fill="#7d8c48"/></g><g transform="translate(47.994)"><path d="M136.394,5.274a3.164,3.164,0,1,0-4.711,0,5.537,5.537,0,1,0,4.711,0Zm-2.356-3.692a1.582,1.582,0,1,1-1.582,1.582A1.584,1.584,0,0,1,134.038,1.582Zm0,4.746a3.961,3.961,0,0,1,3.866,3.12,8.6,8.6,0,0,1-5.516-2.758A3.932,3.932,0,0,1,134.038,6.328Zm0,7.91a3.953,3.953,0,0,1-2.932-6.607,10.174,10.174,0,0,0,6.814,3.407A3.961,3.961,0,0,1,134.038,14.239Z" transform="translate(-128.501)" fill="#7d8c48"/></g><g transform="translate(60.651 23.731)"><path d="M271.44,247.359h-.791v-18.4a.791.791,0,0,0-.791-.791h-2.373v-.791a.791.791,0,1,0-1.582,0v.791H254.828V227.9a2.9,2.9,0,0,0-2.9-2.9h-2.637a.791.791,0,0,0,0,1.582h2.637a1.32,1.32,0,0,1,1.318,1.318v19.46h-.791a.791.791,0,1,0,0,1.582H271.44a.791.791,0,1,0,0-1.582Zm-2.373-3.27h-2.373a.791.791,0,1,0,0,1.582h2.373v1.688H254.828v-1.688h8.7a.791.791,0,0,0,0-1.582h-8.7V229.745h14.239Z" transform="translate(-248.5 -224.999)" fill="#7d8c48"/></g><g transform="translate(65.397 49.255)"><g transform="translate(0)"><path d="M295.873,467a2.373,2.373,0,1,0,2.373,2.373A2.376,2.376,0,0,0,295.873,467Zm0,3.164a.791.791,0,1,1,.791-.791A.792.792,0,0,1,295.873,470.162Z" transform="translate(-293.5 -466.998)" fill="#7d8c48"/></g></g><g transform="translate(78.054 49.255)"><path d="M415.872,467a2.373,2.373,0,1,0,2.373,2.373A2.376,2.376,0,0,0,415.872,467Zm0,3.164a.791.791,0,1,1,.791-.791A.792.792,0,0,1,415.872,470.162Z" transform="translate(-413.499 -466.998)" fill="#7d8c48"/></g><g transform="translate(68.561 30.112)"><path d="M329.037,285.5a5.537,5.537,0,1,0,5.537,5.537A5.543,5.543,0,0,0,329.037,285.5Zm0,9.492a3.955,3.955,0,1,1,3.955-3.955A3.96,3.96,0,0,1,329.037,294.991Z" transform="translate(-323.5 -285.499)" fill="#7d8c48"/></g><g transform="translate(71.725 33.276)"><g transform="translate(0)"><path d="M355.873,315.5a2.373,2.373,0,1,0,2.373,2.373A2.376,2.376,0,0,0,355.873,315.5Zm0,3.164a.791.791,0,1,1,.791-.791A.792.792,0,0,1,355.873,318.663Z" transform="translate(-353.5 -315.499)" fill="#7d8c48"/></g></g></g></g></svg>