<svg xmlns="http://www.w3.org/2000/svg" width="88" height="88" viewBox="0 0 88 88"><g transform="translate(-1241.348 -5697)"><circle cx="44" cy="44" r="44" transform="translate(1241.348 5697)" fill="#dee4f0"/><g transform="translate(1256.348 5712)"><path d="M4.7,59.5H38V57.7H29.9V50.5h4.5V48.7h-18V46.9h18V45.1h-18a1.8,1.8,0,0,0-1.8,1.8v.9H9.2V46a3.6,3.6,0,0,0-2.7-3.472V39.7a.9.9,0,0,1,.9-.9h27V37H7.4a2.7,2.7,0,0,0-2.7,2.7v2.828A3.6,3.6,0,0,0,2,46V56.8a2.7,2.7,0,0,0,2.7,2.7Zm23.4-9v7.2H18.2V50.5Zm-13.25-.9a1.794,1.794,0,0,0,1.55.9v7.2H9.2V49.6ZM3.8,46a1.8,1.8,0,0,1,3.6,0V57.7H4.7a.9.9,0,0,1-.9-.9Z" transform="translate(0 -3.5)" fill="#7d8c48"/><path d="M29.7,2v8.1h-9A2.7,2.7,0,0,0,18,12.8v1.8a2.7,2.7,0,0,0,2.7,2.7h.344L23,21.208A2.686,2.686,0,0,0,25.412,22.7H35.788A2.686,2.686,0,0,0,38.2,21.208L40.156,17.3H40.5a2.7,2.7,0,0,0,2.7-2.7V12.8a2.7,2.7,0,0,0-2.7-2.7h-9V2Zm4.5,13.5V11.9h3.6v3.6Zm-10.8,0V11.9H27v3.6Zm10.244,1.8-1.8,3.6H29.356l-1.8-3.6ZM32.4,15.5H28.8V11.9h3.6Zm-12.6-.9V12.8a.9.9,0,0,1,.9-.9h.9v3.6h-.9A.9.9,0,0,1,19.8,14.6Zm4.808,5.8-1.551-3.1h2.487l1.8,3.6H25.412A.9.9,0,0,1,24.608,20.4Zm11.985,0a.9.9,0,0,1-.8.5H33.856l1.8-3.6h2.487ZM41.4,12.8v1.8a.9.9,0,0,1-.9.9h-.9V11.9h.9a.9.9,0,0,1,.9.9Z" transform="translate(-1.6)" fill="#7d8c48"/><path d="M31,31h1.8v2.7H31Z" transform="translate(-2.9 -2.9)" fill="#7d8c48"/><path d="M0,0H2.7V1.8H0Z" transform="translate(14.996 24.627) rotate(-45)" fill="#7d8c48"/><path d="M11,12h2.7v1.8H11Z" transform="translate(-0.9 -1)" fill="#7d8c48"/><path d="M50,12h2.7v1.8H50Z" transform="translate(-4.8 -1)" fill="#7d8c48"/><path d="M0,0H1.8V2.7H0Z" transform="translate(39.813 23.994) rotate(-45)" fill="#7d8c48"/><ellipse cx="0.5" cy="1" rx="0.5" ry="1" transform="translate(25 50)" fill="#7d8c48"/><circle cx="1" cy="1" r="1" transform="translate(32 50)" fill="#7d8c48"/><path d="M57.1,37.4H54.4V34.7A2.7,2.7,0,0,0,51.7,32H48.1a2.7,2.7,0,0,0-2.7,2.7v2.7H42.7A2.7,2.7,0,0,0,40,40.1V52.7a2.7,2.7,0,0,0,2.7,2.7h1.066a2.668,2.668,0,0,0-.166.9,2.7,2.7,0,1,0,5.4,0,2.668,2.668,0,0,0-.166-.9h2.132a2.668,2.668,0,0,0-.166.9,2.7,2.7,0,1,0,5.4,0,2.668,2.668,0,0,0-.166-.9H57.1a2.7,2.7,0,0,0,2.7-2.7V40.1a2.7,2.7,0,0,0-2.7-2.7Zm-9.9-2.7a.9.9,0,0,1,.9-.9h3.6a.9.9,0,0,1,.9.9v2.7H47.2Zm0,21.6a.9.9,0,1,1-.9-.9A.9.9,0,0,1,47.2,56.3Zm7.2,0a.9.9,0,1,1-.9-.9A.9.9,0,0,1,54.4,56.3ZM58,52.7a.9.9,0,0,1-.9.9H42.7a.9.9,0,0,1-.9-.9V40.1a.9.9,0,0,1,.9-.9h1.8V50h1.8V39.2H49V50h1.8V39.2h2.7V50h1.8V39.2h1.8a.9.9,0,0,1,.9.9Z" transform="translate(-3.8 -3)" fill="#7d8c48"/></g></g></svg>