<svg xmlns="http://www.w3.org/2000/svg" width="124" height="124" viewBox="0 0 124 124"><g transform="translate(-269 -7052.553)"><circle cx="62" cy="62" r="62" transform="translate(269 7052.553)" fill="#b8dcf3"/><g transform="translate(253.65 7072.593)"><g transform="translate(55.03 27.024)"><g transform="translate(1.853 32.514)"><path d="M126.86,342.972H110.812a.842.842,0,1,1,0-1.684H126.86a.842.842,0,1,1,0,1.684Zm-20.722-.024a.775.775,0,0,1-.138-.012,2.687,2.687,0,0,1-2.26-2.661v-9.312a.842.842,0,1,1,1.684,0v9.312a1.025,1.025,0,0,0,.849,1,.842.842,0,0,1-.135,1.672Zm31.982-5.086a.842.842,0,0,1-.842-.842v-6.058a.842.842,0,0,1,1.684,0v6.058A.842.842,0,0,1,138.12,337.862Z" transform="translate(-103.74 -330.12)" fill="#20849e"/></g><g transform="translate(0 28.14)"><path d="M128.972,310.21H95.436a2.7,2.7,0,0,1-2.7-2.7v-.667a2.7,2.7,0,0,1,2.7-2.7h33.536a2.7,2.7,0,0,1,2.7,2.7v.667A2.7,2.7,0,0,1,128.972,310.21Zm-33.536-4.379a1.013,1.013,0,0,0-1.012,1.012v.667a1.013,1.013,0,0,0,1.012,1.012h33.536a1.013,1.013,0,0,0,1.012-1.012v-.667a1.013,1.013,0,0,0-1.012-1.012Z" transform="translate(-92.74 -304.15)" fill="#20849e"/></g><g transform="translate(3.486 16.691)"><path d="M117.844,249.3a.842.842,0,0,1-.842-.842V237.012a.842.842,0,1,1,1.684,0v11.445A.841.841,0,0,1,117.844,249.3Zm-3.562,0a.842.842,0,0,1-.842-.842V237.012a.842.842,0,1,1,1.684,0v11.445A.841.841,0,0,1,114.282,249.3Z" transform="translate(-113.44 -236.17)" fill="#20849e"/><g transform="translate(26.71)"><path d="M276.442,249.3a.842.842,0,0,1-.842-.842V237.012a.842.842,0,1,1,1.684,0v11.445A.84.84,0,0,1,276.442,249.3Zm-3.56,0a.842.842,0,0,1-.842-.842V237.012a.842.842,0,1,1,1.684,0v11.445A.841.841,0,0,1,272.882,249.3Z" transform="translate(-272.04 -236.17)" fill="#20849e"/></g></g><g transform="translate(0.445 9.349)"><path d="M129.534,201.6H99.264a3.888,3.888,0,0,1-3.884-3.884v-1.261a3.888,3.888,0,0,1,3.884-3.884h30.272a3.888,3.888,0,0,1,3.884,3.884v1.261A3.89,3.89,0,0,1,129.534,201.6Zm-30.271-7.346a2.2,2.2,0,0,0-2.2,2.2v1.261a2.2,2.2,0,0,0,2.2,2.2h30.272a2.2,2.2,0,0,0,2.2-2.2v-1.261a2.2,2.2,0,0,0-2.2-2.2Z" transform="translate(-95.38 -192.57)" fill="#20849e"/></g><g transform="translate(9.347 3.343)"><path d="M167.631,164.6a.842.842,0,0,1-.842-.842v-2.109a3.056,3.056,0,0,0-3.053-3.053H152.977a3.056,3.056,0,0,0-3.053,3.053v2.109a.842.842,0,1,1-1.684,0v-2.109a4.743,4.743,0,0,1,4.737-4.737h10.758a4.743,4.743,0,0,1,4.737,4.737v2.109A.842.842,0,0,1,167.631,164.6Z" transform="translate(-148.24 -156.91)" fill="#20849e"/></g><g transform="translate(4.451)"><path d="M148.355,148.091H120.013a.841.841,0,0,1-.827-1l1.78-9.349a.841.841,0,0,1,.827-.684h24.78a.843.843,0,0,1,.827.684l1.78,9.349a.841.841,0,0,1-.825,1Zm-27.325-1.684h26.308l-1.46-7.664H122.49Z" transform="translate(-119.171 -137.06)" fill="#20849e"/></g><g transform="translate(24.13 36.893)"><path d="M243.651,371.382a7.631,7.631,0,1,1,7.631-7.631A7.64,7.64,0,0,1,243.651,371.382Zm0-13.577a5.947,5.947,0,1,0,5.947,5.947A5.953,5.953,0,0,0,243.651,357.8Z" transform="translate(-236.02 -356.12)" fill="#20849e"/></g><g transform="translate(27.926 40.689)"><path d="M262.395,386.33a3.835,3.835,0,1,1,3.835-3.835A3.839,3.839,0,0,1,262.395,386.33Zm0-5.985a2.151,2.151,0,1,0,2.151,2.151A2.153,2.153,0,0,0,262.395,380.344Z" transform="translate(-258.56 -378.66)" fill="#20849e"/></g><g transform="translate(1.928 42.864)"><path d="M108.835,400.87a4.645,4.645,0,1,1,4.645-4.645A4.65,4.65,0,0,1,108.835,400.87Zm0-7.6a2.961,2.961,0,1,0,2.961,2.961A2.964,2.964,0,0,0,108.835,393.266Z" transform="translate(-104.19 -391.58)" fill="#20849e"/><g transform="translate(3.035 3.083)"><circle cx="1.371" cy="1.371" r="1.371" transform="matrix(0.986, -0.167, 0.167, 0.986, 0, 0.458)" fill="#20849e"/></g></g><g transform="translate(37.245 29.993)"><path d="M320.441,316.834h-5.709a.842.842,0,1,1,0-1.684h5.709a.842.842,0,0,1,0,1.684Z" transform="translate(-313.89 -315.15)" fill="#20849e"/></g></g><g transform="translate(48.528 77.494)"><path d="M110.929,438.424H54.972a.842.842,0,0,1,0-1.684h55.955a.842.842,0,0,1,0,1.684Z" transform="translate(-54.13 -436.74)" fill="#20849e"/></g><g transform="translate(47.393 4.74)"><g transform="translate(20.844 0)"><path d="M175.164,22.152a.833.833,0,0,1-.5-.162.844.844,0,0,1-.339-.805l.783-5.233-3.708-3.772a.843.843,0,0,1,.461-1.421l5.217-.872,2.442-4.694a.844.844,0,0,1,1.5,0l2.442,4.694,5.217.872a.843.843,0,0,1,.461,1.421l-3.708,3.772.783,5.233a.843.843,0,0,1-1.209.877L180.274,19.7l-4.734,2.361a.849.849,0,0,1-.376.089Zm5.11-4.234a.843.843,0,0,1,.376.089l3.663,1.827-.606-4.047a.841.841,0,0,1,.232-.714l2.868-2.919-4.037-.675a.841.841,0,0,1-.608-.441l-1.89-3.631-1.89,3.631a.844.844,0,0,1-.608.441l-4.037.675,2.868,2.919a.843.843,0,0,1,.232.714l-.606,4.047,3.663-1.827A.868.868,0,0,1,180.274,17.918Z" transform="translate(-171.163 -4.74)" fill="#20849e"/></g><g transform="translate(44.427 2.605)"><path d="M323.2,35.017a.827.827,0,0,1-.376-.089l-3.889-1.938-3.889,1.938a.843.843,0,0,1-1.209-.877l.643-4.3-3.045-3.1a.843.843,0,0,1,.461-1.421l4.286-.716,2.006-3.855a.844.844,0,0,1,1.5,0l2.006,3.855,4.284.716a.843.843,0,0,1,.461,1.421l-3.045,3.1.643,4.3a.839.839,0,0,1-.339.805A.853.853,0,0,1,323.2,35.017Zm-9.428-8.389,2.206,2.243a.843.843,0,0,1,.232.714l-.465,3.112,2.816-1.4a.842.842,0,0,1,.751,0l2.816,1.4-.465-3.112a.841.841,0,0,1,.232-.714l2.206-2.243L321,26.11a.841.841,0,0,1-.608-.441l-1.453-2.791-1.452,2.791a.841.841,0,0,1-.608.441Z" transform="translate(-311.193 -20.21)" fill="#20849e"/></g><g transform="translate(0 2.605)"><path d="M59.4,35.017a.826.826,0,0,1-.376-.089l-3.889-1.938-3.887,1.938a.843.843,0,0,1-1.209-.877l.643-4.3-3.045-3.1a.843.843,0,0,1,.461-1.421l4.284-.716,2.006-3.855a.844.844,0,0,1,1.5,0l2.006,3.855,4.284.716a.843.843,0,0,1,.461,1.421l-3.047,3.1.643,4.3a.844.844,0,0,1-.834.967Zm-9.428-8.389,2.206,2.243a.843.843,0,0,1,.232.714L51.943,32.7l2.816-1.4a.842.842,0,0,1,.751,0l2.816,1.4-.465-3.112a.841.841,0,0,1,.232-.714L60.3,26.628l-3.1-.519a.841.841,0,0,1-.608-.441l-1.452-2.791-1.452,2.791a.844.844,0,0,1-.608.441Z" transform="translate(-47.393 -20.21)" fill="#20849e"/></g></g></g></g></svg>