<svg xmlns="http://www.w3.org/2000/svg" width="124" height="124" viewBox="0 0 124 124"><g transform="translate(-581 -7014.553)"><circle cx="62" cy="62" r="62" transform="translate(581 7014.553)" fill="#b8dcf3"/><g transform="translate(600.82 7014.861)"><g transform="translate(47.156 48.775)"><line y2="7.223" transform="translate(23.583 10.053)" fill="none" stroke="#20849e" stroke-linecap="round" stroke-linejoin="round" stroke-miterlimit="10" stroke-width="2"/><path d="M291.659,165.431a1.987,1.987,0,0,1,1.987-1.987h19.609a1.987,1.987,0,0,1,1.987,1.987v3.5" transform="translate(-291.659 -163.444)" fill="none" stroke="#20849e" stroke-linecap="round" stroke-linejoin="round" stroke-miterlimit="10" stroke-width="2"/><path d="M353.869,170.888l-2.627-1.223-2.627,1.223a.993.993,0,0,1-1.413-.9v-6.544h8.08v6.544A.993.993,0,0,1,353.869,170.888Z" transform="translate(-339.451 -163.444)" fill="none" stroke="#20849e" stroke-linecap="round" stroke-linejoin="round" stroke-miterlimit="10" stroke-width="2"/></g><path d="M136.54,36.47V35.057a4.88,4.88,0,0,1,4.88-4.88h0a4.88,4.88,0,0,1,4.88,4.88V36.47" transform="translate(-111.032 0)" fill="none" stroke="#20849e" stroke-linecap="round" stroke-linejoin="round" stroke-miterlimit="10" stroke-width="2"/><path d="M51.359,88.312v-8.6A3.438,3.438,0,0,1,54.8,76.276H81.456a3.438,3.438,0,0,1,3.438,3.438v26" transform="translate(-37.738 -39.666)" fill="none" stroke="#20849e" stroke-linecap="round" stroke-linejoin="round" stroke-miterlimit="10" stroke-width="2"/><line y1="12.842" transform="translate(13.621 53.208)" fill="none" stroke="#20849e" stroke-linecap="round" stroke-linejoin="round" stroke-miterlimit="10" stroke-width="2"/><line y2="19.399" transform="translate(38.105 46.479)" fill="none" stroke="#20849e" stroke-linecap="round" stroke-linejoin="round" stroke-miterlimit="10" stroke-width="2"/><line y2="19.572" transform="translate(22.672 46.479)" fill="none" stroke="#20849e" stroke-linecap="round" stroke-linejoin="round" stroke-miterlimit="10" stroke-width="2"/><line y2="19.399" transform="translate(30.389 46.479)" fill="none" stroke="#20849e" stroke-linecap="round" stroke-linejoin="round" stroke-miterlimit="10" stroke-width="2"/><path d="M242.909,76.275v4.239a2.341,2.341,0,0,0,2.341,2.341h4.462" transform="translate(-202.556 -39.665)" fill="none" stroke="#20849e" stroke-linecap="round" stroke-linejoin="round" stroke-miterlimit="10" stroke-width="2"/><path d="M58.162,76.275v4.239a2.341,2.341,0,0,1-2.341,2.341H51.359" transform="translate(-37.738 -39.665)" fill="none" stroke="#20849e" stroke-linecap="round" stroke-linejoin="round" stroke-miterlimit="10" stroke-width="2"/><path d="M33.658,317.441H14.523A7.023,7.023,0,0,1,7.5,310.418v-17.3a2.341,2.341,0,0,1,2.341-2.341H74.519a2.341,2.341,0,0,1,2.341,2.341v17.3a7.023,7.023,0,0,1-7.023,7.023H38.22" transform="translate(0 -224.234)" fill="none" stroke="#20849e" stroke-linecap="round" stroke-linejoin="round" stroke-miterlimit="10" stroke-width="2"/><g transform="translate(38.443 72.634)"><path d="M229.22,338.141a3.779,3.779,0,0,1,.036-.521,3.738,3.738,0,1,1,3.7,4.259v3.908" transform="translate(-229.22 -334.403)" fill="none" stroke="#20849e" stroke-linecap="round" stroke-linejoin="round" stroke-miterlimit="10" stroke-width="2"/></g><line y1="26.661" transform="translate(28.275 66.546)" fill="none" stroke="#20849e" stroke-linecap="round" stroke-linejoin="round" stroke-miterlimit="10" stroke-width="2"/><line y2="26.661" transform="translate(56.085 66.546)" fill="none" stroke="#20849e" stroke-linecap="round" stroke-linejoin="round" stroke-miterlimit="10" stroke-width="2"/><line transform="translate(42.18 88.231)" fill="none" stroke="#20849e" stroke-linecap="round" stroke-linejoin="round" stroke-miterlimit="10" stroke-width="2"/></g></g></svg>