<svg xmlns="http://www.w3.org/2000/svg" xmlns:xlink="http://www.w3.org/1999/xlink" width="102" height="102" viewBox="0 0 102 102"><defs><filter id="a" x="0" y="0" width="102" height="102" filterUnits="userSpaceOnUse"><feOffset dy="3" input="SourceAlpha"/><feGaussianBlur stdDeviation="3" result="b"/><feFlood flood-opacity="0.161"/><feComposite operator="in" in2="b"/><feComposite in="SourceGraphic"/></filter></defs><g transform="translate(-177.348 -7922)"><g transform="translate(186.348 7928)"><g transform="matrix(1, 0, 0, 1, -9, -6)" filter="url(#a)"><circle cx="42" cy="42" r="42" transform="translate(9 6)" fill="#fff"/></g></g><g transform="translate(206.348 7948)"><path d="M41.508,38.516H37.855V36.523h1.66a.664.664,0,0,0,.627-.883L37.818,29a.664.664,0,0,0-1.254,0l-1.7,4.849L33.17,29a.664.664,0,0,0-1.254,0l-1.7,4.848L28.521,29a.664.664,0,0,0-1.254,0l-2.324,6.641a.664.664,0,0,0,.627.882h1.66v1.992H22.914V15.273h3a5.977,5.977,0,1,0,0-6.641h-3V3.984h.664a.664.664,0,0,0,.664-.664V1.992A1.992,1.992,0,0,0,22.25,0H4.984A1.992,1.992,0,0,0,2.992,1.992V3.32a.664.664,0,0,0,.664.664H4.32V38.516H1.664A.664.664,0,0,0,1,39.18v2.656a.664.664,0,0,0,.664.664H41.508a.664.664,0,0,0,.664-.664V39.18A.664.664,0,0,0,41.508,38.516ZM30.883,7.3a4.648,4.648,0,1,1-4.648,4.648A4.648,4.648,0,0,1,30.883,7.3Zm6.309,23.924L38.579,35.2H35.8Zm-.664,5.295v1.992h-3.32V36.523Zm-3.984-5.295L33.931,35.2H31.155Zm-.664,5.295v1.992h-3.32V36.523ZM26.507,35.2l1.388-3.966L29.282,35.2ZM25.255,9.961a5.866,5.866,0,0,0,0,3.984H22.914V9.961ZM4.32,1.992a.664.664,0,0,1,.664-.664H22.25a.664.664,0,0,1,.664.664v.664H18.266a1.992,1.992,0,0,0-1.992,1.992V5.977a.664.664,0,0,1-1.328,0V4.648a1.992,1.992,0,0,0-1.992-1.992H12.51a1.992,1.992,0,0,0-1.992,1.992.664.664,0,0,1-1.328,0A1.992,1.992,0,0,0,7.2,2.656H4.32ZM17.6,31.875H9.633a.664.664,0,0,0-.664.664v5.977H5.648V3.984H7.2a.664.664,0,0,1,.664.664,1.97,1.97,0,0,0,.123.664H7.641a.664.664,0,0,0-.664.664V9.961a.664.664,0,0,0,.664.664H19.594a.664.664,0,0,0,.664-.664V5.977a.664.664,0,0,0-.664-.664H17.6V4.648a.664.664,0,0,1,.664-.664h3.32V38.516h-3.32V32.539A.664.664,0,0,0,17.6,31.875ZM16.938,33.2v5.313H14.281V33.2Zm-3.984,0v5.313H10.3V33.2ZM8.3,9.3V6.641h2.656V9.3Zm5.313-3.984H11.724a1.97,1.97,0,0,0,.122-.664.664.664,0,0,1,.664-.664h.443a.664.664,0,0,1,.664.664Zm.122,1.328a1.992,1.992,0,0,0,1.206,1.206V9.3H12.289V6.641ZM16.273,9.3V7.847a1.992,1.992,0,0,0,1.206-1.206h1.45V9.3Zm24.57,31.875H2.328V39.844H40.844Z" fill="#7d8c48"/><path d="M23.281,42.648V38.664A.664.664,0,0,0,22.617,38H10.664a.664.664,0,0,0-.664.664v3.984a.664.664,0,0,0,.664.664H22.617A.664.664,0,0,0,23.281,42.648Zm-9.3-.664H11.328V39.328h2.656Zm3.984,0H15.313V39.328h2.656Zm3.984,0H19.3V39.328h2.656Z" transform="translate(-3.023 -12.766)" fill="#7d8c48"/><path d="M10.664,33.313H22.617a.664.664,0,0,0,.664-.664V28.664A.664.664,0,0,0,22.617,28H10.664a.664.664,0,0,0-.664.664v3.984A.664.664,0,0,0,10.664,33.313ZM19.3,29.328h2.656v2.656H19.3Zm-3.984,0h2.656v2.656H15.313Zm-3.984,0h2.656v2.656H11.328Z" transform="translate(-3.023 -9.406)" fill="#7d8c48"/><path d="M10.664,23.313H22.617a.664.664,0,0,0,.664-.664V18.664A.664.664,0,0,0,22.617,18H10.664a.664.664,0,0,0-.664.664v3.984A.664.664,0,0,0,10.664,23.313ZM19.3,19.328h2.656v2.656H19.3Zm-3.984,0h2.656v2.656H15.313Zm-3.984,0h2.656v2.656H11.328Z" transform="translate(-3.023 -6.047)" fill="#7d8c48"/><path d="M48,35.992A1.992,1.992,0,1,0,49.992,34,1.992,1.992,0,0,0,48,35.992Zm2.656,0a.664.664,0,1,1-.664-.664A.664.664,0,0,1,50.656,35.992Z" transform="translate(-15.789 -11.422)" fill="#7d8c48"/><path d="M55,25.992A1.992,1.992,0,1,0,56.992,24,1.992,1.992,0,0,0,55,25.992Zm2.656,0a.664.664,0,1,1-.664-.664A.664.664,0,0,1,57.656,25.992Z" transform="translate(-18.141 -8.063)" fill="#7d8c48"/><path d="M40.992,4.984A1.992,1.992,0,1,0,39,2.992a1.992,1.992,0,0,0,1.992,1.992Zm0-2.656a.664.664,0,1,1-.664.664A.664.664,0,0,1,40.992,2.328Z" transform="translate(-12.766 -0.336)" fill="#7d8c48"/><path d="M43.664,19.641a.664.664,0,0,0,.664-.664V16.984h1.328v1.992a.664.664,0,0,0,1.328,0V13.664a.664.664,0,0,0-1.328,0v1.992H44.328V13.664a.664.664,0,0,0-1.328,0v5.313A.664.664,0,0,0,43.664,19.641Z" transform="translate(-14.109 -4.367)" fill="#7d8c48"/><path d="M55.992,3.984A1.992,1.992,0,1,0,54,1.992,1.992,1.992,0,0,0,55.992,3.984Zm0-2.656a.664.664,0,1,1-.664.664A.664.664,0,0,1,55.992,1.328Z" transform="translate(-17.805)" fill="#7d8c48"/><path d="M37,32.992A1.992,1.992,0,1,0,38.992,31,1.992,1.992,0,0,0,37,32.992Zm2.656,0a.664.664,0,1,1-.664-.664A.664.664,0,0,1,39.656,32.992Z" transform="translate(-12.094 -10.414)" fill="#7d8c48"/></g></g></svg>