<svg xmlns="http://www.w3.org/2000/svg" xmlns:xlink="http://www.w3.org/1999/xlink" width="102" height="102" viewBox="0 0 102 102"><defs><filter id="a" x="0" y="0" width="102" height="102" filterUnits="userSpaceOnUse"><feOffset dy="3" input="SourceAlpha"/><feGaussianBlur stdDeviation="3" result="b"/><feFlood flood-opacity="0.161"/><feComposite operator="in" in2="b"/><feComposite in="SourceGraphic"/></filter></defs><g transform="translate(-488 -7921.512)"><g transform="translate(497 7927.512)"><g transform="matrix(1, 0, 0, 1, -9, -6)" filter="url(#a)"><circle cx="42" cy="42" r="42" transform="translate(9 6)" fill="#fff"/></g></g><g transform="translate(494.964 7925.75)"><path d="M64.333,63.5a.738.738,0,1,0,0-1.476h-3.69V32.869h2.515a1.845,1.845,0,0,0,1-3.4L45.5,17.434a2.679,2.679,0,0,0-2.923,0l-6.658,4.295V19.952a1.478,1.478,0,0,0-1.476-1.476H31.119a1.478,1.478,0,0,0-1.476,1.476v5.824l-5.73,3.7a1.845,1.845,0,0,0,1,3.4h2.515v1.107a.738.738,0,0,0,1.476,0V32.131a.738.738,0,0,0-.738-.738H24.913a.369.369,0,0,1-.2-.679L30.781,26.8a.739.739,0,0,0,.338-.62V19.952H34.44v3.131a.738.738,0,0,0,1.139.62l7.8-5.03a1.223,1.223,0,0,1,1.322,0l18.662,12.04a.369.369,0,0,1-.2.679H59.9a.738.738,0,0,0-.738.738V62.023H37.024V54.643a2.956,2.956,0,0,0-2.952-2.952H28.9V41.726h3.355a2.216,2.216,0,0,0,2.181,1.845h6.643a2.216,2.216,0,0,0,2.181-1.845h1.509v2.952H44.4a1.478,1.478,0,0,0-1.476,1.476v2.214A1.478,1.478,0,0,0,44.4,49.845h6.643a1.478,1.478,0,0,0,1.476-1.476V46.155a1.478,1.478,0,0,0-1.476-1.476h-.369v-5.9a2.956,2.956,0,0,0-2.952-2.952H43.264a2.216,2.216,0,0,0-2.181-1.845H38.5V32.869h1.292a2.03,2.03,0,1,0,0-4.06h-4.06a2.03,2.03,0,0,0,0,4.06h1.292v1.107H34.44a2.216,2.216,0,0,0-2.181,1.845H25.952A2.956,2.956,0,0,0,23,38.774V54.643A2.956,2.956,0,0,0,25.952,57.6h5.167v4.429H28.9V59.441a.738.738,0,0,0-1.476,0v2.583h-3.69a.738.738,0,1,0,0,1.476ZM35.179,30.839a.554.554,0,0,1,.554-.554h4.06a.554.554,0,1,1,0,1.107h-4.06A.554.554,0,0,1,35.179,30.839Zm15.87,17.53H44.4V46.155h6.643Zm-1.846-9.6v5.9H46.25v-3.69a.738.738,0,0,0-.738-.738H43.3V37.3h4.429A1.478,1.478,0,0,1,49.2,38.774ZM33.7,36.191a.739.739,0,0,1,.738-.738h6.643a.739.739,0,0,1,.738.738v5.167a.739.739,0,0,1-.738.738H34.44a.739.739,0,0,1-.738-.738ZM31.857,56.119h-5.9a1.478,1.478,0,0,1-1.476-1.476V38.774A1.478,1.478,0,0,1,25.952,37.3h6.274V40.25h-4.06a.738.738,0,0,0-.738.738v11.44a.738.738,0,0,0,.738.738h5.9a1.478,1.478,0,0,1,1.476,1.476v7.381H32.6V56.857A.738.738,0,0,0,31.857,56.119Z" fill="#7d8c48"/><path d="M83.69,108c-.883,0-3.69,3.724-3.69,6.258a3.691,3.691,0,1,0,7.381,0C87.381,111.724,84.573,108,83.69,108Zm0,8.488a2.225,2.225,0,0,1-2.214-2.231c0-1.668,1.454-3.6,2.214-4.473.761.869,2.214,2.805,2.214,4.473A2.225,2.225,0,0,1,83.69,116.488Z" transform="translate(-35.964 -57.417)" fill="#7d8c48"/></g></g></svg>