<svg xmlns="http://www.w3.org/2000/svg" xmlns:xlink="http://www.w3.org/1999/xlink" width="102" height="102" viewBox="0 0 102 102"><defs><filter id="a" x="0" y="0" width="102" height="102" filterUnits="userSpaceOnUse"><feOffset dy="3" input="SourceAlpha"/><feGaussianBlur stdDeviation="3" result="b"/><feFlood flood-opacity="0.161"/><feComposite operator="in" in2="b"/><feComposite in="SourceGraphic"/></filter></defs><g transform="translate(-802 -7921.512)"><g transform="translate(811 7927.512)"><g transform="matrix(1, 0, 0, 1, -9, -6)" filter="url(#a)"><circle cx="42" cy="42" r="42" transform="translate(9 6)" fill="#fff"/></g></g><g transform="translate(827.902 7945.414)"><path d="M49.389,28A5.4,5.4,0,0,0,44,33.389c.253,7.133,10.527,7.131,10.779,0A5.4,5.4,0,0,0,49.389,28Zm0,9.239a3.85,3.85,0,0,1,0-7.7A3.85,3.85,0,0,1,49.389,37.239Z" transform="translate(-9.663 -5.982)" fill="#7d8c48"/><path d="M52.77,34a.77.77,0,1,0,.77.77.77.77,0,0,0-.77-.77Z" transform="translate(-11.504 -7.362)" fill="#7d8c48"/><path d="M48.77,34a.77.77,0,1,0,.77.77.77.77,0,0,0-.77-.77Z" transform="translate(-10.584 -7.362)" fill="#7d8c48"/><path d="M49.389,44A5.4,5.4,0,0,0,44,49.389c.253,7.133,10.527,7.131,10.779,0A5.4,5.4,0,0,0,49.389,44Zm0,9.239a3.85,3.85,0,0,1,0-7.7A3.85,3.85,0,0,1,49.389,53.239Z" transform="translate(-9.663 -9.663)" fill="#7d8c48"/><path d="M48.77,50a.77.77,0,1,0,.77.77.77.77,0,0,0-.77-.77Z" transform="translate(-10.584 -11.044)" fill="#7d8c48"/><path d="M52.77,50a.77.77,0,1,0,.77.77.77.77,0,0,0-.77-.77Z" transform="translate(-11.504 -11.044)" fill="#7d8c48"/><path d="M55.4,24H41.54A1.542,1.542,0,0,0,40,25.54V51.717a1.542,1.542,0,0,0,1.54,1.54H55.4a1.542,1.542,0,0,0,1.54-1.54V25.54A1.542,1.542,0,0,0,55.4,24ZM41.54,51.717V25.54H55.4V51.717Z" transform="translate(-8.743 -5.062)" fill="#7d8c48"/><path d="M48.1,19.912A.77.77,0,1,0,49.193,21a1.578,1.578,0,0,1,2.177,0,.77.77,0,1,0,1.089-1.089,3.155,3.155,0,0,0-4.355,0Z" transform="translate(-10.556 -3.921)" fill="#7d8c48"/><path d="M53.442,18.117a.775.775,0,0,0,.544-1.314,6.163,6.163,0,0,0-8.711,0,.77.77,0,1,0,1.089,1.089,4.645,4.645,0,0,1,6.534,0A.768.768,0,0,0,53.442,18.117Z" transform="translate(-9.905 -2.991)" fill="#7d8c48"/><path d="M54.97,15.019a.775.775,0,0,0,.544-1.314,9.246,9.246,0,0,0-13.069,0,.77.77,0,1,0,1.089,1.089,7.743,7.743,0,0,1,10.892,0,.768.768,0,0,0,.544.225Z" transform="translate(-9.254 -2.071)" fill="#7d8c48"/><path d="M15.389,27.774H11.907l1.888-4.718a.77.77,0,1,0-1.43-.572l-2.31,5.774a.77.77,0,0,0,.715,1.056h3.483l-1.888,4.718a.77.77,0,1,0,1.43.572L16.1,28.83a.776.776,0,0,0-.715-1.056Z" transform="translate(-1.841 -4.601)" fill="#7d8c48"/><path d="M29.717,34.337H17.4V18.168H32.8a.77.77,0,1,0,0-1.54H24.328V7.389a.77.77,0,0,0-.77-.77H18.877A5.393,5.393,0,0,0,13.549,2H7.389a.77.77,0,0,0-.77.77V4.31H2.77a.77.77,0,0,0,0,1.54H6.62v3.08H2.77a.77.77,0,1,0,0,1.54H6.62v1.54a.77.77,0,0,0,.77.77h6.159a5.393,5.393,0,0,0,5.328-4.62h3.911v8.469h-1.54v-.77a1.542,1.542,0,0,0-1.54-1.54H3.54A1.542,1.542,0,0,0,2,15.859V32.027a1.542,1.542,0,0,0,1.54,1.54h3.85v9.239a.77.77,0,0,0,.77.77H12.84a5.393,5.393,0,0,0,5.328,4.62h6.159a.77.77,0,0,0,.77-.77v-1.54h3.85a.77.77,0,0,0,0-1.54H25.1v-3.08h3.85a.77.77,0,0,0,0-1.54H25.1v-1.54a.77.77,0,0,0-.77-.77H18.168a5.393,5.393,0,0,0-5.328,4.62H8.929V33.567h6.929v.77a1.542,1.542,0,0,0,1.54,1.54H29.717a.77.77,0,1,0,0-1.54Zm-16.168-23.1H8.159V3.54h5.389A3.85,3.85,0,0,1,13.549,11.239Zm4.62,27.717h5.389v7.7H18.168A3.85,3.85,0,0,1,18.168,38.956ZM3.54,32.027V15.859H19.708v.77H17.4a1.542,1.542,0,0,0-1.54,1.54V32.027Z" fill="#7d8c48"/><path d="M30.794,38.034a.772.772,0,0,0,1-.429L34.1,31.83a.776.776,0,0,0-.715-1.056H29.907l1.888-4.718a.77.77,0,1,0-1.43-.572l-2.31,5.774a.77.77,0,0,0,.715,1.056h3.483l-1.888,4.718A.771.771,0,0,0,30.794,38.034Z" transform="translate(-5.982 -5.292)" fill="#7d8c48"/></g></g></svg>