<svg xmlns="http://www.w3.org/2000/svg" width="124" height="124" viewBox="0 0 124 124"><g transform="translate(-582 -2920.69)"><circle cx="62" cy="62" r="62" transform="translate(582 2920.69)" fill="#b8dcf3"/><path d="M58,35V32a3,3,0,0,0-2-2.816V20a3,3,0,0,0-3-3H50.868l4.745-7.117A14.162,14.162,0,0,0,58,2V1H57c-4.87,0-5.972,1.44-6.751,3.043-.357.735-.464.957-1.586.957a4.527,4.527,0,0,1-3.477-1.722,6.32,6.32,0,0,0-9.718,0,4.368,4.368,0,0,1-6.949,0,6.318,6.318,0,0,0-9.717,0A4.522,4.522,0,0,1,15.329,5c-1.119,0-1.226-.221-1.581-.955C12.971,2.44,11.87,1,7,1H6V2A14.162,14.162,0,0,0,8.387,9.883L13.132,17H11a3,3,0,0,0-3,3V37H5a4,4,0,0,0-2.643,7,3.971,3.971,0,0,0,.025,6,3.971,3.971,0,0,0-.025,6A4,4,0,0,0,5,63H38a6.984,6.984,0,0,0,5.555-2.758A4.989,4.989,0,0,0,48,63H58a5.006,5.006,0,0,0,5-5V40a5.006,5.006,0,0,0-5-5Zm3,5v4H58.917a6,6,0,0,0-11.834,0H45V40a3,3,0,0,1,3-3H58A3,3,0,0,1,61,40ZM43,51.11A7.04,7.04,0,0,0,41.587,50,7.04,7.04,0,0,0,43,48.89ZM45,46h4V45a4,4,0,0,1,8,0v1h4v6H45Zm5-11V32a1,1,0,0,1,1-1h4a1,1,0,0,1,1,1v3ZM10.051,8.773A12.157,12.157,0,0,1,8.042,3.025c3.066.158,3.492,1.038,3.9,1.892A3.186,3.186,0,0,0,15.329,7a6.411,6.411,0,0,0,4.858-2.279,4.367,4.367,0,0,1,6.948,0,6.319,6.319,0,0,0,9.718,0,4.367,4.367,0,0,1,6.949,0A6.419,6.419,0,0,0,48.663,7a3.188,3.188,0,0,0,3.385-2.083c.415-.854.842-1.734,3.91-1.893A12.163,12.163,0,0,1,53.95,8.773L48.465,17H15.535ZM11,19H53a1,1,0,0,1,1,1v3H10V20a1,1,0,0,1,1-1Zm-1,6H54v4H51a3,3,0,0,0-2.816,2H43a4,4,0,0,0-4,4h2a2,2,0,0,1,2-2h5v2a5,5,0,0,0-4.919,4.2A6.978,6.978,0,0,0,38,37H10ZM3,47a2,2,0,0,1,2-2H37V43H5a2,2,0,0,1,0-4H38a5,5,0,0,1,0,10H5a2,2,0,0,1-2-2ZM38,61H5a2,2,0,0,1,0-4H37V55H5a2,2,0,0,1,0-4H38a5,5,0,0,1,0,10Zm20,0H48a3,3,0,0,1-3-3V54H61v4A3,3,0,0,1,58,61Z" transform="translate(612.023 2951)" fill="#20849e"/></g></svg>