<svg xmlns="http://www.w3.org/2000/svg" width="124" height="124" viewBox="0 0 124 124"><g transform="translate(-1206 -2920.69)"><circle cx="62" cy="62" r="62" transform="translate(1206 2920.69)" fill="#b8dcf3"/><g transform="translate(1233.977 2948.667)"><path d="M66.949,15.365H41.706V1.1a1.1,1.1,0,0,0-1.1-1.1H1.1A1.1,1.1,0,0,0,0,1.1V51.584a1.1,1.1,0,0,0,1.1,1.1H24.146v1.1a1.1,1.1,0,0,0,1.1,1.1h1.1v2.2h-1.1a1.1,1.1,0,0,0-1.1,1.1v4.39a1.1,1.1,0,0,0,1.1,1.1h1.1v3.293a1.1,1.1,0,0,0,1.1,1.1H66.949a1.1,1.1,0,0,0,1.1-1.1V16.463A1.1,1.1,0,0,0,66.949,15.365Zm-42.8,34.023v1.1H2.2V2.2H39.511v13.17h-2.2V5.488a1.1,1.1,0,0,0-1.1-1.1H5.488a1.1,1.1,0,0,0-1.1,1.1V45a1.1,1.1,0,0,0,1.1,1.1H26.341v2.2h-1.1A1.1,1.1,0,0,0,24.146,49.389Zm2.2-23.048v-2.2h2.2v2.2Zm0-9.878v5.488h-1.1a1.1,1.1,0,0,0-1.1,1.1v4.39a1.1,1.1,0,0,0,1.1,1.1h1.1v2.2h-1.1a1.1,1.1,0,0,0-1.1,1.1v4.39a1.1,1.1,0,0,0,1.1,1.1h1.1v2.2h-1.1a1.1,1.1,0,0,0-1.1,1.1V43.9h-2.2V13.17h13.17v2.2H27.438A1.1,1.1,0,0,0,26.341,16.463Zm0,18.658v-2.2h2.2v2.2Zm0,17.56v-2.2h2.2v2.2Zm1.1-8.78h-1.1v-2.2h2.2v2.2Zm7.683-32.926H21.951V6.585h13.17Zm-15.365,0H6.585V6.585h13.17Zm-13.17,2.2h13.17V43.9H6.585Zm19.756,46.1h2.2v2.2h-2.2Zm39.511,6.585H28.536v-2.2h1.1a1.1,1.1,0,0,0,1.1-1.1v-4.39a1.1,1.1,0,0,0-1.1-1.1h-1.1v-2.2h1.1a1.1,1.1,0,0,0,1.1-1.1v-4.39a1.1,1.1,0,0,0-1.1-1.1h-1.1V46.1h1.1a1.1,1.1,0,0,0,1.1-1.1v-4.39a1.1,1.1,0,0,0-1.1-1.1h-1.1v-2.2h1.1a1.1,1.1,0,0,0,1.1-1.1v-4.39a1.1,1.1,0,0,0-1.1-1.1h-1.1v-2.2h1.1a1.1,1.1,0,0,0,1.1-1.1v-4.39a1.1,1.1,0,0,0-1.1-1.1h-1.1V17.56H65.852Zm0,0" fill="#20849e"/><path d="M241.1,154.975h28.536a1.1,1.1,0,0,0,1.1-1.1V145.1a1.1,1.1,0,0,0-1.1-1.1H241.1a1.1,1.1,0,0,0-1.1,1.1v8.78A1.1,1.1,0,0,0,241.1,154.975Zm1.1-8.78h26.341v6.585H242.2Zm0,0" transform="translate(-207.074 -124.244)" fill="#20849e"/><path d="M272,176h21.951v2.2H272Zm0,0" transform="translate(-234.684 -151.854)" fill="#20849e"/><path d="M280.78,265.424V257.1a1.1,1.1,0,0,0-1.1-1.1h-4.39a1.1,1.1,0,0,0-1.1,1.1v8.326l-1.874,1.874a1.1,1.1,0,0,0-.322.776v15.365a1.1,1.1,0,0,0,1.1,1.1h8.78a1.1,1.1,0,0,0,1.1-1.1V268.073a1.1,1.1,0,0,0-.322-.776Zm-4.712,1.23a1.094,1.094,0,0,0,.322-.776V258.2h2.2v7.683a1.1,1.1,0,0,0,.322.776l1.874,1.874v2.838H274.2v-2.838Zm4.712,6.907v4.39H274.2v-4.39Zm-6.585,8.78v-2.2h6.585v2.2Zm0,0" transform="translate(-234.684 -220.879)" fill="#20849e"/><path d="M375.683,336H369.1a1.1,1.1,0,0,0-1.1,1.1v5.488a4.386,4.386,0,0,0,3.293,4.234v4.546h-2.2v2.2h6.585v-2.2h-2.2v-4.546a4.386,4.386,0,0,0,3.293-4.234V337.1A1.1,1.1,0,0,0,375.683,336Zm-1.1,6.585a2.2,2.2,0,1,1-4.39,0V338.2h4.39Zm0,0" transform="translate(-317.514 -289.904)" fill="#20849e"/><path d="M64,112h8.78v2.2H64Zm0,0" transform="translate(-55.22 -96.635)" fill="#20849e"/><path d="M64,144h8.78v2.2H64Zm0,0" transform="translate(-55.22 -124.244)" fill="#20849e"/><path d="M64,176h8.78v2.2H64Zm0,0" transform="translate(-55.22 -151.854)" fill="#20849e"/><path d="M64,208h8.78v2.2H64Zm0,0" transform="translate(-55.22 -179.464)" fill="#20849e"/><path d="M64,240h8.78v2.2H64Zm0,0" transform="translate(-55.22 -207.074)" fill="#20849e"/><path d="M64,272h8.78v2.2H64Zm0,0" transform="translate(-55.22 -234.684)" fill="#20849e"/></g></g></svg>