<svg xmlns="http://www.w3.org/2000/svg" width="124" height="124" viewBox="0 0 124 124"><g transform="translate(-1101.023 -1327.553)"><circle cx="62" cy="62" r="62" transform="translate(1101.023 1327.553)" fill="#b8dcf3"/><g transform="translate(1123.023 1280.867)"><g transform="translate(0 87.133)"><g transform="translate(1.611 14.005)"><path d="M40.84,163.269H8.26a1.278,1.278,0,0,1-1.278-1.278V155.1a7.293,7.293,0,0,1,7.283-7.286H34.83a7.291,7.291,0,0,1,7.283,7.286v6.888A1.273,1.273,0,0,1,40.84,163.269Zm-31.3-2.556H39.56V155.1a4.735,4.735,0,0,0-4.729-4.729H14.265A4.735,4.735,0,0,0,9.536,155.1v5.61Z" transform="translate(-6.982 -147.817)" fill="#20849e"/></g><g transform="translate(3.507)"><path d="M16.475,105.327a1.278,1.278,0,0,1-1.278-1.278V88.411a1.278,1.278,0,0,1,1.278-1.278H45.264a1.278,1.278,0,0,1,1.278,1.278v15.581a1.278,1.278,0,0,1-2.557,0V89.69H17.754v14.359a1.278,1.278,0,0,1-1.278,1.278Z" transform="translate(-15.197 -87.133)" fill="#20849e"/></g><g transform="translate(0 26.901)"><path d="M37.081,215.9H1.278A1.278,1.278,0,0,1,0,214.622v-9.649A1.278,1.278,0,0,1,1.278,203.7h35.8a1.278,1.278,0,0,1,1.278,1.278v9.649A1.278,1.278,0,0,1,37.081,215.9ZM2.557,213.344H35.8v-7.092H2.557Z" transform="translate(0 -203.695)" fill="#20849e"/></g><g transform="translate(10.565 6.835)"><path d="M61.729,126.477H47.055a1.278,1.278,0,0,1-1.278-1.278v-5.492a2.963,2.963,0,0,1,2.959-2.959H60.047a2.963,2.963,0,0,1,2.959,2.959V125.2a1.279,1.279,0,0,1-1.278,1.278Zm-13.4-2.557H60.45v-4.213a.4.4,0,0,0-.4-.4H48.737a.4.4,0,0,0-.4.4Z" transform="translate(-45.777 -116.748)" fill="#20849e"/></g><g transform="translate(42.576 14.005)"><path d="M218.341,163.269h-32.58a1.278,1.278,0,0,1-1.278-1.278V155.1a7.294,7.294,0,0,1,7.286-7.286h20.565a7.294,7.294,0,0,1,7.286,7.286v6.888A1.279,1.279,0,0,1,218.341,163.269Zm-31.3-2.556h30.021V155.1a4.735,4.735,0,0,0-4.729-4.729H191.766a4.735,4.735,0,0,0-4.729,4.729v5.61Z" transform="translate(-184.483 -147.817)" fill="#20849e"/></g><g transform="translate(44.471)"><path d="M222.765,105.327a1.278,1.278,0,0,1-1.278-1.278V89.689H195.255v14.359a1.278,1.278,0,1,1-2.557,0V88.411a1.278,1.278,0,0,1,1.278-1.278h28.788a1.278,1.278,0,0,1,1.278,1.278v15.638A1.278,1.278,0,0,1,222.765,105.327Z" transform="translate(-192.698 -87.133)" fill="#20849e"/></g><g transform="translate(40.964 26.901)"><path d="M214.582,215.9h-35.8a1.278,1.278,0,0,1-1.278-1.278v-9.649a1.278,1.278,0,0,1,1.278-1.278h35.8a1.278,1.278,0,0,1,1.278,1.278v9.649A1.278,1.278,0,0,1,214.582,215.9Zm-34.524-2.557H213.3v-7.092H180.058Z" transform="translate(-177.501 -203.695)" fill="#20849e"/></g><g transform="translate(51.529 6.835)"><path d="M239.231,126.477H224.557a1.278,1.278,0,0,1-1.278-1.278v-5.492a2.963,2.963,0,0,1,2.959-2.959h11.311a2.963,2.963,0,0,1,2.959,2.959V125.2A1.279,1.279,0,0,1,239.231,126.477Zm-13.4-2.557h12.117v-4.213a.4.4,0,0,0-.4-.4H226.238a.4.4,0,0,0-.4.4v4.213Z" transform="translate(-223.279 -116.748)" fill="#20849e"/></g></g></g></g></svg>