<svg xmlns="http://www.w3.org/2000/svg" width="124" height="124" viewBox="0 0 124 124"><g transform="translate(4265 10372)"><circle cx="62" cy="62" r="62" transform="translate(-4265 -10372)" fill="#b8dcf3"/><g transform="translate(-4293.262 -10350.342)"><g transform="translate(60.262 0.342)"><g transform="translate(0 55.419)"><g transform="translate(0 11.87)"><path d="M119.376,444.648H61.494a1.231,1.231,0,0,1-1.231-1.232v-5.323a1.232,1.232,0,0,1,1.231-1.232h57.883a1.232,1.232,0,0,1,1.231,1.232v5.323A1.232,1.232,0,0,1,119.376,444.648Zm-56.651-2.463h55.42v-2.86H62.725Z" transform="translate(-60.262 -436.862)" fill="#20849e"/></g><g transform="translate(3.659 17.396)"><path d="M85.233,478.715A1.233,1.233,0,0,1,84,477.483v-3.541a1.233,1.233,0,0,1,2.466,0v3.541A1.233,1.233,0,0,1,85.233,478.715Z" transform="translate(-84 -472.711)" fill="#20849e"/></g><g transform="translate(53.141 17.396)"><path d="M406.233,478.715A1.233,1.233,0,0,1,405,477.483v-3.541a1.233,1.233,0,0,1,2.466,0v3.541A1.233,1.233,0,0,1,406.233,478.715Z" transform="translate(-405 -472.711)" fill="#20849e"/></g><path d="M67.354,374.194h-5.86a1.231,1.231,0,0,1-1.231-1.231v-11.87a1.232,1.232,0,0,1,1.231-1.232h.4a6.7,6.7,0,0,1,6.7,6.7v6.4A1.231,1.231,0,0,1,67.354,374.194Zm-4.629-2.463h3.4v-5.173a4.241,4.241,0,0,0-3.4-4.15Z" transform="translate(-60.262 -359.861)" fill="#20849e"/><g transform="translate(6.004 4.954)"><path d="M109.24,401.378a1.232,1.232,0,0,1-1.078-1.825,3.362,3.362,0,0,0,.42-1.652,3.489,3.489,0,0,0-3.545-3.434h-4.6a1.233,1.233,0,0,1,0-2.466h4.6a5.911,5.911,0,0,1,5.283,8.747A1.225,1.225,0,0,1,109.24,401.378Z" transform="translate(-99.21 -392)" fill="#20849e"/></g><g transform="translate(14.487 4.954)"><path d="M193.977,401.363a1.233,1.233,0,0,1-1.233-1.232v-2.577a3.028,3.028,0,0,0-3.239-3.088H163.489a14.7,14.7,0,0,0-7.394,1.826,1.234,1.234,0,0,1-1.684-.453,1.22,1.22,0,0,1,.445-1.674A17.161,17.161,0,0,1,163.489,392h26.016a5.509,5.509,0,0,1,5.705,5.554v2.577A1.233,1.233,0,0,1,193.977,401.363Z" transform="translate(-154.245 -392)" fill="#20849e"/></g></g><g transform="translate(0 27.71)"><g transform="translate(0 11.87)"><path d="M119.376,264.889H61.494a1.231,1.231,0,0,1-1.231-1.232v-5.323a1.232,1.232,0,0,1,1.231-1.232h57.883a1.232,1.232,0,0,1,1.231,1.232v5.323A1.232,1.232,0,0,1,119.376,264.889Zm-56.651-2.463h55.42v-2.86H62.725Z" transform="translate(-60.262 -257.103)" fill="#20849e"/></g><g transform="translate(3.659 17.396)"><path d="M85.233,298.955A1.233,1.233,0,0,1,84,297.723v-3.541a1.233,1.233,0,0,1,2.466,0v3.541A1.233,1.233,0,0,1,85.233,298.955Z" transform="translate(-84 -292.951)" fill="#20849e"/></g><g transform="translate(53.141 17.396)"><path d="M406.233,298.955A1.233,1.233,0,0,1,405,297.723v-3.541a1.233,1.233,0,0,1,2.466,0v3.541A1.233,1.233,0,0,1,406.233,298.955Z" transform="translate(-405 -292.951)" fill="#20849e"/></g><path d="M67.354,194.435h-5.86a1.231,1.231,0,0,1-1.231-1.232v-11.87a1.231,1.231,0,0,1,1.231-1.231h.4a6.7,6.7,0,0,1,6.7,6.7v6.4A1.232,1.232,0,0,1,67.354,194.435Zm-4.629-2.463h3.4V186.8a4.241,4.241,0,0,0-3.4-4.15Z" transform="translate(-60.262 -180.102)" fill="#20849e"/><g transform="translate(6.004 4.917)"><path d="M109.24,221.415a1.232,1.232,0,0,1-1.078-1.825,3.432,3.432,0,0,0,.42-1.671,3.5,3.5,0,0,0-3.545-3.453h-4.6a1.233,1.233,0,0,1,0-2.466h4.6a5.933,5.933,0,0,1,5.283,8.774A1.233,1.233,0,0,1,109.24,221.415Z" transform="translate(-99.21 -212)" fill="#20849e"/></g><g transform="translate(14.487 4.917)"><path d="M193.977,221.4a1.233,1.233,0,0,1-1.233-1.232v-2.577a3.057,3.057,0,0,0-3.239-3.125H163.489a14.71,14.71,0,0,0-7.394,1.845,1.233,1.233,0,1,1-1.238-2.132,17.168,17.168,0,0,1,8.632-2.18h26.016a5.539,5.539,0,0,1,5.705,5.591v2.577A1.233,1.233,0,0,1,193.977,221.4Z" transform="translate(-154.245 -212)" fill="#20849e"/></g></g><g transform="translate(0 11.87)"><path d="M119.376,85.129H61.494A1.231,1.231,0,0,1,60.262,83.9V78.575a1.231,1.231,0,0,1,1.231-1.231h57.883a1.232,1.232,0,0,1,1.231,1.231V83.9A1.232,1.232,0,0,1,119.376,85.129ZM62.725,82.666h55.42v-2.86H62.725Z" transform="translate(-60.262 -77.343)" fill="#20849e"/></g><g transform="translate(3.659 17.396)"><path d="M85.233,119.195A1.233,1.233,0,0,1,84,117.963v-3.541a1.233,1.233,0,0,1,2.466,0v3.541A1.233,1.233,0,0,1,85.233,119.195Z" transform="translate(-84 -113.191)" fill="#20849e"/></g><g transform="translate(53.141 17.396)"><path d="M406.233,119.195A1.233,1.233,0,0,1,405,117.963v-3.541a1.233,1.233,0,0,1,2.466,0v3.541A1.233,1.233,0,0,1,406.233,119.195Z" transform="translate(-405 -113.191)" fill="#20849e"/></g><path d="M67.354,14.675h-5.86a1.231,1.231,0,0,1-1.231-1.231V1.573A1.231,1.231,0,0,1,61.493.342h.4a6.7,6.7,0,0,1,6.7,6.7v6.4A1.231,1.231,0,0,1,67.354,14.675Zm-4.629-2.463h3.4V7.039a4.241,4.241,0,0,0-3.4-4.15Z" transform="translate(-60.262 -0.342)" fill="#20849e"/><g transform="translate(6.004 4.88)"><path d="M109.24,41.452a1.232,1.232,0,0,1-1.078-1.825,3.5,3.5,0,0,0-3.125-5.161h-4.6a1.233,1.233,0,0,1,0-2.466h4.6a5.955,5.955,0,0,1,5.283,8.8A1.242,1.242,0,0,1,109.24,41.452Z" transform="translate(-99.21 -32)" fill="#20849e"/></g><g transform="translate(14.487 4.88)"><path d="M193.977,41.437a1.233,1.233,0,0,1-1.233-1.231V37.628a3.086,3.086,0,0,0-3.239-3.162H163.489A14.718,14.718,0,0,0,156.1,36.33a1.228,1.228,0,0,1-1.684-.435,1.252,1.252,0,0,1,.445-1.7A17.175,17.175,0,0,1,163.489,32h26.016a5.57,5.57,0,0,1,5.705,5.628v2.577A1.233,1.233,0,0,1,193.977,41.437Z" transform="translate(-154.245 -32)" fill="#20849e"/></g></g></g></g></svg>