<svg xmlns="http://www.w3.org/2000/svg" xmlns:xlink="http://www.w3.org/1999/xlink" width="102" height="102" viewBox="0 0 102 102"><defs><filter id="a" x="0" y="0" width="102" height="102" filterUnits="userSpaceOnUse"><feOffset dy="3" input="SourceAlpha"/><feGaussianBlur stdDeviation="3" result="b"/><feFlood flood-opacity="0.161"/><feComposite operator="in" in2="b"/><feComposite in="SourceGraphic"/></filter></defs><g transform="translate(-177.675 -1128.376)"><g transform="translate(186.675 1134.376)"><g transform="matrix(1, 0, 0, 1, -9, -6)" filter="url(#a)"><circle cx="42" cy="42" r="42" transform="translate(9 6)" fill="#fff"/></g></g><g transform="translate(201.555 1006.665)"><g transform="translate(-0.217 149)"><g transform="translate(0 0)"><path d="M39.8,176.739H3.138a3.509,3.509,0,0,1-2.882-1.426,2.359,2.359,0,0,1-.124-2.356c3.409-7.562,2.572-10.352,1.023-15.9-.248-.961-.5-1.891-.806-2.975a2.361,2.361,0,0,0-.186-.62c-.124-.4-.186-.9-.341-1.364a2.128,2.128,0,0,1,.5-1.767A3.705,3.705,0,0,1,3.107,149H39.741a3.919,3.919,0,0,1,2.851,1.364,2.03,2.03,0,0,1,.434,1.767c-.434,1.891-.93,3.533-1.3,4.99-1.55,5.548-2.325,8.306,1.023,15.931a2.231,2.231,0,0,1-.124,2.325A3.423,3.423,0,0,1,39.8,176.739Zm-36.7-26.283a2.358,2.358,0,0,0-1.643.775.636.636,0,0,0-.155.527,6.471,6.471,0,0,0,.341,1.333c.031.217.124.434.155.651.279,1.054.558,2.015.837,2.944,1.581,5.7,2.449,8.833-1.178,16.861a1.045,1.045,0,0,0,.031.961,2.052,2.052,0,0,0,1.612.744H39.741a2.118,2.118,0,0,0,1.643-.744.922.922,0,0,0,0-.9c-3.564-8.089-2.727-11.22-1.116-16.954.372-1.426.868-3.006,1.271-4.9a.411.411,0,0,0-.155-.465,2.358,2.358,0,0,0-1.643-.775H3.107Z" transform="translate(0.217 -149)" fill="#7d8c48" fill-rule="evenodd"/><g transform="translate(16.518 15.838)"><path d="M566.237,687.832H535.553a3.009,3.009,0,0,1-2.356-1.209,2.822,2.822,0,0,1-.31-2.541c1.55-4.091,2.108-6.974,1.984-9.732a.712.712,0,0,1,.682-.775.732.732,0,0,1,.775.682c.186,2.975-.4,6.044-2.046,10.352a1.161,1.161,0,0,0,.093,1.147,1.451,1.451,0,0,0,1.147.589h30.653a1.468,1.468,0,0,0,1.178-.589,1.244,1.244,0,0,0,.093-1.147c-3.006-8.027-2.294-11.158-.961-16.83.341-1.426.744-3.006,1.085-4.9a1.021,1.021,0,0,0-.248-.744,1.73,1.73,0,0,0-1.178-.589h-6.633a.775.775,0,1,1,0-1.55h6.664a3.239,3.239,0,0,1,2.325,1.147,2.317,2.317,0,0,1,.558,1.984c-.372,1.922-.775,3.533-1.054,4.99-1.333,5.548-1.984,8.337.868,15.962a2.731,2.731,0,0,1-.31,2.541A2.859,2.859,0,0,1,566.237,687.832Z" transform="translate(-532.724 -660)" fill="#7d8c48" fill-rule="evenodd"/></g><g transform="translate(4.643 2.772)"><path d="M151.962,249.971a.73.73,0,0,1-.713-.589l-1.643-7.934v-.031a1.217,1.217,0,0,1,.93-1.364l7.748-1.612a.751.751,0,0,1,.9.62.759.759,0,0,1-.589.9l-7.439,1.488,1.581,7.624a.745.745,0,0,1-.589.9Z" transform="translate(-149.594 -238.423)" fill="#7d8c48" fill-rule="evenodd"/></g><g transform="translate(28.503 13.526)"><path d="M920.183,597a.751.751,0,0,1-.155-1.488L927.5,594l-1.612-7.656a.772.772,0,1,1,1.519-.279L929.016,594a1.169,1.169,0,0,1-.9,1.426L920.338,597Z" transform="translate(-919.421 -585.423)" fill="#7d8c48" fill-rule="evenodd"/></g></g></g></g></g></svg>