<svg xmlns="http://www.w3.org/2000/svg" width="39.819" height="70.099" viewBox="0 0 39.819 70.099"><g transform="translate(-36.306)"><path d="M73.7,39.257l0-14.584a6.277,6.277,0,0,0-6.264-6.258h-.015l-7.08.007a9.994,9.994,0,1,0-10.664.012l-7.123.009a6.267,6.267,0,0,0-6.255,6.272V45.843a.839.839,0,0,0,.841.836h7.19V63.833a6.142,6.142,0,0,0,6,6.266h9.346a6.145,6.145,0,0,0,6-6.266V56.609a9.154,9.154,0,0,0,1.508.15,8.945,8.945,0,0,0,8.934-8.936C76.121,46.135,75.057,42.815,73.7,39.257ZM46.688,9.989A8.318,8.318,0,1,1,55,18.3,8.326,8.326,0,0,1,46.688,9.989ZM64,63.829a4.466,4.466,0,0,1-4.321,4.587H55.754a.831.831,0,0,0,.092-.364V52.711a.839.839,0,0,0-1.677,0V68.052a.814.814,0,0,0,.091.364H50.333a4.465,4.465,0,0,1-4.319-4.587V45.854a.161.161,0,0,0,0-.016c0-.007,0-.009,0-.018V31.489a.838.838,0,0,0-1.677,0V44.994H37.992V24.7a4.583,4.583,0,0,1,4.58-4.59l24.874-.027h0a4.6,4.6,0,0,1,4.589,4.582l0,10.382c-1.958-4.707-3.919-8.879-4.085-9.223a.873.873,0,0,0-1.519,0c-.337.707-8.174,17.384-8.174,21.987A8.934,8.934,0,0,0,64,56.14v7.685H64v0Zm3.183-8.748a7.268,7.268,0,0,1-7.253-7.256c0-3.161,4.693-14.052,7.253-19.637,2.563,5.59,7.254,16.481,7.254,19.637A7.259,7.259,0,0,1,67.182,55.08Zm.844-3.781a.838.838,0,0,1-.842.837,4.317,4.317,0,0,1-4.31-4.317.838.838,0,0,1,1.677,0,2.635,2.635,0,0,0,2.631,2.635A.85.85,0,0,1,68.027,51.3Z" fill="#c5a07a"/></g></svg>