<svg xmlns="http://www.w3.org/2000/svg" width="124" height="124" viewBox="0 0 124 124"><g transform="translate(-270 -2918.69)"><circle cx="62" cy="62" r="62" transform="translate(270 2918.69)" fill="#b8dcf3"/><g transform="translate(295.308 2944.279)"><path d="M16.722,29a3.914,3.914,0,0,0,2.788,1.148H47.233a6.7,6.7,0,0,0,6.691-6.692,6.6,6.6,0,0,0-1.96-4.721c-.331-.145.644-.486.813-.782a3.965,3.965,0,0,0,.012-5.538,3.951,3.951,0,0,0-2.8-6.7H22.266a6.712,6.712,0,0,0-4.607,11.531,3.942,3.942,0,0,0-.947,6.213A3.958,3.958,0,0,0,16.722,29ZM32.414,16.769H22.266a4.356,4.356,0,1,1,0-8.712H49.989a1.594,1.594,0,1,1,0,3.187H24.473a1.168,1.168,0,0,0,0,2.336H49.989a1.594,1.594,0,1,1,0,3.189h-12.9a1.168,1.168,0,1,0,0,2.336H47.233a4.356,4.356,0,1,1,0,8.712H19.51a1.594,1.594,0,1,1,0-3.189H45.026a1.168,1.168,0,1,0,0-2.336H19.51a1.647,1.647,0,0,1-1.136-.463A1.609,1.609,0,0,1,19.51,19.1h12.9a1.168,1.168,0,1,0,0-2.336Z" transform="translate(1.945 0)" fill="#20849e"/><path d="M69.291,60.248,65.869,45.72c-.037-.077-.048-.163-.086-.242l-3.4-7.123a3.736,3.736,0,0,0,2.307-3.414V29.164a2.76,2.76,0,0,0-.279-1.257l-2.926-6.045c-.409-.93-1.69-1.994-2.561-.941a1.17,1.17,0,0,0,.183,1.642,1.027,1.027,0,0,1,.283.33L62.3,28.914c.239.553-.464,1.116-1.478,1.137H12.568c-.946,0-1.525-.524-1.53-.913a.453.453,0,0,1,.047-.213L14,22.893a1.206,1.206,0,0,1,.5-.473,1.168,1.168,0,0,0,.43-1.6c-.868-1.388-2.6.051-3.028,1.051L8.979,27.915A2.735,2.735,0,0,0,8.7,29.164v5.777a3.737,3.737,0,0,0,2.307,3.414L7.6,45.478c-.039.078-.049.165-.084.242L4.1,60.244a3.59,3.59,0,0,0,3.495,4.417H47.414a1.168,1.168,0,1,0,0-2.336H7.593a1.254,1.254,0,0,1-1.223-1.542l3.21-13.628H63.807l3.211,13.63a1.262,1.262,0,0,1-1.224,1.54H52.085a1.168,1.168,0,0,0,0,2.336h13.71a3.611,3.611,0,0,0,3.5-4.413ZM13.444,38.678H21.3a1.168,1.168,0,0,0,0-2.336H12.568a1.471,1.471,0,0,1-1.53-1.4V32.119a4.474,4.474,0,0,0,1.53.268H60.82a4.473,4.473,0,0,0,1.529-.267v2.822a1.471,1.471,0,0,1-1.529,1.4H25.973a1.168,1.168,0,0,0,0,2.336h33.97l2.934,6.137H10.51Z" transform="translate(0 2.439)" fill="#20849e"/><path d="M8.764,54.778a1.182,1.182,0,0,0,1.09.81H61.935a1.176,1.176,0,0,0,1.137-1.436l-1.844-7.814a1.169,1.169,0,0,0-1.137-.9H11.7a1.239,1.239,0,0,0-.856.4,1.025,1.025,0,0,0-.28.5S8.675,54.584,8.764,54.778Zm3.859-7h12l-1.293,5.478h-12Zm32.143,0,1.293,5.478H25.73l1.293-5.478ZM60.46,53.253h-12l-1.293-5.478h12Z" transform="translate(0.799 6.667)" fill="#20849e"/></g></g></svg>