<svg xmlns="http://www.w3.org/2000/svg" width="124" height="124" viewBox="0 0 124 124"><g transform="translate(-894 -2918.69)"><circle cx="62" cy="62" r="62" transform="translate(894 2918.69)" fill="#b8dcf3"/><g transform="translate(919.927 2947.277)"><g transform="translate(2.05 6.726)"><path d="M42.918,53.085a4.993,4.993,0,0,0-4.149-7.694H29.007V15.733A1.135,1.135,0,0,0,27.872,14.6H26.758V11.235A1.135,1.135,0,0,0,25.623,10.1H21.134V7.861A1.135,1.135,0,0,0,20,6.726H12.127a1.135,1.135,0,0,0-1.135,1.135V14.6H9.878a1.135,1.135,0,0,0-1.135,1.135v7.872c0,5.265,0,17.012,0,22.179C-1.556,48.91.59,63.939,11.356,64.1l31.316-.135a5.444,5.444,0,0,0,.246-10.883Zm-31.855-7.69h-.05v-7.16H26.737V45.39H11.351c-.1,0-.2,0-.288,0Zm-.05-28.527H26.737v5.6H11.013ZM26.737,24.74V35.966H11.013V24.74ZM13.262,9h5.6v2.239A1.135,1.135,0,0,0,20,12.37h4.488V14.6H13.262V9Zm31.66,51.768a3.176,3.176,0,0,1-2.255.933l-31.317.135c-9.181-.266-9.444-13.519-.3-14.164,6.747-.011,21.091-.007,27.718-.007a2.7,2.7,0,0,1,0,5.4H25.061a1.135,1.135,0,0,0,0,2.27H42.672a3.2,3.2,0,0,1,2.25,5.434Z" transform="translate(-2.05 -6.726)" fill="#20849e"/><path d="M19.115,47.546H14.729a1.135,1.135,0,1,0,0,2.27h4.386A1.135,1.135,0,0,0,19.115,47.546Z" transform="translate(-0.491 -1.212)" fill="#20849e"/><path d="M65.278,46.021h0A142.774,142.774,0,0,0,61.811,30.9c-2.488-7.671-2.091-7.322-6.84-8.01V20.838a2.637,2.637,0,0,0-3.024-2.562V15.74a.556.556,0,0,1,.556-.555H58.66a2.744,2.744,0,0,0,0-5.487H45.7a2.657,2.657,0,0,0-2.655,2.654v5.924a2.689,2.689,0,0,0-3.217,2.562s0,2.057,0,2.057c-4.743.69-4.351.332-6.839,8.009-.889,3.006-1.806,6.732-2.583,10.491a1.135,1.135,0,0,0,2.224.46c.7-3.373,1.506-6.712,2.3-9.508H59.865c1.079,3.784,2.163,8.481,2.941,12.732H42.387a1.135,1.135,0,1,0,0,2.27H63.2c1.052,6.462.868,9.175.607,9.78-1.212.395-7.127.8-16.2.815a1.135,1.135,0,0,0,0,2.27c10.856-.015,16.83-.484,17.757-1.4.494-.489,1.808-1.787-.084-12.8ZM45.32,12.352a.385.385,0,0,1,.385-.384H58.661a.473.473,0,0,1,0,.947H52.5a2.829,2.829,0,0,0-2.827,2.826v2.536H45.32ZM42.1,20.838a.3.3,0,0,1,.292-.292H52.41a.3.3,0,0,1,.29.292V22.71a96.843,96.843,0,0,0-10.6,0ZM37.36,25.68h0c.024-.015.637-.367,3.69-.623,3.9-.3,13.061-.444,16.343.582.032.032.61.651,1.8,4.432H35.614C36.8,26.3,37.371,25.68,37.36,25.68Z" transform="translate(1.778 -6.325)" fill="#20849e"/></g></g></g></svg>