<svg xmlns="http://www.w3.org/2000/svg" width="86.206" height="86.206" viewBox="0 0 86.206 86.206"><g transform="translate(-410.794 -5560.149)"><circle cx="43.103" cy="43.103" r="43.103" transform="translate(410.794 5560.149)" fill="#b8dcf3"/><path d="M4.7,0a11.148,11.148,0,0,1-.937-2.842A9.181,9.181,0,0,1-3.853.586a11.247,11.247,0,0,1-7.617-2.71A8.626,8.626,0,0,1-14.6-8.936,8.865,8.865,0,0,1-10.8-16.729Q-6.987-19.365.278-19.365H3.325v-1.67q0-4.365-3.779-4.365-3.516,0-3.516,3.457h-9.873a8.864,8.864,0,0,1,3.911-7.471A16.422,16.422,0,0,1,.044-32.285q6.064,0,9.58,2.959a10.288,10.288,0,0,1,3.6,8.115V-7.178A14.371,14.371,0,0,0,14.575-.5V0ZM-1.479-6.445a5.507,5.507,0,0,0,3.062-.791A4.958,4.958,0,0,0,3.325-9.023v-5.068H.454q-5.156,0-5.156,4.629A2.826,2.826,0,0,0-3.794-7.28,3.287,3.287,0,0,0-1.479-6.445Z" transform="translate(453.348 5621)" fill="#20849e"/></g></svg>