<svg xmlns="http://www.w3.org/2000/svg" width="88" height="88" viewBox="0 0 88 88"><g transform="translate(-1160.348 -3670)"><circle cx="44" cy="44" r="44" transform="translate(1160.348 3670)" fill="#dee4f0"/><g transform="translate(1179.198 3686.197)"><path d="M4.412,53h32.3a2.149,2.149,0,0,0,1.931-1.223l2.491,1.747a1.528,1.528,0,0,0,1.752,0l6.087-4.264a10.751,10.751,0,0,0,4.575-8.8V30.1a1.53,1.53,0,0,0-.572-1.2,1.493,1.493,0,0,0-1.255-.3c-3.556.778-7.723-1.548-8.916-2.28a1.515,1.515,0,0,0-1.591,0,19.88,19.88,0,0,1-2.35,1.223V10.146a2.156,2.156,0,0,0-2.154-2.154h-7.39V6.854a1.38,1.38,0,0,0-1.378-1.378H24.775a4.261,4.261,0,0,0-8.44,0H13.169a1.38,1.38,0,0,0-1.378,1.378V7.992H4.412A2.16,2.16,0,0,0,2.25,10.146V50.84A2.164,2.164,0,0,0,4.412,53Zm37.417-25.67a.342.342,0,0,1,.363,0c1.649,1.011,5.9,3.272,9.78,2.426a.316.316,0,0,1,.267.065.359.359,0,0,1,.134.28V40.464A9.576,9.576,0,0,1,48.3,48.3l-6.087,4.264a.352.352,0,0,1-.4,0L35.728,48.3a9.574,9.574,0,0,1-4.074-7.836V30.1a.358.358,0,0,1,.134-.28.325.325,0,0,1,.2-.073.3.3,0,0,1,.067.008c3.872.847,8.124-1.414,9.773-2.425ZM12.968,6.854a.212.212,0,0,1,.2-.2h3.712a.588.588,0,0,0,.587-.587,3.085,3.085,0,1,1,6.171,0,.588.588,0,0,0,.587.587h3.712a.206.206,0,0,1,.2.2v1.71c0,.005,0,.01,0,.015s0,.01,0,.015v1.682a.2.2,0,0,1-.2.2H13.171a.206.206,0,0,1-.2-.2V6.854ZM3.425,10.146a.984.984,0,0,1,.987-.979h7.381v1.11a1.38,1.38,0,0,0,1.378,1.378H27.942a1.38,1.38,0,0,0,1.378-1.378V9.167h7.39a.98.98,0,0,1,.979.979V28.019a10.1,10.1,0,0,1-5.384.59,1.492,1.492,0,0,0-1.255.3,1.528,1.528,0,0,0-.572,1.2V40.465a10.752,10.752,0,0,0,4.575,8.8l2.588,1.815a.968.968,0,0,1-.931.75H4.412a.988.988,0,0,1-.987-.987Z" fill="#7d8c48"/><path d="M7.413,48.259v4.548a1.275,1.275,0,0,0,1.273,1.273h4.548a1.275,1.275,0,0,0,1.273-1.273V48.259a1.275,1.275,0,0,0-1.273-1.273H8.686a1.274,1.274,0,0,0-1.273,1.273Zm5.919,0v4.548a.1.1,0,0,1-.1.1H8.686a.1.1,0,0,1-.1-.1V48.259a.1.1,0,0,1,.1-.1h4.548a.1.1,0,0,1,.1.1Z" transform="translate(-1.119 -9.797)" fill="#7d8c48"/><path d="M20.913,49.978h10.9a.587.587,0,1,0,0-1.175h-10.9a.587.587,0,0,0,0,1.175Z" transform="translate(-3.919 -10.191)" fill="#7d8c48"/><path d="M20.913,53.9h10.9a.587.587,0,1,0,0-1.175h-10.9a.587.587,0,1,0,0,1.175Z" transform="translate(-3.919 -11.041)" fill="#7d8c48"/><path d="M10.678,52.119a.586.586,0,0,0,.8.077l1.349-1.052a.587.587,0,1,0-.722-.926l-.911.71L11,50.7a.588.588,0,0,0-.886.772Z" transform="translate(-1.674 -10.47)" fill="#7d8c48"/><path d="M30.872,59.684H11.479a.587.587,0,1,0,0,1.175H30.872a.587.587,0,0,0,0-1.175Z" transform="translate(-1.874 -12.55)" fill="#7d8c48"/><path d="M25.226,7.675a1.441,1.441,0,1,0-1.441-1.441A1.447,1.447,0,0,0,25.226,7.675Z" transform="translate(-4.669 -0.648)" fill="#7d8c48"/><path d="M15.465,36.662H31.024a.836.836,0,0,0,.588-1.429l-1.226-1.213a3.157,3.157,0,0,1-.93-2.228V26.863a1.837,1.837,0,0,0-1.835-1.835H25.947V21.04a2.7,2.7,0,1,0-5.407,0v3.989H18.867a1.837,1.837,0,0,0-1.835,1.835v4.928a3.154,3.154,0,0,1-.93,2.227l-1.226,1.214a.836.836,0,0,0,.589,1.429Zm6.25-15.623a1.529,1.529,0,1,1,3.058,0v3.986H21.715Zm-3.508,5.824a.661.661,0,0,1,.66-.66h8.755a.661.661,0,0,1,.66.66v1.389H18.207Zm-1.278,7.99a4.337,4.337,0,0,0,1.278-3.062V29.427H28.282v2.364a4.34,4.34,0,0,0,1.278,3.063l.639.633H26.81V30.845a.587.587,0,0,0-1.175,0v4.642h-1.8V33.711a.587.587,0,1,0-1.175,0v1.776h-1.8V32.563a.587.587,0,1,0-1.175,0v2.924H16.29Z" transform="translate(-2.684 -3.585)" fill="#7d8c48"/><path d="M51.506,52.788a5.752,5.752,0,1,0-5.752-5.752A5.758,5.758,0,0,0,51.506,52.788Zm0-10.329a4.577,4.577,0,1,1-4.577,4.577,4.582,4.582,0,0,1,4.577-4.577Z" transform="translate(-9.433 -8.561)" fill="#7d8c48"/><path d="M51.514,49.316a.589.589,0,0,0,.388.242.6.6,0,0,0,.092.007.588.588,0,0,0,.352-.117l1.883-1.414a.587.587,0,1,0-.706-.939l-1.4,1.051-.374-.53a.587.587,0,1,0-.961.676Z" transform="translate(-10.501 -9.795)" fill="#7d8c48"/><path d="M36.4,26.364l0,0,0,0a.977.977,0,0,1,.68.285l0,0a.994.994,0,0,1,.289.692.263.263,0,0,0,.164.247.275.275,0,0,0,.3-.061.252.252,0,0,0,.076-.19.984.984,0,0,1,.289-.692.972.972,0,0,1,.688-.285.005.005,0,0,1,.008,0,.264.264,0,0,0,.262-.269.26.26,0,0,0-.266-.266s0,0-.008,0a.975.975,0,0,1-.68-.285l0,0a.994.994,0,0,1-.289-.692.248.248,0,0,0-.084-.19.259.259,0,0,0-.2-.076.27.27,0,0,0-.262.269.98.98,0,0,1-.969.977h-.008a.264.264,0,0,0-.262.269.262.262,0,0,0,.266.268Z" transform="translate(-7.346 -4.939)" fill="#7d8c48"/><path d="M33.158,22.232l0,0,0,0a.729.729,0,0,1,.506.211l0,0a.738.738,0,0,1,.215.514.194.194,0,0,0,.121.183.2.2,0,0,0,.22-.045.186.186,0,0,0,.056-.141.729.729,0,0,1,.726-.726s0,0,.005,0a.2.2,0,0,0,.2-.2.192.192,0,0,0-.2-.2s0,0-.005,0a.727.727,0,0,1-.506-.212l0,0a.738.738,0,0,1-.215-.514.184.184,0,0,0-.062-.141.19.19,0,0,0-.147-.056.2.2,0,0,0-.2.2.729.729,0,0,1-.721.726h-.005a.2.2,0,0,0-.2.2.194.194,0,0,0,.2.2Z" transform="translate(-6.659 -4.142)" fill="#7d8c48"/><path d="M10.706,33.433l0,0,0,0a.975.975,0,0,1,.68.285l0,0a.994.994,0,0,1,.289.692.262.262,0,0,0,.164.247.275.275,0,0,0,.3-.061.252.252,0,0,0,.076-.19.984.984,0,0,1,.289-.692.971.971,0,0,1,.688-.285.005.005,0,0,1,.008,0,.264.264,0,0,0,.262-.269A.26.26,0,0,0,13.2,32.9s0,0-.008,0a.975.975,0,0,1-.68-.285l0,0a.994.994,0,0,1-.289-.692.248.248,0,0,0-.084-.19.259.259,0,0,0-.2-.076.27.27,0,0,0-.262.269.98.98,0,0,1-.969.977H10.7a.264.264,0,0,0-.262.269.253.253,0,0,0,.076.19A.249.249,0,0,0,10.706,33.433Z" transform="translate(-1.776 -6.471)" fill="#7d8c48"/><path d="M7.47,29.3l0,0,0,0a.729.729,0,0,1,.506.211l0,0a.738.738,0,0,1,.215.514.194.194,0,0,0,.121.183.2.2,0,0,0,.22-.045.186.186,0,0,0,.056-.141.729.729,0,0,1,.726-.726s0,0,.005,0a.2.2,0,0,0,.2-.2.193.193,0,0,0-.2-.2s0,0-.005,0a.727.727,0,0,1-.506-.212l0,0a.738.738,0,0,1-.215-.514.184.184,0,0,0-.062-.141.193.193,0,0,0-.147-.056.2.2,0,0,0-.2.2.729.729,0,0,1-.721.726H7.468a.2.2,0,0,0-.2.2.185.185,0,0,0,.056.141.18.18,0,0,0,.141.058Z" transform="translate(-1.089 -5.675)" fill="#7d8c48"/><path d="M11.537,27.1l0,0,0,0a.511.511,0,0,1,.352.147l0,0a.516.516,0,0,1,.15.358.136.136,0,0,0,.085.128.142.142,0,0,0,.154-.031.129.129,0,0,0,.039-.1.512.512,0,0,1,.15-.358.5.5,0,0,1,.356-.147s0,0,0,0a.136.136,0,0,0,.135-.139.135.135,0,0,0-.138-.138s0,0,0,0a.511.511,0,0,1-.352-.147l0,0a.516.516,0,0,1-.15-.358.13.13,0,0,0-.043-.1.134.134,0,0,0-.1-.039.139.139,0,0,0-.135.139.507.507,0,0,1-.5.506h0a.136.136,0,0,0-.135.139.135.135,0,0,0,.039.1.129.129,0,0,0,.1.039Z" transform="translate(-1.984 -5.284)" fill="#7d8c48"/></g></g></svg>