<svg xmlns="http://www.w3.org/2000/svg" width="86.206" height="86.206" viewBox="0 0 86.206 86.206"><g transform="translate(-757.023 -5560.149)"><circle cx="43.103" cy="43.103" r="43.103" transform="translate(757.023 5560.149)" fill="#b8dcf3"/><path d="M15.308-15.586q0,7.793-3.223,11.982A10.794,10.794,0,0,1,3,.586,9.367,9.367,0,0,1-4.79-3.252L-5.2,0h-8.848V-45h9.873v15.85a9.038,9.038,0,0,1,7.119-3.135,10.8,10.8,0,0,1,9.141,4.248q3.223,4.248,3.223,11.953Zm-9.9-.615q0-4.57-1.216-6.519A4.1,4.1,0,0,0,.454-24.668a4.726,4.726,0,0,0-4.629,2.549v12.6Q-2.915-7,.513-7a4.194,4.194,0,0,0,4.424-3.4A24.443,24.443,0,0,0,5.405-16.2Z" transform="translate(800.023 5621)" fill="#20849e"/></g></svg>