<svg xmlns="http://www.w3.org/2000/svg" width="86.206" height="86.206" viewBox="0 0 86.206 86.206"><g transform="translate(-1100.882 -5560.149)"><circle cx="43.103" cy="43.103" r="43.103" transform="translate(1100.882 5560.149)" fill="#b8dcf3"/><path d="M.586-7.031A4.391,4.391,0,0,0,3.809-8.159a4.136,4.136,0,0,0,1.113-3.149H14.18a10.959,10.959,0,0,1-3.735,8.555A13.894,13.894,0,0,1,.82.586q-6.914,0-10.9-4.336t-3.984-12.012v-.41a19.308,19.308,0,0,1,1.772-8.481,12.905,12.905,0,0,1,5.112-5.654,15.243,15.243,0,0,1,7.91-1.978q6.182,0,9.814,3.428A12.158,12.158,0,0,1,14.18-19.57H4.922a5.42,5.42,0,0,0-1.2-3.779A4.146,4.146,0,0,0,.5-24.668q-3.838,0-4.482,4.893A34.523,34.523,0,0,0-4.189-15.5q0,4.775,1.143,6.621A3.956,3.956,0,0,0,.586-7.031Z" transform="translate(1143.882 5621)" fill="#20849e"/></g></svg>