<svg xmlns="http://www.w3.org/2000/svg" width="86.206" height="86.206" viewBox="0 0 86.206 86.206"><g transform="translate(1201 6139.851)"><circle cx="43.103" cy="43.103" r="43.103" transform="translate(-1201 -6139.851)" fill="#b8dcf3"/><path d="M1.772.586q-7.295,0-11.807-4.351a15.024,15.024,0,0,1-4.512-11.323v-.82a19.467,19.467,0,0,1,1.8-8.584,13.184,13.184,0,0,1,5.259-5.757,15.875,15.875,0,0,1,8.2-2.036q6.68,0,10.547,4.146t3.867,11.558v3.838H-4.5A7.116,7.116,0,0,0-2.183-8.555,6.887,6.887,0,0,0,2.446-7.031a8.873,8.873,0,0,0,7.324-3.281L14.282-4.98A12.612,12.612,0,0,1,9.053-.923,17.672,17.672,0,0,1,1.772.586ZM.659-24.668q-4.336,0-5.156,5.742H5.464v-.762a4.89,4.89,0,0,0-1.2-3.677A4.78,4.78,0,0,0,.659-24.668Z" transform="translate(-1158 -6079)" fill="#20849e"/></g></svg>