<svg xmlns="http://www.w3.org/2000/svg" xmlns:xlink="http://www.w3.org/1999/xlink" width="102" height="102" viewBox="0 0 102 102"><defs><filter id="a" x="0" y="0" width="102" height="102" filterUnits="userSpaceOnUse"><feOffset dy="3" input="SourceAlpha"/><feGaussianBlur stdDeviation="3" result="b"/><feFlood flood-opacity="0.161"/><feComposite operator="in" in2="b"/><feComposite in="SourceGraphic"/></filter></defs><g transform="translate(-177 -4576.904)"><g transform="translate(186 4582.904)"><g transform="matrix(1, 0, 0, 1, -9, -6)" filter="url(#a)"><circle cx="42" cy="42" r="42" transform="translate(9 6)" fill="#fff"/></g></g><g transform="translate(172.117 4601.333)"><g transform="translate(32.065)"><path d="M71.874,34.69h-.857a2.166,2.166,0,0,0,.145-.672L71.8,21.883a1.429,1.429,0,0,0,.765-1.264V19.143a1.429,1.429,0,0,0-.755-1.259A8.084,8.084,0,0,0,67.4,11.2V5.81h.048a1.43,1.43,0,0,0,1.429-1.429V1.429A1.43,1.43,0,0,0,67.445,0H65.969a1.43,1.43,0,0,0-1.429,1.429V4.381A1.43,1.43,0,0,0,65.969,5.81h.048v4.847a8.072,8.072,0,0,0-10.3,7.058h-.077a.691.691,0,0,0-.691.691V28a1.43,1.43,0,0,0,1.16,1.4l.243,4.616a2.163,2.163,0,0,0,.145.672H53.226a2.154,2.154,0,0,0,.148-.786V21.357a2.169,2.169,0,0,0-2.167-2.167h-3.69a.691.691,0,0,0-.691.691v.048h-.786a.691.691,0,1,0,0,1.381h.786v1.524a.786.786,0,0,1-.786.786.691.691,0,0,0,0,1.381,2.17,2.17,0,0,0,2.053-1.476h.947v1.626a4.388,4.388,0,0,0-3.69,4.327V33.9a2.155,2.155,0,0,0,.148.786H43.779V16.143H54.16a.691.691,0,0,0,0-1.381h-.611a2.185,2.185,0,0,0,.085-.26l.459-1.834a.69.69,0,0,0-.67-.858H46.041a.69.69,0,0,0-.67.858L45.83,14.5a2.162,2.162,0,0,0,.085.26H43.78v-8.9a2.908,2.908,0,0,0-2.9-2.9h-.161A2.17,2.17,0,0,0,38.66,1.476H34.232a2.167,2.167,0,0,0,0,4.333H38.66a2.17,2.17,0,0,0,2.053-1.476h.161A1.525,1.525,0,0,1,42.4,5.857v8.9H32.756a.691.691,0,0,0,0,1.381h.786V30.214a2.169,2.169,0,0,0,2.167,2.167H38.66a2.169,2.169,0,0,0,2.167-2.167V16.143H42.4V34.69H40.874a1.43,1.43,0,0,0-1.429,1.429v1.476a1.43,1.43,0,0,0,1.429,1.429H42.4v.9a3.643,3.643,0,1,0,1.381,0v-.9H67.493v.9a3.643,3.643,0,1,0,1.381,0v-.9h3A1.43,1.43,0,0,0,73.3,37.595V36.118A1.43,1.43,0,0,0,71.874,34.69ZM52.537,13.19l-.244.976a.784.784,0,0,1-.762.6h-3.6a.784.784,0,0,1-.762-.595l-.244-.976h5.612ZM38.66,4.428H34.232a.786.786,0,0,1,0-1.571H38.66a.786.786,0,1,1,0,1.571Zm.786,25.785A.786.786,0,0,1,38.66,31H35.708a.786.786,0,0,1-.786-.786V19.095h4.524V30.214Zm0-12.5H34.922V16.143h4.524v1.571ZM67.4,12.8a6.7,6.7,0,0,1,3.012,4.917H67.4ZM65.969,4.428a.047.047,0,0,1-.048-.047V1.429a.048.048,0,0,1,.048-.048h1.476a.048.048,0,0,1,.048.048V4.381a.048.048,0,0,1-.048.048Zm5.167,14.667a.048.048,0,0,1,.048.048v1.476a.048.048,0,0,1-.048.048H69.66a.691.691,0,0,0,0,1.381h.748l-.626,11.9A.785.785,0,0,1,69,34.69H58.513a.785.785,0,0,1-.785-.744l-.238-4.517h4.05A1.43,1.43,0,0,0,62.969,28V22.047h3.738a.691.691,0,1,0,0-1.381H62.969V19.095h8.166Zm-7.381-7.381a6.659,6.659,0,0,1,2.262.394v5.605H57.1A6.7,6.7,0,0,1,63.755,11.714ZM56.374,28.047A.048.048,0,0,1,56.327,28V19.1h5.262V28a.048.048,0,0,1-.048.048Zm-8.166-5.9V20.571h3a.786.786,0,0,1,.786.786v.786H48.208Zm-1.476,7.333a3,3,0,0,1,3-3,.691.691,0,0,0,.691-.691V23.523h1.571V33.9a.787.787,0,0,1-.786.786h-3.69a.787.787,0,0,1-.786-.786ZM43.779,43.5V41.346a2.262,2.262,0,1,1-1.381,0V43.5a.691.691,0,1,0,1.381,0Zm25.095,0V41.346a2.262,2.262,0,1,1-1.381,0V43.5a.691.691,0,1,0,1.381,0Zm3.047-5.9a.048.048,0,0,1-.048.048h-31a.048.048,0,0,1-.048-.048V36.118a.048.048,0,0,1,.048-.048h31a.048.048,0,0,1,.048.048Z" transform="translate(-32.065 0)" fill="#7d8c48"/></g></g></g></svg>