<svg xmlns="http://www.w3.org/2000/svg" width="59.127" height="70.099" viewBox="0 0 59.127 70.099"><g transform="translate(-5.002 0.008)"><g transform="translate(5.002 13.143)"><g transform="translate(52.552 41.617)"><path d="M54.089,60.958a1.1,1.1,0,1,1,0-2.19,3.285,3.285,0,1,0,0-6.57,1.1,1.1,0,1,1,0-2.19,5.475,5.475,0,0,1,0,10.95Z" transform="translate(-52.994 -50.008)" fill="#c5a07a"/></g><g transform="translate(4.369 45.997)"><path d="M12.277,60.578a3.285,3.285,0,0,1,0-6.57,1.1,1.1,0,1,1,0,2.19,1.1,1.1,0,1,0,0,2.19,1.1,1.1,0,1,1,0,2.19Z" transform="translate(-8.992 -54.008)" fill="#c5a07a"/></g><g transform="translate(0 41.62)"><path d="M12.667,65.338a7.664,7.664,0,1,1,0-15.328,1.1,1.1,0,0,1,0,2.19,5.474,5.474,0,1,0,0,10.948,1.1,1.1,0,1,1,0,2.19Z" transform="translate(-5.002 -50.01)" fill="#c5a07a"/></g><path d="M6.1,20.76a1.094,1.094,0,0,1-1.1-1.1A7.674,7.674,0,0,1,12.667,12a1.1,1.1,0,0,1,0,2.19,5.48,5.48,0,0,0-5.475,5.473A1.094,1.094,0,0,1,6.1,20.76Z" transform="translate(-5.002 -12.002)" fill="#c5a07a"/><g transform="translate(6.559 45.997)"><path d="M58.08,56.2H12.087a1.1,1.1,0,0,1,0-2.19H58.08a1.1,1.1,0,1,1,0,2.19Z" transform="translate(-10.992 -54.008)" fill="#c5a07a"/></g><g transform="translate(6.568 41.617)"><path d="M58.079,52.2H12.1a1.1,1.1,0,0,1,0-2.19H58.079a1.1,1.1,0,1,1,0,2.19Z" transform="translate(-11 -50.008)" fill="#c5a07a"/></g><g transform="translate(6.559 50.378)"><path d="M58.08,60.2H12.087a1.1,1.1,0,1,1,0-2.19H58.08a1.1,1.1,0,1,1,0,2.19Z" transform="translate(-10.992 -58.008)" fill="#c5a07a"/></g><g transform="translate(6.559 54.758)"><path d="M58.08,64.2H12.087a1.1,1.1,0,1,1,0-2.19H58.08a1.1,1.1,0,1,1,0,2.19Z" transform="translate(-10.992 -62.008)" fill="#c5a07a"/></g><g transform="translate(52.552 50.378)"><path d="M54.089,64.578a1.094,1.094,0,0,1-1.1-1.1V59.1a1.1,1.1,0,0,1,2.19,0v4.38A1.094,1.094,0,0,1,54.089,64.578Z" transform="translate(-52.994 -58.008)" fill="#c5a07a"/></g><g transform="translate(0 6.568)"><path d="M6.1,61.81a1.094,1.094,0,0,1-1.1-1.1V19.1a1.1,1.1,0,0,1,2.19,0v41.62A1.094,1.094,0,0,1,6.1,61.81Z" transform="translate(-5.002 -18)" fill="#c5a07a"/></g><g transform="translate(50.367)"><path d="M58.663,20.76a1.094,1.094,0,0,1-1.1-1.1,5.48,5.48,0,0,0-5.475-5.473,1.1,1.1,0,1,1,0-2.19,7.674,7.674,0,0,1,7.665,7.663A1.094,1.094,0,0,1,58.663,20.76Z" transform="translate(-50.998 -12.002)" fill="#c5a07a"/></g><g transform="translate(56.937 6.568)"><path d="M58.093,59.62a1.094,1.094,0,0,1-1.1-1.1V19.1a1.1,1.1,0,0,1,2.19,0V58.525A1.094,1.094,0,0,1,58.093,59.62Z" transform="translate(-56.998 -18)" fill="#c5a07a"/></g></g><g transform="translate(11.579 -0.008)"><g transform="translate(39.399 41.598)"><path d="M48.083,48.93a1.1,1.1,0,1,1,0-2.19,3.285,3.285,0,1,0,0-6.57,1.1,1.1,0,1,1,0-2.19,5.475,5.475,0,1,1,0,10.95Z" transform="translate(-46.988 -37.98)" fill="#c5a07a"/></g><g transform="translate(4.369 45.978)"><path d="M18.283,48.55a3.285,3.285,0,1,1,0-6.57,1.1,1.1,0,0,1,0,2.19,1.1,1.1,0,1,0,0,2.19,1.1,1.1,0,1,1,0,2.19Z" transform="translate(-14.998 -41.98)" fill="#c5a07a"/></g><g transform="translate(0 41.599)"><path d="M18.673,53.309a7.664,7.664,0,1,1,0-15.328,1.1,1.1,0,0,1,0,2.19,5.474,5.474,0,1,0,0,10.948,1.1,1.1,0,0,1,0,2.19Z" transform="translate(-11.008 -37.981)" fill="#c5a07a"/></g><g transform="translate(0 0)"><path d="M12.1,8.752a1.094,1.094,0,0,1-1.1-1.1A7.675,7.675,0,0,1,18.673-.008a1.1,1.1,0,1,1,0,2.19A5.481,5.481,0,0,0,13.2,7.657a1.094,1.094,0,0,1-1.1,1.1Z" transform="translate(-11.008 0.008)" fill="#c5a07a"/></g><g transform="translate(6.559 45.978)"><path d="M50.933,44.17H18.093a1.1,1.1,0,0,1,0-2.19h32.84a1.1,1.1,0,1,1,0,2.19Z" transform="translate(-16.998 -41.98)" fill="#c5a07a"/></g><g transform="translate(6.568 41.598)"><path d="M50.932,40.17H18.1a1.1,1.1,0,0,1,0-2.19H50.932a1.1,1.1,0,0,1,0,2.19Z" transform="translate(-17.006 -37.98)" fill="#c5a07a"/></g><g transform="translate(6.559 50.358)"><path d="M50.933,48.17H18.093a1.1,1.1,0,0,1,0-2.19h32.84a1.1,1.1,0,1,1,0,2.19Z" transform="translate(-16.998 -45.98)" fill="#c5a07a"/></g><g transform="translate(6.559 54.737)"><path d="M50.933,52.169H18.093a1.1,1.1,0,1,1,0-2.19h32.84a1.1,1.1,0,0,1,0,2.19Z" transform="translate(-16.998 -49.979)" fill="#c5a07a"/></g><g transform="translate(39.399 50.358)"><path d="M48.083,52.549a1.094,1.094,0,0,1-1.1-1.1V47.075a1.1,1.1,0,0,1,2.19,0v4.378A1.1,1.1,0,0,1,48.083,52.549Z" transform="translate(-46.988 -45.98)" fill="#c5a07a"/></g><g transform="translate(0 6.57)"><path d="M12.1,49.78a1.094,1.094,0,0,1-1.1-1.1V7.087a1.1,1.1,0,1,1,2.19,0v41.6A1.094,1.094,0,0,1,12.1,49.78Z" transform="translate(-11.008 -5.992)" fill="#c5a07a"/></g><g transform="translate(37.213 0)"><path d="M52.657,8.752a1.094,1.094,0,0,1-1.1-1.1,5.481,5.481,0,0,0-5.475-5.475,1.1,1.1,0,1,1,0-2.19,7.675,7.675,0,0,1,7.665,7.665A1.094,1.094,0,0,1,52.657,8.752Z" transform="translate(-44.992 0.008)" fill="#c5a07a"/></g><g transform="translate(43.783 6.57)"><path d="M52.087,47.59a1.094,1.094,0,0,1-1.1-1.1V7.087a1.1,1.1,0,0,1,2.19,0V46.495A1.094,1.094,0,0,1,52.087,47.59Z" transform="translate(-50.992 -5.992)" fill="#c5a07a"/></g><g transform="translate(6.57)"><path d="M48.746,2.182H18.1a1.1,1.1,0,1,1,0-2.19H48.746a1.1,1.1,0,1,1,0,2.19Z" transform="translate(-17.008 0.008)" fill="#c5a07a"/></g></g></g></svg>