<svg xmlns="http://www.w3.org/2000/svg" xmlns:xlink="http://www.w3.org/1999/xlink" width="102" height="102" viewBox="0 0 102 102"><defs><filter id="a" x="0" y="0" width="102" height="102" filterUnits="userSpaceOnUse"><feOffset dy="3" input="SourceAlpha"/><feGaussianBlur stdDeviation="3" result="b"/><feFlood flood-opacity="0.161"/><feComposite operator="in" in2="b"/><feComposite in="SourceGraphic"/></filter></defs><g transform="translate(-593 -4536.904)"><g transform="translate(602 4542.904)"><g transform="matrix(1, 0, 0, 1, -9, -6)" filter="url(#a)"><circle cx="42" cy="42" r="42" transform="translate(9 6)" fill="#fff"/></g></g><g transform="translate(618.348 4560)"><path d="M6,36h4.8v1.6H6Z" transform="translate(-0.8 -6.8)" fill="#7d8c48"/><path d="M18,36h1.6v1.6H18Z" transform="translate(-3.2 -6.8)" fill="#7d8c48"/><path d="M27,36h1.6v1.6H27Z" transform="translate(-5 -6.8)" fill="#7d8c48"/><path d="M31,36h1.6v1.6H31Z" transform="translate(-5.8 -6.8)" fill="#7d8c48"/><path d="M38,56h1.6v1.6H38Z" transform="translate(-7.2 -10.8)" fill="#7d8c48"/><path d="M6,56H7.6v1.6H6Z" transform="translate(-0.8 -10.8)" fill="#7d8c48"/><path d="M11.6,52.2A5.6,5.6,0,1,0,6,46.6a5.6,5.6,0,0,0,5.6,5.6Zm0-9.6a4,4,0,1,1-4,4,4,4,0,0,1,4-4Z" transform="translate(-0.8 -7.8)" fill="#7d8c48"/><path d="M31.6,52.2A5.6,5.6,0,1,0,26,46.6a5.6,5.6,0,0,0,5.6,5.6Zm0-9.6a4,4,0,1,1-4,4,4,4,0,0,1,4-4Z" transform="translate(-4.8 -7.8)" fill="#7d8c48"/><path d="M12.4,50.4V48.8a.8.8,0,0,1-.8-.8H10A2.4,2.4,0,0,0,12.4,50.4Z" transform="translate(-1.6 -9.2)" fill="#7d8c48"/><path d="M32.4,50.4V48.8a.8.8,0,0,1-.8-.8H30A2.4,2.4,0,0,0,32.4,50.4Z" transform="translate(-5.6 -9.2)" fill="#7d8c48"/><path d="M49.2,2H2.8a.8.8,0,0,0-.8.8V49.2a.8.8,0,0,0,.8.8H49.2a.8.8,0,0,0,.8-.8V2.8A.8.8,0,0,0,49.2,2ZM3.6,21.2H34v1.6H3.6Zm4-6.4h9.6a.8.8,0,0,1,0,1.6H7.6a.8.8,0,1,1,0-1.6Zm-.8-2.4a.8.8,0,0,1,.8-.8h9.6a.8.8,0,0,1,0,1.6H7.6A.8.8,0,0,1,6.8,12.4ZM7.6,18h9.6a.8.8,0,0,1,0,1.6H7.6a.8.8,0,1,1,0-1.6Zm20-4.8v1.6H25.2a.8.8,0,0,0-.8.8v4H22.8V13.2Zm-4.8-1.6V10h4.8v1.6Zm4.8,4.8v3.2H26V16.4ZM34,13.2v6.4H29.2V13.2Zm-4.8-1.6V10H34v1.6ZM18,48.4H3.6V27.6H18ZM34,29.2H30.8v1.6H34V48.4H19.6V27.6H34Zm14.4,12H46.8v1.6h1.6v5.6H38.8V46h1.6V44.4H38.8V39.6h9.6Zm0-3.2H38a.8.8,0,0,0-.8.8v9.6H35.6V26.8a.8.8,0,0,0-.8-.8H3.6V24.4H34.8a.8.8,0,0,0,.8-.8V9.2a.8.8,0,0,0-.8-.8H22a.8.8,0,0,0-.8.8V19.6H19.453a2.326,2.326,0,0,0-.48-2.4,2.363,2.363,0,0,0,0-3.2A2.39,2.39,0,0,0,17.2,10H7.6a2.39,2.39,0,0,0-1.776,4,2.363,2.363,0,0,0,0,3.2,2.326,2.326,0,0,0-.48,2.4H3.6V6.8H42.8V8.772l-4.465,2.977A2.72,2.72,0,0,0,37.2,14V35.6a.8.8,0,0,0,.8.8H48.4Zm0-3.2H38.8V14a1.136,1.136,0,0,1,.444-.934L43.6,10.16l4.335,2.89A1.144,1.144,0,0,1,48.4,14Zm0-23.36-4-2.666V6.8h4Zm0-6.24H3.6V3.6H48.4Z" fill="#7d8c48"/><path d="M38,18h1.6v3.2H38Z" transform="translate(-7.2 -3.2)" fill="#7d8c48"/><path d="M50,51h1.6v1.6H50Z" transform="translate(-9.6 -9.8)" fill="#7d8c48"/><path d="M54,51h1.6v1.6H54Z" transform="translate(-10.4 -9.8)" fill="#7d8c48"/><path d="M52,55h1.6v1.6H52Z" transform="translate(-10 -10.6)" fill="#7d8c48"/><path d="M56,55h1.6v1.6H56Z" transform="translate(-10.8 -10.6)" fill="#7d8c48"/><path d="M53,15h1.6V34.2H53Z" transform="translate(-10.2 -2.6)" fill="#7d8c48"/></g></g></svg>