<svg xmlns="http://www.w3.org/2000/svg" xmlns:xlink="http://www.w3.org/1999/xlink" width="102" height="102" viewBox="0 0 102 102"><defs><filter id="a" x="0" y="0" width="102" height="102" filterUnits="userSpaceOnUse"><feOffset dy="3" input="SourceAlpha"/><feGaussianBlur stdDeviation="3" result="b"/><feFlood flood-opacity="0.161"/><feComposite operator="in" in2="b"/><feComposite in="SourceGraphic"/></filter></defs><g transform="translate(-1008.348 -4577)"><g transform="translate(1017.348 4583)"><g transform="matrix(1, 0, 0, 1, -9, -6)" filter="url(#a)"><circle cx="42" cy="42" r="42" transform="translate(9 6)" fill="#fff"/></g></g><g transform="translate(1023.468 4579.789)"><g transform="translate(8.88 24.211)"><path d="M125.408,44.924a.6.6,0,0,1-.6-.6V24.848a.6.6,0,1,1,1.2,0V44.325A.6.6,0,0,1,125.408,44.924Z" transform="translate(-85.805 -24.236)" fill="#7d8c48" fill-rule="evenodd"/><path d="M21.61,44.924a.6.6,0,0,1-.6-.6V24.848a.6.6,0,1,1,1.2,0V44.325A.6.6,0,0,1,21.61,44.924Z" transform="translate(-16.929 -24.236)" fill="#7d8c48" fill-rule="evenodd"/><path d="M49.48,75.267a.6.6,0,0,1-.6-.6V72.442a1.169,1.169,0,0,0-.983-1.269H43.28a1.155,1.155,0,0,0-.983,1.269v2.224a.6.6,0,0,1-1.2,0V72.442a2.341,2.341,0,0,1,2.182-2.468H47.9a2.341,2.341,0,0,1,2.182,2.468v2.225a.6.6,0,0,1-.6.6Z" transform="translate(-30.259 -54.577)" fill="#7d8c48" fill-rule="evenodd"/><path d="M90.007,75.267a.6.6,0,0,1-.6-.6V72.442a1.169,1.169,0,0,0-.983-1.269H83.809a1.155,1.155,0,0,0-.984,1.269v2.224a.6.6,0,0,1-1.2,0V72.442a2.342,2.342,0,0,1,2.183-2.468h4.616a2.341,2.341,0,0,1,2.182,2.468v2.225A.6.6,0,0,1,90.007,75.267Z" transform="translate(-57.151 -54.577)" fill="#7d8c48" fill-rule="evenodd"/><path d="M11.063,100.889a1.783,1.783,0,0,1-.292-.019A2.205,2.205,0,0,1,8.88,98.694V86.963c0-2.66,1.667-4.824,3.717-4.824h36.85A3.38,3.38,0,0,1,52.1,83.578a.6.6,0,1,1-.955.724,2.173,2.173,0,0,0-1.7-.964H12.6c-1.389,0-2.518,1.627-2.518,3.625V98.694a1,1,0,0,0,.862.988l.018,0a.753.753,0,0,0,.1,0,.976.976,0,0,0,.952-.736l.716-2.721a1.429,1.429,0,0,1,1.388-1.065h30.4a.6.6,0,0,1,0,1.2H14.12a.229.229,0,0,0-.228.169l-.715,2.716a2.173,2.173,0,0,1-2.114,1.637Z" transform="translate(-8.88 -62.649)" fill="#7d8c48" fill-rule="evenodd"/><path d="M56.533,29.527H53.879a7.409,7.409,0,0,1-5.047-2.1,7.125,7.125,0,0,0-4.484-2.018H33.771a7.124,7.124,0,0,0-4.484,2.019,7.412,7.412,0,0,1-5.047,2.1H21.61a.6.6,0,1,1,0-1.2H24.24a6.23,6.23,0,0,0,4.234-1.781,8.357,8.357,0,0,1,5.3-2.336H44.348a8.357,8.357,0,0,1,5.3,2.336,6.23,6.23,0,0,0,4.234,1.781h2.653a.6.6,0,0,1,0,1.2Z" transform="translate(-16.929 -24.211)" fill="#7d8c48" fill-rule="evenodd"/><path d="M59.448,59.779a.6.6,0,0,1-.6-.6V47.833H31.123V59.179a.6.6,0,0,1-1.2,0V47.233a.6.6,0,0,1,.6-.6H59.448a.6.6,0,0,1,.6.6V59.179A.6.6,0,0,1,59.448,59.779Z" transform="translate(-22.844 -39.09)" fill="#7d8c48" fill-rule="evenodd"/><path d="M51.624,107.6H9.479a.6.6,0,1,1,0-1.2H51.624a.6.6,0,0,1,0,1.2Z" transform="translate(-8.88 -78.748)" fill="#7d8c48" fill-rule="evenodd"/><path d="M51.624,96.743H9.479a.6.6,0,1,1,0-1.2H51.624a.6.6,0,0,1,0,1.2Z" transform="translate(-8.88 -71.544)" fill="#7d8c48" fill-rule="evenodd"/><path d="M130.22,132.27H117.571a1.187,1.187,0,0,1-.867-.38,1.174,1.174,0,0,1-.313-.882l.524-6.761a.6.6,0,1,1,1.195.093l-.521,6.733,12.615,0-.521-6.731a.6.6,0,1,1,1.195-.093l.524,6.758a1.178,1.178,0,0,1-1.18,1.265Z" transform="translate(-80.217 -90.224)" fill="#7d8c48" fill-rule="evenodd"/><path d="M114.809,117.325a.651.651,0,0,0-.651.65v.048a.651.651,0,0,0,.65.65h13.647a.651.651,0,0,0,.651-.65v-.048a.651.651,0,0,0-.651-.65Zm13.647,2.546H114.809a1.851,1.851,0,0,1-1.85-1.849v-.048a1.851,1.851,0,0,1,1.85-1.849h13.647a1.851,1.851,0,0,1,1.85,1.849v.048A1.851,1.851,0,0,1,128.456,119.871Z" transform="translate(-77.943 -85.202)" fill="#7d8c48" fill-rule="evenodd"/><path d="M128.059,136.893a.6.6,0,0,1-.6-.6V131.26a.6.6,0,1,1,1.2,0v5.034A.6.6,0,0,1,128.059,136.893Z" transform="translate(-87.564 -94.847)" fill="#7d8c48" fill-rule="evenodd"/><path d="M137.539,136.893a.6.6,0,0,1-.6-.6V131.26a.6.6,0,1,1,1.2,0v5.034A.6.6,0,0,1,137.539,136.893Z" transform="translate(-93.855 -94.847)" fill="#7d8c48" fill-rule="evenodd"/><path d="M147.052,136.893a.6.6,0,0,1-.6-.6V131.26a.6.6,0,1,1,1.2,0v5.034A.6.6,0,0,1,147.052,136.893Z" transform="translate(-100.167 -94.847)" fill="#7d8c48" fill-rule="evenodd"/><path d="M137.291,90.455a.6.6,0,0,1-.6-.6V77.5a.661.661,0,0,0-.673-.673.674.674,0,0,0-.673.673V89.855a.6.6,0,0,1-1.2,0V77.5a1.872,1.872,0,1,1,3.745,0V89.855a.6.6,0,0,1-.6.6Z" transform="translate(-92.001 -58.332)" fill="#7d8c48" fill-rule="evenodd"/><path d="M134.44,52.525h0Zm-.422,1.059.779.578a.58.58,0,0,1,.139.146l.281.414.287-.418a.611.611,0,0,1,.137-.142l.779-.578-.779-.578a.585.585,0,0,1-.138-.144l-.286-.421-.279.416a.6.6,0,0,1-.142.148Zm1.195,2.8h0a.6.6,0,0,1-.494-.263L134,55.064l-1.346-1a.6.6,0,0,1,0-.964l1.345-1,.716-1.068a.6.6,0,0,1,.5-.265h0a.6.6,0,0,1,.5.262l.728,1.07,1.347,1a.6.6,0,0,1,0,.964l-1.348,1-.729,1.06a.6.6,0,0,1-.494.26Z" transform="translate(-90.851 -41.835)" fill="#7d8c48" fill-rule="evenodd"/><path d="M149.435,72.784l.782.58a.593.593,0,0,1,.137.142l.287.418.281-.414a.6.6,0,0,1,.139-.146l.782-.58-.785-.589a.6.6,0,0,1-.136-.144l-.281-.414-.287.418a.588.588,0,0,1-.134.139Zm1.211,2.8a.6.6,0,0,1-.494-.26l-.728-1.06-1.348-1a.6.6,0,0,1,0-.961l1.349-1.013.73-1.061a.6.6,0,0,1,.494-.26h0a.6.6,0,0,1,.494.263l.717,1.06,1.347,1.011a.6.6,0,0,1,0,.961l-1.346,1-.716,1.058a.6.6,0,0,1-.494.263h0Z" transform="translate(-101.083 -54.577)" fill="#7d8c48" fill-rule="evenodd"/><path d="M149.438,36.537l.778.578a.592.592,0,0,1,.137.142l.287.418.281-.414a.6.6,0,0,1,.139-.146l.779-.578-.779-.577a.636.636,0,0,1-.142-.148l-.279-.417-.285.421a.635.635,0,0,1-.14.145Zm1.206,2.8a.6.6,0,0,1-.494-.26l-.729-1.06-1.348-1a.6.6,0,0,1,0-.963l1.347-1,.729-1.07a.6.6,0,0,1,.5-.262h0a.6.6,0,0,1,.5.265l.716,1.069,1.345,1a.6.6,0,0,1,0,.963l-1.346,1-.716,1.058a.6.6,0,0,1-.494.263h0Z" transform="translate(-101.083 -30.524)" fill="#7d8c48" fill-rule="evenodd"/></g></g></g></svg>