<svg xmlns="http://www.w3.org/2000/svg" width="62.999" height="63" viewBox="0 0 62.999 63"><g transform="translate(-7.7 -7.95)"><g transform="translate(19.165 20.645)"><path d="M104.745,141.769a3.768,3.768,0,0,1-2.672-1.105l-7.486-7.486a3.779,3.779,0,0,1,0-5.344l24.6-24.6a1.026,1.026,0,0,1,1.452,1.452l-24.6,24.6a1.723,1.723,0,0,0,0,2.441l7.486,7.486a1.728,1.728,0,0,0,2.442,0l24.6-24.6a1.026,1.026,0,0,1,1.452,1.452l-24.6,24.605A3.766,3.766,0,0,1,104.745,141.769Z" transform="translate(-93.48 -102.93)" fill="#c5a07a"/></g><g transform="translate(42.129 14.013)"><path d="M283.81,75.817a3.959,3.959,0,0,1-2.82-1.168l-14.531-14.53a3.988,3.988,0,1,1,5.64-5.64L286.63,69.01a3.986,3.986,0,0,1-2.82,6.807ZM269.278,55.362a1.936,1.936,0,0,0-1.369,3.3L282.441,73.2a1.937,1.937,0,0,0,2.739-2.739l-14.533-14.53A1.924,1.924,0,0,0,269.278,55.362Z" transform="translate(-265.29 -53.31)" fill="#c5a07a"/></g><g transform="translate(51.896 7.95)"><path d="M344.5,26.755a1.021,1.021,0,0,1-.726-.3L338.66,21.34a1.027,1.027,0,0,1-.119-1.31l3.452-5-.277-.275a3.989,3.989,0,0,1,5.642-5.64L356,17.755a3.989,3.989,0,1,1-5.642,5.64l-.275-.275-5,3.452A1.014,1.014,0,0,1,344.5,26.755Zm-3.783-6.261,3.9,3.9,5-3.452a1.028,1.028,0,0,1,1.31.119l.881.881a1.936,1.936,0,1,0,2.739-2.737l-8.638-8.638a1.936,1.936,0,0,0-2.737,2.737l.881.881a1.027,1.027,0,0,1,.119,1.31Z" transform="translate(-338.359 -7.95)" fill="#c5a07a"/></g><g transform="translate(7.7 62.984)"><path d="M8.727,427.666A1.026,1.026,0,0,1,8,425.914L13.914,420a1.026,1.026,0,0,1,1.452,1.452l-5.913,5.913A1.022,1.022,0,0,1,8.727,427.666Z" transform="translate(-7.7 -419.7)" fill="#c5a07a"/></g><g transform="translate(40.849 24.369)"><path d="M260.669,136.774a1.024,1.024,0,0,1-.726-.3l-3.932-3.931a1.026,1.026,0,0,1,1.452-1.452l3.932,3.931a1.027,1.027,0,0,1-.726,1.752Z" transform="translate(-255.71 -130.79)" fill="#c5a07a"/></g><g transform="translate(37.665 27.552)"><path d="M234.883,158.628a1.024,1.024,0,0,1-.726-.3l-1.966-1.965a1.026,1.026,0,1,1,1.452-1.452l1.966,1.965a1.026,1.026,0,0,1-.726,1.752Z" transform="translate(-231.89 -154.61)" fill="#c5a07a"/></g><g transform="translate(34.483 30.736)"><path d="M211.073,182.448a1.024,1.024,0,0,1-.726-.3l-1.966-1.965a1.026,1.026,0,0,1,1.452-1.452L211.8,180.7a1.027,1.027,0,0,1-.726,1.752Z" transform="translate(-208.08 -178.43)" fill="#c5a07a"/></g><g transform="translate(31.298 33.919)"><path d="M189.209,208.224a1.024,1.024,0,0,1-.726-.3l-3.932-3.931A1.026,1.026,0,1,1,186,202.541l3.932,3.931a1.027,1.027,0,0,1-.726,1.752Z" transform="translate(-184.25 -202.24)" fill="#c5a07a"/></g><g transform="translate(28.115 37.102)"><path d="M163.433,230.078a1.024,1.024,0,0,1-.726-.3l-1.966-1.965a1.026,1.026,0,0,1,1.452-1.452l1.966,1.965a1.027,1.027,0,0,1-.726,1.752Z" transform="translate(-160.44 -226.06)" fill="#c5a07a"/></g><g transform="translate(24.931 40.286)"><path d="M139.613,253.9a1.024,1.024,0,0,1-.726-.3l-1.966-1.965a1.026,1.026,0,0,1,1.452-1.452l1.966,1.965a1.027,1.027,0,0,1-.726,1.752Z" transform="translate(-136.62 -249.88)" fill="#c5a07a"/></g><g transform="translate(21.748 43.47)"><path d="M117.759,279.683a1.024,1.024,0,0,1-.726-.3l-3.932-3.93A1.026,1.026,0,0,1,114.552,274l3.932,3.93a1.027,1.027,0,0,1-.726,1.752Z" transform="translate(-112.8 -273.7)" fill="#c5a07a"/></g><g transform="translate(18.288 51.099)"><path d="M91.515,340.043a1.022,1.022,0,0,1-.726-.3l-3.569-3.569a1.026,1.026,0,0,1,0-1.452l3.641-3.641a1.026,1.026,0,0,1,1.452,0l3.569,3.569a1.026,1.026,0,0,1,0,1.452l-3.641,3.641A1.024,1.024,0,0,1,91.515,340.043Zm-2.117-4.6,2.117,2.117,2.189-2.189-2.117-2.117Z" transform="translate(-86.92 -330.78)" fill="#c5a07a"/></g><g transform="translate(16.611 53.064)"><path d="M82.319,354.455a1.022,1.022,0,0,1-.726-.3l-6.922-6.922a1.026,1.026,0,1,1,1.452-1.452l6.922,6.922a1.026,1.026,0,0,1-.726,1.752Z" transform="translate(-74.37 -345.48)" fill="#c5a07a"/></g><g transform="translate(12.955 54.741)"><path d="M50.13,368.978a2.872,2.872,0,0,1-2.033-.838l-.239-.239a2.88,2.88,0,0,1-.135-3.916l4.881-5.607a1.027,1.027,0,0,1,1.5-.051l3.569,3.569a1.029,1.029,0,0,1-.052,1.5l-5.607,4.881A2.871,2.871,0,0,1,50.13,368.978Zm3.3-8.423-4.159,4.778a.812.812,0,0,0,.039,1.117l.238.239a.812.812,0,0,0,1.117.039l4.777-4.159Z" transform="translate(-47.019 -358.026)" fill="#c5a07a"/></g></g></svg>