<svg xmlns="http://www.w3.org/2000/svg" width="88" height="88" viewBox="0 0 88 88"><g transform="translate(-605.348 -5697)"><circle cx="44" cy="44" r="44" transform="translate(605.348 5697)" fill="#dee4f0"/><g transform="translate(607.681 5699.333)"><path d="M33.967,319.4H30.544v-1.711h6.844a.856.856,0,0,0,.856-.855V304.855a.856.856,0,0,0-.856-.856H16.856a.856.856,0,0,0-.856.856v11.978a.856.856,0,0,0,.856.856H23.7V319.4H20.278a.856.856,0,0,0-.856.855v3.422a.856.856,0,0,0,.856.856H33.967a.856.856,0,0,0,.856-.855v-3.422a.856.856,0,0,0-.856-.856ZM17.711,305.711H36.533v10.267H17.711Zm7.7,11.978h3.422V319.4H25.411Zm7.7,5.133H21.133v-1.711H33.111Z" transform="translate(0 -257.2)" fill="#7d8c48"/><path d="M208,480h5.133v1.711H208Z" transform="translate(-171.467 -414.378)" fill="#7d8c48"/><path d="M312,184h1.711v2.567H312Z" transform="translate(-264.345 -150.033)" fill="#7d8c48"/><path d="M89.711,31.4h20.533V29.689H89.711V17.711h22.244v.856h1.711V16.856a.856.856,0,0,0-.856-.856H88.856a.856.856,0,0,0-.856.856V45.089h1.711Z" transform="translate(-64.3 0)" fill="#7d8c48"/><path d="M120,64h1.711v5.133H120Z" transform="translate(-92.878 -42.867)" fill="#7d8c48"/><path d="M120,184h1.711v5.989H120Z" transform="translate(-92.878 -150.033)" fill="#7d8c48"/><path d="M293.389,224H272.855a.856.856,0,0,0-.856.856v27.378a.856.856,0,0,0,.856.856h20.533a.856.856,0,0,0,.856-.855V224.856a.856.856,0,0,0-.855-.856Zm-.856,4.278h-2.567v-2.567h2.567Zm-16.255-2.567v2.567h-2.567v-2.567Zm-2.567,4.278h3.422a.856.856,0,0,0,.856-.855v-3.422h10.267v3.422a.856.856,0,0,0,.855.856h3.422V247.1h-3.422a.856.856,0,0,0-.856.856v3.422H273.711Zm16.255,21.389v-2.567h2.567v2.567Z" transform="translate(-228.622 -185.756)" fill="#7d8c48"/><path d="M313.111,288.555a8.555,8.555,0,1,0-8.556,8.555A8.555,8.555,0,0,0,313.111,288.555Zm-15.4,0a6.844,6.844,0,1,1,6.844,6.844A6.844,6.844,0,0,1,297.711,288.555Z" transform="translate(-250.056 -235.767)" fill="#7d8c48"/><path d="M331.978,309.989a5.989,5.989,0,1,0-5.989,5.989A5.989,5.989,0,0,0,331.978,309.989Zm-1.711,0a4.274,4.274,0,0,1-6.417,3.7,5.978,5.978,0,0,0,0-7.4,4.274,4.274,0,0,1,6.417,3.7Zm-8.555,0a4.256,4.256,0,0,1,.856-2.564,4.27,4.27,0,0,1,0,5.128A4.255,4.255,0,0,1,321.711,309.989Z" transform="translate(-271.489 -257.2)" fill="#7d8c48"/><path d="M314.267,36.533A10.267,10.267,0,1,0,304,26.267a10.267,10.267,0,0,0,10.267,10.267Zm0-18.822a8.556,8.556,0,1,1-8.556,8.556,8.555,8.555,0,0,1,8.556-8.556Z" transform="translate(-257.2 0)" fill="#7d8c48"/><path d="M349.514,75.5a.853.853,0,0,0,.605-.251l7.7-7.7-1.21-1.21-7.095,7.1-1.962-1.962-1.21,1.21,2.567,2.567a.853.853,0,0,0,.6.251Z" transform="translate(-295.014 -44.959)" fill="#7d8c48"/></g></g></svg>