<svg xmlns="http://www.w3.org/2000/svg" width="124" height="124" viewBox="0 0 124 124"><g transform="translate(-789 -1325.553)"><circle cx="62" cy="62" r="62" transform="translate(789 1325.553)" fill="#b8dcf3"/><g transform="translate(797.727 1347.474)"><path d="M67.064,5.25H39.481A4.236,4.236,0,0,0,35.25,9.481v65.2a4.236,4.236,0,0,0,4.231,4.231H67.064A4.237,4.237,0,0,0,71.3,74.678V9.481A4.236,4.236,0,0,0,67.064,5.25ZM39.481,7.444H67.064A2.04,2.04,0,0,1,69.1,9.481v23.6a5.454,5.454,0,0,0-3.291-1.107H64.346v-.429a4.236,4.236,0,0,0-4.231-4.231H58.6a7.566,7.566,0,0,0,2.043-3.653h4.483a1.1,1.1,0,0,0,1.1-1.1V11.425a1.1,1.1,0,0,0-1.1-1.1h-23.7a1.1,1.1,0,0,0-1.1,1.1V22.563a1.1,1.1,0,0,0,1.1,1.1h4.482a7.566,7.566,0,0,0,2.043,3.653H46.432A4.236,4.236,0,0,0,42.2,31.545v.432H40.735a5.454,5.454,0,0,0-3.291,1.107V9.481A2.04,2.04,0,0,1,39.481,7.444Zm4.913,24.533v-.429a2.04,2.04,0,0,1,2.037-2.037H60.114a2.04,2.04,0,0,1,2.037,2.037v.432Zm3.5-10.04a5.377,5.377,0,1,1,5.377,5.377A5.377,5.377,0,0,1,47.9,21.936Zm-5.373-.47V12.524h21.5v8.943H60.82a7.561,7.561,0,0,0-15.094,0ZM69.1,74.678a2.04,2.04,0,0,1-2.037,2.037H39.481a2.04,2.04,0,0,1-2.037-2.037V37.462a3.3,3.3,0,0,1,3.291-3.291H65.811A3.3,3.3,0,0,1,69.1,37.462Z" fill="#20849e"/><path d="M68.143,62.157h-23.7a1.1,1.1,0,0,0,0,2.194h23.7a1.1,1.1,0,1,0,0-2.194Z" transform="translate(-3.022 -21.233)" fill="#20849e"/><path d="M68.143,76.431h-23.7a1.1,1.1,0,0,0,0,2.194h23.7a1.1,1.1,0,1,0,0-2.194Z" transform="translate(-3.022 -26.559)" fill="#20849e"/><path d="M68.143,90.7h-23.7a1.1,1.1,0,1,0,0,2.194h23.7a1.1,1.1,0,1,0,0-2.194Z" transform="translate(-3.022 -31.883)" fill="#20849e"/><path d="M68.143,104.977h-23.7a1.1,1.1,0,0,0,0,2.194h23.7a1.1,1.1,0,1,0,0-2.194Z" transform="translate(-3.022 -37.21)" fill="#20849e"/></g></g></svg>