<svg xmlns="http://www.w3.org/2000/svg" xmlns:xlink="http://www.w3.org/1999/xlink" width="102" height="102" viewBox="0 0 102 102"><defs><filter id="a" x="0" y="0" width="102" height="102" filterUnits="userSpaceOnUse"><feOffset dy="3" input="SourceAlpha"/><feGaussianBlur stdDeviation="3" result="b"/><feFlood flood-opacity="0.161"/><feComposite operator="in" in2="b"/><feComposite in="SourceGraphic"/></filter></defs><g transform="translate(-177.972 -1608.324)"><g transform="translate(186.972 1614.324)"><g transform="matrix(1, 0, 0, 1, -9, -6)" filter="url(#a)"><circle cx="42" cy="42" r="42" transform="translate(9 6)" fill="#e3f1fa"/></g></g><g transform="translate(204.338 1631.666)"><path d="M43.674,29.519V18.794a2.142,2.142,0,0,0-2.139-2.139H32.08l.2-1.685h0l.325-2.723a1.866,1.866,0,0,0-1.12-1.931l-.856-.363L32.6,5.3a2.142,2.142,0,1,0-3.944-1.671L26.686,8.28l-.856-.363a1.868,1.868,0,0,0-2.167.539l-6.657,8.186s-.005.01-.009.014H7.738A2.142,2.142,0,0,0,5.6,18.795V29.519A4.293,4.293,0,0,0,2.25,33.7v6.9a2.21,2.21,0,0,0,2.207,2.207H7.29v3.157H3.808a.513.513,0,0,0,0,1.025H45.459a.513.513,0,1,0,0-1.025H41.978V42.809h2.833A2.21,2.21,0,0,0,47.018,40.6V33.7a4.3,4.3,0,0,0-3.344-4.181ZM29.6,4.033a1.117,1.117,0,1,1,2.057.871L29.685,9.55l-2.056-.871ZM24.457,9.1a.843.843,0,0,1,.182-.161l.051-.031a.849.849,0,0,1,.194-.082l.026-.009a.867.867,0,0,1,.223-.019.826.826,0,0,1,.3.06l1.255.532a.5.5,0,0,0,.067.046l3,1.271a.518.518,0,0,0,.08.016l1.255.532a.837.837,0,0,1,.5.867l-.244,2.046L23.156,10.7ZM17.8,17.288l4.683-5.759,8.734,3.7-.88,7.371a.276.276,0,0,1-.139.211.279.279,0,0,1-.251.016l-2.642-1.12.9-2.124a.513.513,0,1,0-.944-.4l-.9,2.124L24.4,20.475l1.417-3.343a.513.513,0,1,0-.944-.4l-1.417,3.343-1.963-.832.9-2.124a.513.513,0,0,0-.944-.4l-.9,2.124-2.642-1.12a.277.277,0,0,1-.163-.191.284.284,0,0,1,.056-.245ZM6.624,18.794A1.115,1.115,0,0,1,7.738,17.68h9c.005.033,0,.067.013.1a1.3,1.3,0,0,0,.758.887l3.113,1.319h0l5.813,2.463h0l3.113,1.319a1.307,1.307,0,0,0,1.807-1.048l.6-5.041h9.578a1.115,1.115,0,0,1,1.114,1.114v10.58H39.4v-2.6a1.428,1.428,0,0,0-1.426-1.426h-8.5a1.428,1.428,0,0,0-1.426,1.426v2.6H21.222v-2.6A1.428,1.428,0,0,0,19.8,25.345H11.29a1.428,1.428,0,0,0-1.426,1.426v2.6H6.624Zm31.754,7.978v2.6H29.071v-2.6a.4.4,0,0,1,.4-.4h8.506a.4.4,0,0,1,.4.4Zm-18.181,0v2.6H10.89v-2.6a.4.4,0,0,1,.4-.4H19.8A.4.4,0,0,1,20.2,26.772ZM10.3,45.965H8.314V42.808h3.611Zm1.153,0,1.622-3.157h23.11l1.622,3.157Zm29.5,0h-1.99l-1.622-3.157h3.611v3.157Zm5.04-5.364a1.183,1.183,0,0,1-1.182,1.182H41.476l-.012,0H36.5l-.009,0H12.775l-.009,0H7.8l-.012,0H4.457A1.183,1.183,0,0,1,3.275,40.6V39.324H45.992Zm0-2.3H3.275V33.7a3.267,3.267,0,0,1,3.264-3.264h36.19A3.267,3.267,0,0,1,45.992,33.7Z" transform="translate(0 0)" fill="#7d8c48"/><path d="M17.62,14.172a2.788,2.788,0,1,0,2.786-2.791,2.791,2.791,0,0,0-2.786,2.791Zm4.551,0a1.763,1.763,0,1,1-1.765-1.765A1.768,1.768,0,0,1,22.171,14.172Z" transform="translate(-4.865 -2.866)" fill="#7d8c48"/><path d="M48.45,17.093a2.377,2.377,0,1,0,2.375-2.379A2.38,2.38,0,0,0,48.45,17.093Zm3.73,0a1.352,1.352,0,1,1-1.355-1.354A1.356,1.356,0,0,1,52.18,17.093Z" transform="translate(-14.624 -3.921)" fill="#7d8c48"/><path d="M20.391,30.794a1.908,1.908,0,1,0-1.9-1.908A1.91,1.91,0,0,0,20.391,30.794Zm0-2.79a.882.882,0,1,1-.879.882A.883.883,0,0,1,20.391,28Z" transform="translate(-5.139 -7.803)" fill="#7d8c48"/><path d="M49.16,30.794a1.908,1.908,0,1,0-1.9-1.908A1.91,1.91,0,0,0,49.16,30.794Zm0-2.79a.882.882,0,1,1-.879.882A.884.884,0,0,1,49.16,28Z" transform="translate(-14.246 -7.803)" fill="#7d8c48"/></g></g></svg>