<svg xmlns="http://www.w3.org/2000/svg" width="124" height="124" viewBox="0 0 124 124"><g transform="translate(-893 -7012.553)"><circle cx="62" cy="62" r="62" transform="translate(893 7012.553)" fill="#b8dcf3"/><path d="M73.475,13.226,67.408,7.081a.773.773,0,0,0-.552-.231H54.836a1.365,1.365,0,0,0-1.361,1.368v1.939a1.366,1.366,0,0,0,1.361,1.368h.649V16.3h-.623a.775.775,0,0,0-.775.775V20.99c-.533-.013-1.209-.07-1.368.589l-3.938,15.9a.744.744,0,0,0-.023.187V51.361H45.743c.027-3.468-.091-10.209-.058-13.691-.011-.355-3.914-15.779-3.961-16.091-.155-.65-.835-.607-1.367-.589V17.074a.775.775,0,0,0-.775-.775h-.62V11.525h4.895l2.752,2.79a.773.773,0,0,0,.552.231h4.392a.78.78,0,0,0,.552-1.318L46.037,7.082a.773.773,0,0,0-.552-.231H33.465A1.365,1.365,0,0,0,32.1,8.22v1.939a1.366,1.366,0,0,0,1.361,1.368h.649V16.3h-.623a.775.775,0,0,0-.775.775v3.916c-.533-.013-1.21-.071-1.37.589l-3.938,15.9a.744.744,0,0,0-.023.187V51.363H24.157c.027-3.468-.091-10.209-.058-13.691-.011-.355-3.907-15.779-3.954-16.091-.155-.651-.841-.607-1.373-.589V17.074A.775.775,0,0,0,18,16.3h-.62V11.525h4.895l2.754,2.79a.773.773,0,0,0,.552.231h4.392a.78.78,0,0,0,.552-1.319L24.454,7.082a.773.773,0,0,0-.552-.231H11.881A1.365,1.365,0,0,0,10.52,8.22v1.939a1.366,1.366,0,0,0,1.361,1.368h.65V16.3h-.624a.775.775,0,0,0-.775.775v3.916c-.535-.013-1.212-.071-1.371.589l-3.931,15.9a.753.753,0,0,0-.023.187V51.857L1.178,57.436A.823.823,0,0,0,1,57.931V77.105a.775.775,0,0,0,.775.775H71.307a.775.775,0,0,0,.775-.775V57.928a.842.842,0,0,0-.178-.495l-4.792-5.774c.026-3.546-.08-10.435-.053-13.99-.011-.356-3.914-15.779-3.961-16.091-.155-.65-.838-.607-1.37-.589V17.074a.775.775,0,0,0-.775-.775h-.62V11.525h4.895l2.752,2.79a.773.773,0,0,0,.552.231h4.392a.781.781,0,0,0,.552-1.32ZM50.308,45.751h15.2v11.4h-15.2Zm-4.563,7.158h3.013v4.245H45.745ZM33.655,9.976V8.4H45.163l4.537,4.6H47.485l-2.751-2.788a.773.773,0,0,0-.552-.231Zm5.153,7.873v3.14h-4.54v-3.14ZM35.666,16.3V11.525h1.748V16.3ZM28.936,37.763l3.77-15.225c1.109,0,6.551,0,7.66,0l3.77,15.225V44.2h-15.2Zm0,7.988h15.2v11.4h-15.2Zm-4.778,7.158h3.227v4.245H24.158ZM12.07,9.976V8.4H23.578l4.537,4.6H25.9l-2.754-2.788a.773.773,0,0,0-.552-.231Zm5.153,7.873v3.14H12.681v-3.14ZM14.081,16.3V11.525h1.748V16.3ZM7.357,37.763,11.12,22.539c1.113,0,6.553,0,7.666,0l3.764,15.225V44.2H7.357Zm0,7.988H22.551v11.4H7.357ZM5.808,54.282v2.872H3.425Zm61.3-.2,2.546,3.067H67.11ZM70.531,58.7V76.329H2.549V58.7ZM60.952,22.542c.017-.01.768,0,.785,0l3.77,15.225V44.2h-15.2V37.764l3.77-15.225c.134,0,6.48,0,6.875,0Zm-.775-4.694v3.14h-4.54v-3.14ZM57.035,16.3V11.525h1.748V16.3Zm11.819-3.3L66.1,10.207a.773.773,0,0,0-.552-.231H55.024V8.4H66.533l4.536,4.6Zm-61,61.01h30.39a.775.775,0,0,0,.775-.775V62.786a.775.775,0,0,0-.775-.775H7.853a.775.775,0,0,0-.775.775V73.23a.776.776,0,0,0,.775.775Zm.775-10.444h28.84v8.893H8.629Zm1.9,2.724a.775.775,0,0,1,.775-.775H21.534a.775.775,0,1,1,0,1.551H11.3A.774.774,0,0,1,10.524,66.285Zm22.228,3.447a.775.775,0,0,1-.775.775H11.3a.775.775,0,1,1,0-1.551H31.978A.774.774,0,0,1,32.752,69.732Z" transform="translate(917.652 7034.188)" fill="#20849e"/></g></svg>