<svg xmlns="http://www.w3.org/2000/svg" width="124" height="124" viewBox="0 0 124 124"><g transform="translate(-1205 -7054.553)"><circle cx="62" cy="62" r="62" transform="translate(1205 7054.553)" fill="#b8dcf3"/><g transform="translate(1221.636 7085)"><path d="M80.915,23.608,67.994,18.44a1.292,1.292,0,0,0-.96,0l-2.1.842V10.337a1.3,1.3,0,0,0-.378-.914C62.509,7.38,55.566.436,55.494.366a1.292,1.292,0,0,0-.9-.366h-32.3A1.292,1.292,0,0,0,21,1.292v63.57a1.292,1.292,0,0,0,1.292,1.292H63.638a1.292,1.292,0,0,0,1.292-1.292V45.839l2.08.832a1.3,1.3,0,0,0,1.009,0l12.9-5.158a1.292,1.292,0,0,0,.812-1.2v-15.5a1.3,1.3,0,0,0-.812-1.2ZM55.886,4.411l4.633,4.633H55.886ZM23.584,63.57V58.4H62.346V63.57Zm38.762-7.752H23.584V2.584H53.3v7.752a1.292,1.292,0,0,0,1.292,1.292h7.752v8.687l-8.232,3.293a1.3,1.3,0,0,0-.812,1.226V40.313a1.292,1.292,0,0,0,.812,1.2l8.232,3.293Zm3.876-12.245L55.886,39.438V26.716l10.337,4.135Zm1.292-14.988-9.442-3.777,9.442-3.777,9.442,3.777ZM79.143,39.438,68.807,43.572V30.851l10.337-4.135Z" fill="#20849e"/><path d="M70.422,72.378l-5.547,5.547-1.671-1.671a1.292,1.292,0,0,0-1.827,1.827l2.584,2.584a1.292,1.292,0,0,0,1.827,0l6.46-6.46a1.292,1.292,0,0,0-1.827-1.827Z" transform="translate(-34.831 -62.697)" fill="#20849e"/><path d="M152.292,124.584h19.381a1.292,1.292,0,1,0,0-2.584H152.292a1.292,1.292,0,0,0,0,2.584Z" transform="translate(-113.203 -106.237)" fill="#20849e"/><path d="M70.422,162.378l-5.547,5.547-1.671-1.671a1.292,1.292,0,0,0-1.827,1.827l2.584,2.584a1.292,1.292,0,0,0,1.827,0l6.46-6.46a1.292,1.292,0,0,0-1.827-1.827Z" transform="translate(-34.831 -141.068)" fill="#20849e"/><path d="M152.292,214.584h10.337a1.292,1.292,0,1,0,0-2.584H152.292a1.292,1.292,0,1,0,0,2.584Z" transform="translate(-113.203 -184.608)" fill="#20849e"/><path d="M70.422,252.378l-5.547,5.547-1.671-1.671a1.292,1.292,0,0,0-1.827,1.827l2.584,2.584a1.292,1.292,0,0,0,1.827,0l6.46-6.46a1.292,1.292,0,0,0-1.827-1.827Z" transform="translate(-34.831 -219.439)" fill="#20849e"/><path d="M152.292,304.584h10.337a1.292,1.292,0,1,0,0-2.584H152.292a1.292,1.292,0,1,0,0,2.584Z" transform="translate(-113.203 -262.979)" fill="#20849e"/><path d="M70.422,342.378l-5.547,5.547-1.671-1.671a1.292,1.292,0,0,0-1.827,1.827l2.584,2.584a1.292,1.292,0,0,0,1.827,0l6.46-6.46a1.292,1.292,0,0,0-1.827-1.827Z" transform="translate(-34.831 -297.811)" fill="#20849e"/><path d="M151,393.292a1.292,1.292,0,0,0,1.292,1.292h19.381a1.292,1.292,0,1,0,0-2.584H152.292A1.292,1.292,0,0,0,151,393.292Z" transform="translate(-113.203 -341.351)" fill="#20849e"/></g></g></svg>