<svg xmlns="http://www.w3.org/2000/svg" width="124" height="124" viewBox="0 0 124 124"><g transform="translate(-582 -1220.061)"><circle cx="62" cy="62" r="62" transform="translate(582 1220.061)" fill="#b8dcf3"/><path d="M86.013,44.028h0l0,0,1.508-1.508a1.663,1.663,0,0,0,0-2.341L64.672,17.324a2.014,2.014,0,0,0-2.837,0l-28.83,28.83A4.379,4.379,0,0,1,35.5,47.4l5.374,5.374c.211-.255.407-.5.591-.752.484-.651.893-1.286,1.312-1.976.242-.4.523-.877.806-1.36.626-1.066,1.262-2.15,1.894-3.052,1.8-2.575,5.374-5.743,8.34-8.373.91-.807,1.761-1.562,2.533-2.279a2.508,2.508,0,0,1,2.9-.475,2.972,2.972,0,0,1,1.4,1.434l.564-.523a2.508,2.508,0,0,1,2.9-.475,2.97,2.97,0,0,1,1.412,1.473l.807-.739a2.521,2.521,0,0,1,2.909-.466A2.9,2.9,0,0,1,70.69,36.82c.006.017.012.034.017.051A2.49,2.49,0,0,1,70.1,39.5a2.83,2.83,0,0,1,.745.537l.258.258v.066a2.7,2.7,0,0,1-.424,3.511l-2.308,2.082.048.023a3.326,3.326,0,0,1,1.037.817,3.779,3.779,0,0,1,.661,1.116,2.989,2.989,0,0,1-.725,3.4c-.9.792-1.778,1.647-2.647,2.49-3.107,3.016-6.072,5.894-10.386,6.515A34.038,34.038,0,0,0,52.641,61a11.4,11.4,0,0,0-2.565.968l9,9Zm1.867.62,2.373,2.372a.88.88,0,0,1,0,1.244L57.705,80.811a.879.879,0,0,1-1.244,0l-12.14-12.14c-.439.845-.885,1.741-1.271,2.516-.4.8-.734,1.475-.959,1.878a.88.88,0,0,1-1.419.251L29.938,62.581a.88.88,0,0,1,.268-1.427,32.63,32.63,0,0,0,4.13-2.468l-5.06-5.06a4.389,4.389,0,0,1-1.282-3.114h0A4.391,4.391,0,0,1,29.276,47.4L60.592,16.081a3.773,3.773,0,0,1,5.324,0L88.767,38.932a3.421,3.421,0,0,1,0,4.828ZM43.307,66.837c-.618,1.132-1.283,2.468-1.83,3.567-.146.294-.284.571-.409.82l-9.046-9.047a29.973,29.973,0,0,0,3.573-2.241q.269-.2.546-.407a.887.887,0,0,0,.132-.1c.7-.54,1.438-1.14,2.144-1.752.941-.815,1.845-1.66,2.588-2.427q.274-.283.521-.554l.017-.017a.9.9,0,0,0,.072-.082c.48-.532.891-1.035,1.263-1.536.51-.686.949-1.368,1.4-2.114.293-.483.556-.93.82-1.381.61-1.039,1.23-2.095,1.818-2.935,1.682-2.4,5.17-5.5,8.066-8.064.964-.855,1.866-1.655,2.567-2.306a.821.821,0,0,1,.946-.173,1.133,1.133,0,0,1,.348.256,1.119,1.119,0,0,1,.224.366.843.843,0,0,1-.275.946l-.035.033L53.44,42.63a.878.878,0,0,0,1.2,1.285l5.316-4.937.016-.014c.032-.029.063-.058.093-.087L62.405,36.7a.821.821,0,0,1,.946-.173,1.136,1.136,0,0,1,.348.256,1.117,1.117,0,0,1,.224.366.843.843,0,0,1-.275.946.879.879,0,0,0-.135.153l-6.32,5.784a.875.875,0,1,0,1.182,1.292l9.134-8.357a.838.838,0,0,1,.964-.177,1.173,1.173,0,0,1,.568.631l.01.027a.839.839,0,0,1-.286.908L60.7,45.511a.876.876,0,1,0,1.161,1.312L68.1,41.288a.873.873,0,0,0,.12-.082,1.009,1.009,0,0,1,1.376.065.937.937,0,0,1-.089,1.293l-4.432,4-4.845,4.371A.878.878,0,1,0,61.4,52.239l4.845-4.371a1.216,1.216,0,0,1,1.4-.32,1.553,1.553,0,0,1,.48.384,2.01,2.01,0,0,1,.352.594,1.3,1.3,0,0,1-.244,1.466c-.954.842-1.837,1.7-2.709,2.545-2.9,2.811-5.66,5.494-9.41,6.034A35.291,35.291,0,0,0,52.2,59.3a11.605,11.605,0,0,0-3.8,1.647l-.183.134a.873.873,0,0,0-.11.083,16.625,16.625,0,0,0-1.7,1.514A22.664,22.664,0,0,0,44.489,64.9,16.554,16.554,0,0,0,43.36,66.74a.877.877,0,0,0-.053.1Zm1.887.22a11.144,11.144,0,0,1,.7-1.1,20.918,20.918,0,0,1,1.771-2.049c.321-.325.644-.63.964-.9l9.826,9.826a.879.879,0,0,0,1.244,0L86.636,45.892l1.751,1.751-31.3,31.3L45.2,67.057ZM39.7,54.078c-.7.721-1.549,1.511-2.429,2.273-.505.438-1.018.865-1.518,1.263l-5.232-5.232a2.638,2.638,0,0,1-.773-1.871h0a2.645,2.645,0,0,1,4.512-1.871Z" transform="translate(584.75 1234.035)" fill="#20849e" fill-rule="evenodd"/></g></svg>