<svg xmlns="http://www.w3.org/2000/svg" xmlns:xlink="http://www.w3.org/1999/xlink" width="102" height="102" viewBox="0 0 102 102"><defs><filter id="a" x="0" y="0" width="102" height="102" filterUnits="userSpaceOnUse"><feOffset dy="3" input="SourceAlpha"/><feGaussianBlur stdDeviation="3" result="b"/><feFlood flood-opacity="0.161"/><feComposite operator="in" in2="b"/><feComposite in="SourceGraphic"/></filter></defs><g transform="translate(-1113 -7921.512)"><g transform="translate(1122 7927.512)"><g transform="matrix(1, 0, 0, 1, -9, -6)" filter="url(#a)"><circle cx="42" cy="42" r="42" transform="translate(9 6)" fill="#fff"/></g></g><g transform="translate(1140.349 7947.601)"><g transform="translate(0)"><path d="M48,13.6A5.606,5.606,0,0,0,42.4,8h-24a5.261,5.261,0,0,0-1.453.2c-.3.072-8.2,3.051-12.885,4.82H4.055a5.453,5.453,0,0,0-2.41,1.417A5.535,5.535,0,0,0,0,18.4a5.6,5.6,0,0,0,2.726,4.8,5.586,5.586,0,0,0,0,9.6A5.594,5.594,0,0,0,5.6,43.2h24a5.548,5.548,0,0,0,2.391-.544h.018l12.871-4.834a5.587,5.587,0,0,0,.386-9.814,5.072,5.072,0,0,0,1.087-.846A5.535,5.535,0,0,0,48,23.2a5.613,5.613,0,0,0-2.728-4.8,5.1,5.1,0,0,0,1.083-.844A5.535,5.535,0,0,0,48,13.6ZM17.388,9.737A3.707,3.707,0,0,1,18.4,9.6h24a4,4,0,0,1,4,4,3.946,3.946,0,0,1-1.174,2.826,3.44,3.44,0,0,1-.941.693c-.043.023-.08.045-.121.066-1.079.4-2.979,1.114-5.924,2.219l-3.555,1.335A5.6,5.6,0,0,0,29.6,12.8H9.177c3.983-1.5,7.885-2.96,8.21-3.063ZM1.6,18.4a3.95,3.95,0,0,1,1.178-2.83,3.852,3.852,0,0,1,1.756-1.02l.066-.022a3.9,3.9,0,0,1,1-.127h24a4,4,0,0,1,1.831,7.557.749.749,0,0,0-.069.03A3.9,3.9,0,0,1,29.6,22.4H5.6a4,4,0,0,1-4-4Zm0,9.6a4.007,4.007,0,0,1,4-4h24a4,4,0,0,1,1.831,7.557.75.75,0,0,0-.069.03A3.9,3.9,0,0,1,29.6,32H5.6a4,4,0,0,1-4-4Zm4,13.6a4,4,0,0,1,0-8h24a4,4,0,0,1,0,8Zm40.8-8.8a3.949,3.949,0,0,1-1.173,2.826,4.013,4.013,0,0,1-.98.728l-9.567,3.588a5.57,5.57,0,0,0-2.129-7.093l10.56-3.962A3.99,3.99,0,0,1,46.4,32.8Zm0-9.6a3.946,3.946,0,0,1-1.174,2.826,3.44,3.44,0,0,1-.941.693l-.122.066L34.684,30.34a5.581,5.581,0,0,0-2.134-7.09L38.8,20.9c1.826-.686,3.244-1.218,4.32-1.621A4,4,0,0,1,46.4,23.2Z" transform="translate(0 -1.6)" fill="#7d8c48"/><path d="M32.2,20.8a.8.8,0,0,0-.8-.8H5.8a.8.8,0,1,0,0,1.6H31.4A.8.8,0,0,0,32.2,20.8Z" transform="translate(-1 -4)" fill="#7d8c48"/><path d="M32.2,32.8a.8.8,0,0,0-.8-.8H5.8a.8.8,0,0,0,0,1.6H31.4A.8.8,0,0,0,32.2,32.8Z" transform="translate(-1 -6.401)" fill="#7d8c48"/><path d="M31.4,44H5.8a.8.8,0,0,0,0,1.6H31.4a.8.8,0,0,0,0-1.6Z" transform="translate(-1 -8.801)" fill="#7d8c48"/><path d="M9.8,0A.8.8,0,0,0,9,.8V2.4a.8.8,0,1,0,1.6,0V.8A.8.8,0,0,0,9.8,0Z" transform="translate(-1.8 0)" fill="#7d8c48"/><path d="M9,8.4a.8.8,0,1,0,1.6,0V6.8A.8.8,0,1,0,9,6.8Z" transform="translate(-1.8 -1.2)" fill="#7d8c48"/><path d="M7.4,4H5.8a.8.8,0,0,0,0,1.6H7.4A.8.8,0,0,0,7.4,4Z" transform="translate(-1 -0.8)" fill="#7d8c48"/><path d="M11.8,5.6h1.6a.8.8,0,0,0,0-1.6H11.8a.8.8,0,0,0,0,1.6Z" transform="translate(-2.2 -0.8)" fill="#7d8c48"/><path d="M57.868,52.737a.8.8,0,0,0-1.131,1.131l1.2,1.2a.8.8,0,0,0,1.131-1.131Z" transform="translate(-11.303 -10.503)" fill="#7d8c48"/><path d="M53.437,50.568a.8.8,0,0,0,1.131-1.131l-1.2-1.2a.8.8,0,0,0-1.131,1.131Z" transform="translate(-10.403 -9.603)" fill="#7d8c48"/><path d="M52.234,55.068a.8.8,0,0,0,1.131,0l1.2-1.2a.8.8,0,0,0-1.131-1.131l-1.2,1.2A.8.8,0,0,0,52.234,55.068Z" transform="translate(-10.401 -10.503)" fill="#7d8c48"/><path d="M57.932,48.237l-1.2,1.2a.8.8,0,1,0,1.131,1.131l1.2-1.2a.8.8,0,0,0-1.131-1.131Z" transform="translate(-11.298 -9.603)" fill="#7d8c48"/></g></g></g></svg>