<svg xmlns="http://www.w3.org/2000/svg" xmlns:xlink="http://www.w3.org/1999/xlink" width="102" height="102" viewBox="0 0 102 102"><defs><filter id="a" x="0" y="0" width="102" height="102" filterUnits="userSpaceOnUse"><feOffset dy="3" input="SourceAlpha"/><feGaussianBlur stdDeviation="3" result="b"/><feFlood flood-opacity="0.161"/><feComposite operator="in" in2="b"/><feComposite in="SourceGraphic"/></filter></defs><g transform="translate(-800 -1608.324)"><g transform="translate(809 1614.324)"><g transform="matrix(1, 0, 0, 1, -9, -6)" filter="url(#a)"><circle cx="42" cy="42" r="42" transform="translate(9 6)" fill="#e3f1fa"/></g></g><g transform="translate(823.978 1632.761)"><path d="M38.562,2H11.49a.724.724,0,0,0-.725.725V7H7.391a.724.724,0,0,0-.725.725V44.754a.724.724,0,0,0,.725.725H42.654a.724.724,0,0,0,.725-.725V7.725A.724.724,0,0,0,42.654,7H39.286V2.725A.724.724,0,0,0,38.562,2Zm-.725,5.725v4.283H25.747V3.449h12.09ZM12.215,3.449H24.3v8.559H12.215Zm-4.1,40.58v-17.2c1.354-.182,5.243.018,8.431,7.262a.724.724,0,0,0,1.1.288c.188-.141,17.817-13.333,24.286-17.481V44.029Zm1.947-18.546c9.444-5.211,23.241-7.78,29.444-8.728-6.536,4.4-18.867,13.575-22.013,15.923-2.454-5.1-5.333-6.749-7.431-7.195ZM41.929,8.45v6.5c-3.736.462-22.3,3.049-33.814,9.986V8.45h2.65v4.283a.724.724,0,0,0,.725.725H38.562a.724.724,0,0,0,.725-.725V8.45Z" fill="#7d8c48"/><path d="M51.8,35.547a.724.724,0,0,0-.725.725v.467a.725.725,0,0,0,1.449,0v-.467A.724.724,0,0,0,51.8,35.547Z" transform="translate(-12.229 -9.237)" fill="#7d8c48"/><path d="M51.8,40.451a.724.724,0,0,0-.725.725V51.9a.725.725,0,0,0,1.449,0V41.176A.724.724,0,0,0,51.8,40.451Z" transform="translate(-12.229 -10.588)" fill="#7d8c48"/></g></g></svg>