<svg xmlns="http://www.w3.org/2000/svg" width="124" height="124" viewBox="0 0 124 124"><g transform="translate(-894 -1218.061)"><circle cx="62" cy="62" r="62" transform="translate(894 1218.061)" fill="#b8dcf3"/><g transform="translate(906.384 1249.017)"><g transform="translate(21.333)"><path d="M122.189,6.467a6.468,6.468,0,0,0-12.935,0V46.736a9.055,9.055,0,1,0,12.935,0ZM115.721,59.5a6.475,6.475,0,0,1-6.467-6.467,6.38,6.38,0,0,1,2.16-4.786,1.3,1.3,0,0,0,.427-.961V6.467a3.88,3.88,0,0,1,7.761,0V47.286a1.3,1.3,0,0,0,.427.961,6.38,6.38,0,0,1,2.16,4.786A6.475,6.475,0,0,1,115.721,59.5Z" transform="translate(-96.319)" fill="#20849e"/><path d="M154.507,236.854V214.627a1.294,1.294,0,0,0-2.587,0v22.228a3.881,3.881,0,1,0,2.587,0Zm-1.294,4.936a1.294,1.294,0,1,1,1.294-1.294A1.294,1.294,0,0,1,153.214,241.79Z" transform="translate(-133.811 -187.463)" fill="#20849e"/><path d="M30.388,341.333H22.627a1.294,1.294,0,1,0,0,2.587h7.761a1.294,1.294,0,1,0,0-2.587Z" transform="translate(-21.333 -299.941)" fill="#20849e"/><path d="M67.88,298.667H65.294a1.293,1.293,0,1,0,0,2.587H67.88a1.293,1.293,0,1,0,0-2.587Z" transform="translate(-58.826 -262.449)" fill="#20849e"/><path d="M67.88,256H65.294a1.294,1.294,0,1,0,0,2.587H67.88a1.294,1.294,0,1,0,0-2.587Z" transform="translate(-58.826 -224.956)" fill="#20849e"/><path d="M22.627,215.92h7.761a1.294,1.294,0,1,0,0-2.587H22.627a1.294,1.294,0,1,0,0,2.587Z" transform="translate(-21.333 -187.463)" fill="#20849e"/><path d="M22.627,87.92h7.761a1.294,1.294,0,1,0,0-2.587H22.627a1.294,1.294,0,1,0,0,2.587Z" transform="translate(-21.333 -74.985)" fill="#20849e"/><path d="M67.88,170.667H65.294a1.293,1.293,0,1,0,0,2.587H67.88a1.293,1.293,0,1,0,0-2.587Z" transform="translate(-58.826 -149.971)" fill="#20849e"/><path d="M67.88,128H65.294a1.294,1.294,0,1,0,0,2.587H67.88a1.294,1.294,0,1,0,0-2.587Z" transform="translate(-58.826 -112.478)" fill="#20849e"/><path d="M283.8,151.921h2.587a3.885,3.885,0,0,1,3.88,3.88,1.294,1.294,0,1,0,2.587,0,6.475,6.475,0,0,0-6.467-6.467H283.8a6.475,6.475,0,0,0-6.467,6.467v10.348a6.475,6.475,0,0,0,6.467,6.467h2.587a6.475,6.475,0,0,0,6.467-6.467,1.294,1.294,0,1,0-2.587,0,3.885,3.885,0,0,1-3.88,3.88H283.8a3.885,3.885,0,0,1-3.88-3.88V155.8A3.885,3.885,0,0,1,283.8,151.921Z" transform="translate(-246.291 -131.225)" fill="#20849e"/><path d="M430.547,149.333a3.88,3.88,0,1,0,3.88,3.88A3.885,3.885,0,0,0,430.547,149.333Zm0,5.174a1.294,1.294,0,1,1,1.294-1.294A1.294,1.294,0,0,1,430.547,154.507Z" transform="translate(-377.514 -131.224)" fill="#20849e"/></g></g></g></svg>