<svg xmlns="http://www.w3.org/2000/svg" width="124" height="124" viewBox="0 0 124 124"><g transform="translate(-789 -1722.553)"><circle cx="62" cy="62" r="62" transform="translate(789 1722.553)" fill="#b8dcf3"/><path d="M69.773,50.16a6.546,6.546,0,1,0-7.487,0,10.239,10.239,0,0,0-6.368,8.08A7.926,7.926,0,0,0,53.1,56.072a5.144,5.144,0,1,0-6.548,0A7.933,7.933,0,0,0,42.895,59.5a7.932,7.932,0,0,0-3.661-3.424,5.144,5.144,0,1,0-6.548,0,7.926,7.926,0,0,0-2.815,2.167A10.239,10.239,0,0,0,23.5,50.16a6.546,6.546,0,1,0-7.487,0,10.227,10.227,0,0,0-6.469,9.5v11.7a.947.947,0,0,0,.947.947h64.8a.947.947,0,0,0,.947-.947v-11.7a10.227,10.227,0,0,0-6.469-9.5ZM15.108,44.794a4.652,4.652,0,1,1,4.652,4.652A4.657,4.657,0,0,1,15.108,44.794Zm12.97,18.446v7.175H11.441V59.658a8.318,8.318,0,0,1,16.636,0v3.581ZM35.96,48.859a3.249,3.249,0,1,1-3.249,3.249A3.253,3.253,0,0,1,35.96,48.859Zm5.988,21.556H29.972V63.239a5.988,5.988,0,1,1,11.975,0Zm7.882-21.556a3.249,3.249,0,1,1-3.249,3.249A3.253,3.253,0,0,1,49.829,48.859Zm5.988,21.556H43.842V63.239a5.988,5.988,0,0,1,11.975,0Zm5.56-25.621a4.652,4.652,0,1,1,4.652,4.652A4.657,4.657,0,0,1,61.377,44.794Zm12.97,25.621H57.711V59.658a8.318,8.318,0,1,1,16.636,0Zm-51.5-51.583.017.017,2.857,2.857a23.184,23.184,0,0,0-6.8,14.4.947.947,0,1,0,1.886.175,21.524,21.524,0,0,1,.377-2.478,9.79,9.79,0,0,0,5.155-2.5,1.875,1.875,0,0,1,1.373-.774,1.124,1.124,0,0,1,.794.621c.929,1.994-1.49,4.6-3.4,6.4l1.3,1.379a18.663,18.663,0,0,0,3.236-3.769,4.944,4.944,0,0,0,.547-4.879q-.018-.037-.04-.073a2.925,2.925,0,0,0-2.271-1.566,3.637,3.637,0,0,0-2.965,1.413,7.843,7.843,0,0,1-3.19,1.7,21.29,21.29,0,0,1,5.358-8.7l1.807,1.807a.947.947,0,0,0,1.34-1.339l-1.738-1.738a22.1,22.1,0,0,1,4.988-3.107c.891,2.229,2.11,3.6,3.632,4.071l.11.034c.92.285,2.634.816,2.937,1.528.032.075.117.274-.106.718a2.879,2.879,0,0,0,.131,2.863c.366.733.631,1.263-.772,2.955a3.637,3.637,0,0,0-.614,2.523c.014,1.231.021,1.849-1.5,2.192a13.14,13.14,0,0,0-2.8,1.278c-1.658.976-2.427,1.848-2.42,2.744,0,.618.358,1.428,2.015,1.774a.943.943,0,0,0,.133.018c.325.021.938.324,2.013,1.65a3.365,3.365,0,0,0,2.652,1.416q.076,0,.147,0a4.174,4.174,0,0,0,3.137-2.082c.106-.161.229-.359.365-.578A16.421,16.421,0,0,1,44.064,39.6c.565-.63.876-.7.922-.685,1.782.612,3.136.517,4.024-.285,1.65-1.49.885-4.77.379-6.94-.091-.39-.169-.726-.218-.987a3.328,3.328,0,0,1,1.578-2.919c.66-.465,1.193-.535,1.361-.437.118.069.317.451.221,1.4a2.822,2.822,0,0,0,.729,2.574c.857.692,2.086.427,3.174.076,3.192-1.027,3.228-3.149,3.254-4.7a3.1,3.1,0,0,1,.524-2.186,21.37,21.37,0,0,1,4.965,11.775.947.947,0,0,0,.942.856c.031,0,.062,0,.093,0a.947.947,0,0,0,.851-1.034,23.342,23.342,0,0,0-7.748-15.244A23.742,23.742,0,0,0,55.8,18.4l2.367-4.1.239.005c2.093.046,2.8.061,5.353,3.077,2.876,3.394,5.54,4.339,8.658,4.339.568,0,1.151-.031,1.753-.085a.947.947,0,0,0,.394-1.761c-3.19-1.864-3.649-3.3-4.285-5.3a17.968,17.968,0,0,0-1.052-2.729c-1.892-3.781-4.614-4.682-8.392-4.91a.95.95,0,0,0-.877.472l-5.808,10.06a24.867,24.867,0,0,0-27.028,2.958L24.594,17.9l.052-.179c.541-1.856.723-2.482,4.036-4.046,4.466-2.109,5.756-4.781,6.389-8.409a.947.947,0,0,0-1.6-.836C31.037,6.839,29.636,6.9,27.7,7a16.836,16.836,0,0,0-2.726.291c-3.9.8-5.379,3.051-6.5,6.425a.947.947,0,0,0,.229.97l4.151,4.151ZM61.3,8.871c2.987.247,4.813.993,6.231,3.826a16.192,16.192,0,0,1,.942,2.457,9.154,9.154,0,0,0,2.69,4.61c-2.106-.242-3.916-1.193-5.96-3.6-2.653-3.13-3.93-3.612-5.963-3.719Zm-18.41,7.8a22.381,22.381,0,0,1,15.83,6.444,4.764,4.764,0,0,0-1.131,3.549c-.024,1.444-.039,2.315-1.94,2.927a2.918,2.918,0,0,1-1.4.251,1.961,1.961,0,0,1-.041-.909c.2-1.994-.516-2.854-1.151-3.225a3.2,3.2,0,0,0-3.407.524,5.13,5.13,0,0,0-2.349,4.816c.056.3.139.657.235,1.068.33,1.416,1.017,4.363.2,5.1-.323.292-1.1.255-2.138-.1-1.981-.681-3.6,1.932-4.679,3.662-.127.2-.241.388-.34.538a2.393,2.393,0,0,1-1.648,1.23,1.547,1.547,0,0,1-1.232-.713c-1.23-1.518-2.247-2.244-3.285-2.342-.117-.026-.211-.052-.286-.076a11.589,11.589,0,0,1,3.578-2.006c3.014-.679,2.99-2.8,2.976-4.061a2.375,2.375,0,0,1,.178-1.293c2.024-2.441,1.632-3.763,1.009-5.011-.268-.536-.358-.717-.132-1.166a2.664,2.664,0,0,0,.156-2.31c-.647-1.519-2.654-2.141-4.119-2.595l-.109-.034c-1.134-.352-1.923-1.682-2.437-2.968a22.964,22.964,0,0,1,7.664-1.3ZM25.353,9.142a15.06,15.06,0,0,1,2.434-.254A8.663,8.663,0,0,0,32.46,7.671c-.736,1.739-2.024,3.081-4.586,4.291-3.427,1.618-4.209,2.655-4.8,4.421l-2.622-2.622c.934-2.589,2.042-4.033,4.9-4.618Z" transform="translate(808.105 1746.32)" fill="#20849e"/></g></svg>