<svg xmlns="http://www.w3.org/2000/svg" width="86.206" height="86.206" viewBox="0 0 86.206 86.206"><g transform="translate(-410.794 -3607.148)"><circle cx="43.103" cy="43.103" r="43.103" transform="translate(410.794 3607.148)" fill="#b8dcf3"/><path d="M12.5,0H-12.3V-5.371L-.879-17.383q4.224-4.81,4.224-7.642a5.315,5.315,0,0,0-1-3.491,3.574,3.574,0,0,0-2.905-1.2,3.618,3.618,0,0,0-3.052,1.6,6.572,6.572,0,0,0-1.172,3.992h-8.252A11.674,11.674,0,0,1-11.4-30.164,11.471,11.471,0,0,1-6.86-34.5,13.489,13.489,0,0,1-.366-36.06q5.762,0,8.875,2.661t3.113,7.642a11.1,11.1,0,0,1-.781,4.089,17.934,17.934,0,0,1-2.429,4.175A61.191,61.191,0,0,1,3.1-11.646l-4.59,5.3H12.5Z" transform="translate(453.348 3668)" fill="#20849e"/></g></svg>