<svg xmlns="http://www.w3.org/2000/svg" xmlns:xlink="http://www.w3.org/1999/xlink" width="124" height="124" viewBox="0 0 124 124"><defs><clipPath id="a"><path d="M0-682.665H58.086v58.086H0Z" transform="translate(0 682.665)"/></clipPath></defs><g transform="translate(-1206 -1220.061)"><circle cx="62" cy="62" r="62" transform="translate(1206 1220.061)" fill="#b8dcf3"/><g transform="translate(1238.957 1935.684)"><g transform="translate(0 -682.665)"><g clip-path="url(#a)"><g transform="translate(3.51 0.851)"><path d="M-378.174-533.563a21.016,21.016,0,0,1-9.6,2.306,21.117,21.117,0,0,1-21.114-21.118,21.114,21.114,0,0,1,21.114-21.115,2.2,2.2,0,0,0,2.161-1.685,2.207,2.207,0,0,0-1.1-2.508l-9.724-5.235a2.234,2.234,0,0,0-3.02.907,2.235,2.235,0,0,0,.907,3.02l3.753,2.023a25.49,25.49,0,0,0-10.242,5.734m-2.6,2.759a25.473,25.473,0,0,0-5.7,16.1A25.573,25.573,0,0,0-387.773-526.8a25.583,25.583,0,0,0,24.533-18.33,2.235,2.235,0,0,0-1.508-2.769,2.229,2.229,0,0,0-2.766,1.5,21.146,21.146,0,0,1-7.187,10.609" transform="translate(413.344 583.184)" fill="none" stroke="#20849e" stroke-linecap="round" stroke-linejoin="round" stroke-miterlimit="10" stroke-width="2"/></g><g transform="translate(44.902 14.617)"><path d="M-5.433-39.168a2.236,2.236,0,0,1,.306-3.139A2.236,2.236,0,0,1-1.989-42,25.247,25.247,0,0,1-.05-39.291a2.23,2.23,0,0,1-.714,3.068,2.229,2.229,0,0,1-3.068-.711A21.427,21.427,0,0,0-5.433-39.168Z" transform="translate(5.939 42.811)" fill="none" stroke="#20849e" stroke-linecap="round" stroke-linejoin="round" stroke-miterlimit="10" stroke-width="2"/></g><g transform="translate(36.045 7.967)"><path d="M-14.544-46.011a2.234,2.234,0,0,1-1.174-2.926,2.234,2.234,0,0,1,2.926-1.174A26.3,26.3,0,0,1-9.823-48.6a2.235,2.235,0,0,1,.782,3.055,2.231,2.231,0,0,1-3.052.781A21.685,21.685,0,0,0-14.544-46.011Z" transform="translate(15.896 50.29)" fill="none" stroke="#20849e" stroke-linecap="round" stroke-linejoin="round" stroke-miterlimit="10" stroke-width="2"/></g><g transform="translate(49.688 24.604)"><path d="M-.52-28.943A2.234,2.234,0,0,1,1.2-31.587a2.233,2.233,0,0,1,2.643,1.72,26.334,26.334,0,0,1,.473,3.3,2.236,2.236,0,0,1-2.052,2.4A2.228,2.228,0,0,1-.131-26.223,22.073,22.073,0,0,0-.52-28.943Z" transform="translate(0.569 31.635)" fill="none" stroke="#20849e" stroke-linecap="round" stroke-linejoin="round" stroke-miterlimit="10" stroke-width="2"/></g><g transform="translate(12.688 15.266)"><path d="M-176.276,0a16.392,16.392,0,0,1,16.394,16.394,16.392,16.392,0,0,1-16.394,16.394A16.394,16.394,0,0,1-192.67,16.394,16.394,16.394,0,0,1-176.276,0Z" transform="translate(192.67)" fill="none" stroke="#20849e" stroke-linecap="round" stroke-linejoin="round" stroke-miterlimit="10" stroke-width="2"/></g><g transform="translate(12.717 15.266)"><path d="M0-175.969H2.8m13.564-16.365v2.8M32.73-175.969h-2.8M16.365-159.6v-2.8" transform="translate(0 192.334)" fill="none" stroke="#20849e" stroke-linecap="round" stroke-linejoin="round" stroke-miterlimit="10" stroke-width="2"/></g><g transform="translate(17.511 20.057)"><path d="M0,0,1.978,1.981M23.143,0,21.163,1.981m1.981,21.163-1.981-1.978M0,23.144l1.978-1.978" fill="none" stroke="#20849e" stroke-linecap="round" stroke-linejoin="round" stroke-miterlimit="10" stroke-width="2"/></g><g transform="translate(26.374 28.923)"><path d="M-29.114-58.229a2.714,2.714,0,0,0,2.708-2.708,2.712,2.712,0,0,0-2.708-2.708,2.714,2.714,0,0,0-2.708,2.708A2.716,2.716,0,0,0-29.114-58.229Z" transform="translate(31.821 63.644)" fill="none" stroke="#20849e" stroke-linecap="round" stroke-linejoin="round" stroke-miterlimit="10" stroke-width="2"/></g><g transform="translate(24.901 21.781)"><path d="M0,0,3.074,7.374" fill="none" stroke="#20849e" stroke-linecap="round" stroke-linejoin="round" stroke-miterlimit="10" stroke-width="2"/></g><g transform="translate(31.789 31.631)"><path d="M0,0H4.049" fill="none" stroke="#20849e" stroke-linecap="round" stroke-linejoin="round" stroke-miterlimit="10" stroke-width="2"/></g></g></g></g></g></svg>