<svg xmlns="http://www.w3.org/2000/svg" xmlns:xlink="http://www.w3.org/1999/xlink" width="124" height="124" viewBox="0 0 124 124"><defs><clipPath id="a"><path d="M0-682.665H75.106v75.106H0Z" transform="translate(0 682.665)" fill="#20849e"/></clipPath></defs><g transform="translate(3953.221 10372.447)"><circle cx="62" cy="62" r="62" transform="translate(-3953.221 -10372.447)" fill="#b8dcf3"/><g transform="translate(-3928.565 -9667.335)"><g transform="translate(0 -682.665)"><g clip-path="url(#a)"><g transform="translate(5.281 6.748)"><path d="M-176.539-45.959l8.981-5.28a2.881,2.881,0,0,1,2.969.02l29.31,17.23a3.01,3.01,0,0,1,1.066,4.073,2.9,2.9,0,0,1-4,1.085L-166.09-45.217-193.967-28.83a2.9,2.9,0,0,1-4-1.085,3.01,3.01,0,0,1,1.066-4.073l8.98-5.279" transform="translate(198.362 51.64)" fill="none" stroke="#20849e" stroke-linecap="round" stroke-linejoin="round" stroke-miterlimit="22.926" stroke-width="2"/></g><g transform="translate(9.676 29.558)"><path d="M0,0V32.676" fill="none" stroke="#20849e" stroke-linecap="round" stroke-linejoin="round" stroke-miterlimit="22.926" stroke-width="2"/></g><g transform="translate(65.43 29.558)"><path d="M0,0V32.676" fill="none" stroke="#20849e" stroke-linecap="round" stroke-linejoin="round" stroke-miterlimit="22.926" stroke-width="2"/></g><g transform="translate(1.467 62.234)"><path d="M-28.424-49.536H36.721A3.321,3.321,0,0,0,40.235-52.6a3.321,3.321,0,0,0-3.514-3.062H-28.424A3.321,3.321,0,0,0-31.937-52.6,3.321,3.321,0,0,0-28.424-49.536Z" transform="translate(31.937 55.66)" fill="none" stroke="#20849e" stroke-linecap="round" stroke-linejoin="round" stroke-miterlimit="22.926" stroke-width="2"/></g><g transform="translate(34.502 32.741)"><path d="M0,0V13.114H8.8l4.43,9.33h2.2" fill="none" stroke="#20849e" stroke-linecap="round" stroke-linejoin="round" stroke-miterlimit="2.613" stroke-width="2"/></g><g transform="translate(35.118 36.526)"><path d="M0,0H7.217" fill="none" stroke="#20849e" stroke-linecap="round" stroke-linejoin="round" stroke-miterlimit="2.613" stroke-width="2"/></g><g transform="translate(25.172 37.776)"><path d="M-37.735,0A9.329,9.329,0,0,0-42.4,8.08a9.33,9.33,0,0,0,9.33,9.33,9.33,9.33,0,0,0,6.6-2.733" transform="translate(42.4)" fill="none" stroke="#20849e" stroke-linecap="round" stroke-linejoin="round" stroke-miterlimit="2.613" stroke-width="2"/></g><g transform="translate(31.201 25.788)"><path d="M-26.7-53.4a3.307,3.307,0,0,0,3.3-3.3A3.307,3.307,0,0,0-26.7-60,3.307,3.307,0,0,0-30-56.7,3.307,3.307,0,0,0-26.7-53.4Z" transform="translate(30 60)" fill="none" stroke="#20849e" stroke-linecap="round" stroke-linejoin="round" stroke-miterlimit="2.613" stroke-width="2"/></g><g transform="translate(21.413 15.774)"><path d="M0,0H0" fill="none" stroke="#20849e" stroke-linecap="round" stroke-linejoin="round" stroke-miterlimit="2.613" stroke-width="2"/></g></g></g></g></g></svg>