<svg xmlns="http://www.w3.org/2000/svg" xmlns:xlink="http://www.w3.org/1999/xlink" width="102" height="102" viewBox="0 0 102 102"><defs><filter id="a" x="0" y="0" width="102" height="102" filterUnits="userSpaceOnUse"><feOffset dy="3" input="SourceAlpha"/><feGaussianBlur stdDeviation="3" result="b"/><feFlood flood-opacity="0.161"/><feComposite operator="in" in2="b"/><feComposite in="SourceGraphic"/></filter></defs><g transform="translate(-594.023 -1128.196)"><g transform="translate(603.023 1134.196)"><g transform="matrix(1, 0, 0, 1, -9, -6)" filter="url(#a)"><circle cx="42" cy="42" r="42" transform="translate(9 6)" fill="#fff"/></g></g><g transform="translate(617.171 1145.704)"><path d="M53.656,35.505c-2.4-.921-18.73-5.466-19.9-5.834a.673.673,0,0,0-.491,0L4.158,38.883A.782.782,0,0,0,4.1,40.357c1.6.614,20.266,7.8,20.757,7.983,2.641,1.228,3.807,2.149,3.071,3.992-.123.123-.921.368-2.825-.368-3.193-1.29-20.327-8.229-20.327-8.229A2.875,2.875,0,0,0,1.7,45.147a2.582,2.582,0,0,0,.061,2.579,2.38,2.38,0,0,0,.86.983A2.578,2.578,0,0,0,1.7,49.753a2.582,2.582,0,0,0,.061,2.579,3.727,3.727,0,0,0,1.6,1.474c.307.184,21.74,9.273,21.74,9.273a7.148,7.148,0,0,0,2.456.491,5.5,5.5,0,0,0,2.334-.491l23.275-9.887a.758.758,0,1,0-.553-1.412L29.337,61.666a4.749,4.749,0,0,1-3.562,0S4.527,52.639,4.1,52.393a2.753,2.753,0,0,1-.983-.86,1.25,1.25,0,0,1,0-1.228c.368-.737,1.105-.676,1.72-.614L25.1,58.35a7.148,7.148,0,0,0,2.456.491,5.5,5.5,0,0,0,2.334-.491l23.275-9.826a.758.758,0,0,0-.553-1.412L29.337,57.06a4.749,4.749,0,0,1-3.562,0L5.264,48.34a4.633,4.633,0,0,1-2.149-1.351,1.25,1.25,0,0,1,0-1.228,1.268,1.268,0,0,1,1.351-.553c1.351.553,17.072,6.939,20.143,8.168a5.33,5.33,0,0,0,3.869.43c.368-.123,24.626-10.256,25.731-11.3a4.668,4.668,0,0,0,1.535-3.562,4.285,4.285,0,0,0-2.088-3.439Zm-.614,5.9c-.921.921-10.563,4.79-16.949,7.369-2.334.921-4.544,1.842-6.325,2.579.061-2.4-2.641-3.685-4.176-4.422-.491-.184-13.633-5.22-18.853-7.247l26.775-8.475c2.334.676,18.423,5.343,19.283,5.588a2.731,2.731,0,0,1,1.29,2.272A2.824,2.824,0,0,1,53.042,41.4Z" transform="translate(0 -8.885)" fill="#7d8c48"/><path d="M54.753,40.05c-.737.368-1.658.86-2.579,1.351-1.781.983-4.79,2.518-5.343,2.4a8.374,8.374,0,0,1,.246-1.044c.368-1.351.8-3.009-.368-4.053a2.443,2.443,0,0,0-2.088-.614c-2.641.307-6.325,3.5-7,4.606a.719.719,0,0,0,.246,1.044.769.769,0,0,0,1.044-.246c.491-.737,3.807-3.623,5.9-3.869.614-.061.8.123.86.184.491.43.184,1.535-.061,2.579-.553,2.4-.368,3.071.676,3.009,2.088-.184,4.544-1.412,6.694-2.641.86-.491,1.72-.983,2.4-1.29a.79.79,0,0,0,.368-1.044.7.7,0,0,0-.983-.368Z" transform="translate(-13.933 -12.14)" fill="#7d8c48"/><path d="M37.7,20.1h1.535V16.6H42.8V15H39.236V11.5H37.7V15H34.2v1.6h3.5Z" transform="translate(-12.662 -1.891)" fill="#7d8c48"/><path d="M22.411,27.618h1.535V25.407h2.211V23.872H23.946V21.6H22.411v2.272H20.2v1.535h2.211Z" transform="translate(-7.26 -5.788)" fill="#7d8c48"/><path d="M27.581,11.7h1.535V9.916H30.9V8.381H29.116V6.6H27.581V8.381H25.8V9.916h1.781Z" transform="translate(-9.421 0)" fill="#7d8c48"/></g></g></svg>