<svg xmlns="http://www.w3.org/2000/svg" xmlns:xlink="http://www.w3.org/1999/xlink" width="102" height="102" viewBox="0 0 102 102"><defs><filter id="a" x="0" y="0" width="102" height="102" filterUnits="userSpaceOnUse"><feOffset dy="3" input="SourceAlpha"/><feGaussianBlur stdDeviation="3" result="b"/><feFlood flood-opacity="0.161"/><feComposite operator="in" in2="b"/><feComposite in="SourceGraphic"/></filter></defs><g transform="translate(-1009.675 -1128.376)"><g transform="translate(1018.675 1134.376)"><g transform="matrix(1, 0, 0, 1, -9, -6)" filter="url(#a)"><circle cx="42" cy="42" r="42" transform="translate(9 6)" fill="#fff"/></g></g><path d="M35.433,53.33a.705.705,0,0,1-.536.841,25.539,25.539,0,0,1-5.511.6,25.392,25.392,0,0,1-22.1-37.884A25.565,25.565,0,0,1,14.56,8.778l-.874.022a.705.705,0,1,1-.035-1.41l3.376-.083a.705.705,0,0,1,.659,1l-1.415,3.089a.705.705,0,1,1-1.282-.587l.412-.9A23.977,23.977,0,0,0,29.385,53.36a24.129,24.129,0,0,0,5.206-.567A.705.705,0,0,1,35.433,53.33Zm14.444-8.123-.838.247A25.395,25.395,0,0,0,21.382,5.288a.705.705,0,1,0,.444,1.338A23.98,23.98,0,0,1,47.935,44.575L48.1,43.6a.705.705,0,0,0-1.39-.236l-.568,3.35a.7.7,0,0,0,.895.794l3.239-.954a.705.705,0,0,0-.4-1.353Zm-9.525-3.638v-19.1a1.061,1.061,0,0,0-.359-.789l-.009-.009-.044-.044a1.331,1.331,0,0,0-.928-.376H35a.705.705,0,0,1-.705-.705V16.527a1.332,1.332,0,0,0-.376-.928l-.044-.044-.009-.009a1.061,1.061,0,0,0-.789-.359H18.418v20.4a.705.705,0,0,1-1.41,0V14.483a.705.705,0,0,1,.705-.705H33.073a2.466,2.466,0,0,1,1.8.785l6.106,6.106a2.466,2.466,0,0,1,.785,1.8v19.1a.705.705,0,0,1-1.41,0Zm-2.2-21.728L35.7,17.385V19.84Zm-20.441,17.8a.705.705,0,0,0-.705.705v5.941a.705.705,0,0,0,.705.705h11.2a.705.705,0,1,0,0-1.41H18.418V38.347a.705.705,0,0,0-.705-.705ZM46.395,53.323a.931.931,0,0,1-1.252,1.251l-5.705-2.892a.7.7,0,0,1-.18-.13l-3.791-3.791a.705.705,0,1,1,1-1l3.292,3.292,2.12-2.119-7.651-7.651-2.119,2.119,2.409,2.409a.705.705,0,1,1-1,1l-6.334-6.334A2.909,2.909,0,0,1,31.3,35.364L43.372,47.438a.7.7,0,0,1,.13.18l2.892,5.705ZM28.181,38.481l.761.761,2.119-2.119-.761-.761a1.5,1.5,0,0,0-2.12,2.119Zm5.047.808L32.059,38.12l-2.119,2.119,1.169,1.169ZM44.475,52.655l-1.79-3.532-1.741,1.741ZM24.592,19.029a.705.705,0,0,0,0-1.41H21.255a.705.705,0,0,0-.705.705V21.8a.705.705,0,0,0,.705.705h8.311a.705.705,0,0,0,.705-.705V18.324a.705.705,0,0,0-.705-.705H26.859a.705.705,0,1,0,0,1.41h2v2.065h-6.9V19.029Zm12.923,5.352H21.255a.705.705,0,1,0,0,1.41h16.26a.705.705,0,0,0,0-1.41Zm0,3.513H21.255a.705.705,0,1,0,0,1.41h16.26a.705.705,0,0,0,0-1.41Zm.705,4.218a.705.705,0,0,0-.705-.705H21.255a.705.705,0,1,0,0,1.41h16.26a.705.705,0,0,0,.705-.705ZM24.352,39.076h-3.1a.705.705,0,1,0,0,1.41h3.1a.705.705,0,1,0,0-1.41Z" transform="translate(1031.252 1147.99)" fill="#7d8c48"/></g></svg>